<svg xmlns="http://www.w3.org/2000/svg" viewBox="0 0 400 400" id="Diversity-Unity--Streamline-Free-Illustrations.svg" height="400" width="400"><desc>Diversity Unity Streamline Illustration: https://streamlinehq.com</desc><g><g fill="#100259"><path d="m145.22 328.78 0 7.22s-4 2.42 -7.3 0l0 -7.12s1.84 2.04 7.3 -0.1zm15.64 -186.42a3.16 3.16 0 0 0 1.7 2.42 2.9 2.9 0 0 0 2.94 -0.3c0.18 0 0 -0.38 -0.12 -0.3a3.24 3.24 0 0 1 -3.84 -1.34 4 4 0 0 1 -0.36 -0.56c-0.06 -0.28 -0.38 -0.12 -0.32 0.08zm-3.04 -15.1a9.48 9.48 0 0 1 3.12 -1.72 0.16 0.16 0 1 0 0 -0.32 2.6 2.6 0 0 0 -1.04 0 3.6 3.6 0 0 0 -1.8 1.02 2.28 2.28 0 0 0 -0.54 0.88 0.16 0.16 0 0 0 0.26 0.14zM29.54 232.16a12.24 12.24 0 0 1 -2.32 -0.5c-0.94 -0.92 2.48 -11.78 3.48 -11.8 18.28 -0.66 20.66 0.22 21.06 0.58 1.78 1.58 0.76 34.86 -1.2 35.64a33.12 33.12 0 0 1 -10.48 1.78A27.78 27.78 0 0 1 29.62 256a0.32 0.32 0 0 1 -0.18 -0.28c-0.2 -4.58 -0.48 -18.8 0.1 -23.56zm21.68 -11.14c-1.34 -0.96 -18.7 -0.48 -20.32 -0.44a36.98 36.98 0 0 0 -3.2 10.48 26.94 26.94 0 0 0 7.82 0.92 78 78 0 0 0 12 -0.76c0.28 -2.4 1.12 -7.32 2.84 -9.06 0.14 -0.14 0.38 0 0.24 0.24 -1.68 1.72 -2.46 6.92 -2.66 9.04l-0.18 0.2a66.66 66.66 0 0 1 -17.84 0.56c-0.52 4.78 0 18.52 0.18 23.3a30.82 30.82 0 0 0 20 0c1.9 -4.6 2.3 -31.82 1.12 -34.48zM92.8 93.54a8.2 8.2 0 0 0 0.84 2.56 0.186815417 0.186815417 0 0 0 0.36 -0.1 2.84 2.84 0 0 0 -0.88 -2.7 0.2 0.2 0 0 0 -0.32 0.24zm-4.12 3.06a4.18 4.18 0 0 0 0 3.3 0.16 0.16 0 0 0 0.32 0c0 -0.2 0 -0.56 0.12 -0.8a8.22 8.22 0 0 0 -0.12 -2.4 0.1676305461 0.1676305461 0 1 0 -0.32 -0.1zm4.4 7.4a5.88 5.88 0 0 0 0.68 2c0 0.2 0.32 0.18 0.3 0a1.7 1.7 0 0 0 0 -1.26 1.44 1.44 0 0 0 -0.52 -0.84 0.94 0.94 0 0 0 -0.3 -0.16 0.16 0.16 0 1 0 -0.16 0.26zm-2 4a3.5 3.5 0 0 0 0.38 3.18 0.1615549442 0.1615549442 0 1 0 0.3 -0.12l0 -0.86a9.66 9.66 0 0 0 -0.36 -2.2c0 -0.3 -0.32 -0.32 -0.32 0zm-5.32 48.96a4.34 4.34 0 0 0 -4.1 1.46 20.7 20.7 0 0 0 0.74 -2.7 3.44 3.44 0 0 0 0.36 -5 4 4 0 0 0 -0.76 4.96 24.1 24.1 0 0 1 -0.92 2.8 4.32 4.32 0 0 0 -2 -4.18 4.34 4.34 0 0 0 1.58 5.36c-0.52 1.18 -1.12 2.34 -1.76 3.48a4.38 4.38 0 0 0 -2 -4.76 4.32 4.32 0 0 0 1.6 5.36c-0.7 1.18 -1.46 2.3 -2.24 3.4a4.4 4.4 0 0 0 -2.02 -5.14 4.32 4.32 0 0 0 1.66 5.4 0.1280624847 0.1280624847 0 0 0 0.2 0.16 4.36 4.36 0 0 0 5.04 -2.7 4.46 4.46 0 0 0 -3.28 0.54c0.22 -0.32 0.46 -0.62 0.7 -1l0.3 -0.44a4.36 4.36 0 0 0 4.84 -2.92 4.42 4.42 0 0 0 -3.7 0.96c0.38 -0.72 0.74 -1.44 1.06 -2.2a4.26 4.26 0 0 0 4.7 -2.84zm-4.82 -37.54a4.78 4.78 0 0 0 -2 5.5c-0.84 -1.14 -1.64 -2.38 -2.4 -3.66a4.74 4.74 0 0 0 1.72 -5.84 4.76 4.76 0 0 0 -2 5.22 40 40 0 0 1 -1.9 -3.82 4.74 4.74 0 0 0 1.7 -5.8 4.66 4.66 0 0 0 -2.24 4.48 28 28 0 0 1 -0.98 -3.02 4.38 4.38 0 0 0 -0.9 -5.36 3.72 3.72 0 0 0 0.38 5.42 20 20 0 0 0 0.76 2.86 4.58 4.58 0 0 0 -4.36 -1.52 4.54 4.54 0 0 0 4.98 3.18 24.24 24.24 0 0 0 1.1 2.3 4.62 4.62 0 0 0 -4 -1.08 4.62 4.62 0 0 0 5.2 3.16 18.16 18.16 0 0 0 1.02 1.52 4.6 4.6 0 0 0 -3.44 -0.56 4.62 4.62 0 0 0 5.4 2.96 0.1280624847 0.1280624847 0 1 0 0.2 -0.16 4.74 4.74 0 0 0 1.76 -5.78zM118 150.7a4.38 4.38 0 0 0 -0.48 5.3c-1 -0.84 -2 -1.74 -2.98 -2.72a4.32 4.32 0 0 0 0.2 -5.56 4.36 4.36 0 0 0 -0.64 5.12 36.22 36.22 0 0 1 -2.58 -2.84 4.34 4.34 0 0 0 0.16 -5.54 4.28 4.28 0 0 0 -0.94 4.52 26.74 26.74 0 0 1 -1.56 -2.46 4 4 0 0 0 -2 -4.56 3.4 3.4 0 0 0 1.58 4.72 18.34 18.34 0 0 0 1.24 2.28 4.2 4.2 0 0 0 -4.22 -0.34 4.2 4.2 0 0 0 5.16 1.68c0.46 0.62 0.96 1.22 1.48 1.8a4.16 4.16 0 0 0 -3.74 0 4.24 4.24 0 0 0 5.3 1.62c0.2 0.18 0.4 0.4 1.26 1.1a4.22 4.22 0 0 0 -3.2 0.34 4.26 4.26 0 0 0 5.46 1.34 0.1204159458 0.1204159458 0 1 0 0.16 -0.18 4.38 4.38 0 0 0 0.34 -5.62zm2.64 -52.4a4 4 0 0 0 -3.8 1.38 19.34 19.34 0 0 0 0.68 -2.56 3.32 3.32 0 0 0 0.32 -4.76 4 4 0 0 0 -0.78 4.72 25.6 25.6 0 0 1 -0.84 2.66 4.12 4.12 0 0 0 -2 -4 4.16 4.16 0 0 0 1.46 5.1 33.44 33.44 0 0 1 -1.64 3.28 4.18 4.18 0 0 0 -1.82 -4.5 4.16 4.16 0 0 0 1.48 5.1c-0.64 1.1 -1.34 2.18 -2 3.22a4.22 4.22 0 0 0 -1.76 -4.8 4.18 4.18 0 0 0 1.52 5.14c0 0.14 0 0.28 0.2 0.16l0 -0.1a4 4 0 0 0 4.68 -2.56 4 4 0 0 0 -3.04 0.52c0.7 -0.98 0.74 -1.1 0.92 -1.38a4 4 0 0 0 4.48 -2.78 4 4 0 0 0 -3.46 0.98c0.36 -0.66 0.68 -1.36 0.98 -2a4 4 0 0 0 4.42 -2.82zm-77.56 3.5a5.04 5.04 0 0 0 -4.86 0.9 20.2 20.2 0 0 0 1.22 -2.7 3.72 3.72 0 0 0 1.18 -5.44 4.36 4.36 0 0 0 -1.72 5.3 26.5 26.5 0 0 1 -1.46 2.92 4.78 4.78 0 0 0 -1.74 -4.9 4.72 4.72 0 0 0 0.98 6.12 34.68 34.68 0 0 1 -2.46 3.44 4.76 4.76 0 0 0 -1.58 -5.44 4.74 4.74 0 0 0 1 6.14c-0.96 1.14 -2 2.26 -2.98 3.3a4.76 4.76 0 0 0 -1.42 -5.78 4.7 4.7 0 0 0 1.06 6.18c-0.14 0.14 0 0.34 0.2 0.2a5 5 0 0 0 6.2 -2.38 5.18 5.18 0 0 0 -3.7 0.16c0.88 -0.88 1.06 -1.14 1.28 -1.38a5.02 5.02 0 0 0 6 -2.44 5.16 5.16 0 0 0 -4.36 0.52c0.52 -0.7 1.02 -1.44 1.48 -2.18a4.92 4.92 0 0 0 5.68 -2.54zm13.58 51.76a4 4 0 0 0 -2 4.86c-0.82 -1.02 -1.64 -2 -2.4 -3.24A4 4 0 0 0 54 150a4 4 0 0 0 -2 4.6 35.04 35.04 0 0 1 -2 -3.38 4 4 0 0 0 1.7 -5.1 4 4 0 0 0 -2.22 4 19.64 19.64 0 0 1 -0.98 -2.68 3.6 3.6 0 0 0 -0.92 -4.74 3.06 3.06 0 0 0 0.4 4.78 18.9 18.9 0 0 0 0.76 2.52 5.06 5.06 0 0 0 -4.38 -1.4 4.64 4.64 0 0 0 4.98 2.8 20.82 20.82 0 0 0 1.12 2 5.14 5.14 0 0 0 -4 -1 4.78 4.78 0 0 0 5.16 2.78l0.36 0.52 0.68 0.86a5.28 5.28 0 0 0 -3.46 -0.52 4.78 4.78 0 0 0 5.38 2.58 0.1280624847 0.1280624847 0 0 0 0.2 -0.16 4 4 0 0 0 1.88 -4.9zm144.48 -99.92a24.6 24.6 0 0 0 2.98 1.46 0.16 0.16 0 0 1 0.18 0.14c0 0.78 -4.44 -1.38 -3.84 -1.08a0.36 0.36 0 0 1 -0.18 -0.48 34.4 34.4 0 0 1 3.72 -6.24c0 -0.2 0.38 0 0.28 0.16 -1.26 2.66 -2.64 5 -3.14 6.04zm5.3 9.04a3.06 3.06 0 0 0 4 -2.64c0 -0.18 -0.22 -0.3 -0.3 -0.1a6.58 6.58 0 0 1 -0.72 0.96 3.64 3.64 0 0 1 -2.36 1.42 3.7 3.7 0 0 1 -0.58 0 0.1811077028 0.1811077028 0 0 0 -0.04 0.36zm57.04 216.82a4.96 4.96 0 0 0 -5.02 5 5.04 5.04 0 1 0 10 0 4.98 4.98 0 0 0 -4.98 -5zm0 0.3a4.56 4.56 0 0 1 4.32 4.7 4.32 4.32 0 1 1 -8.62 0 4.56 4.56 0 0 1 4.3 -4.7z" fill-rule="evenodd" stroke-width="1"></path><path d="M263.4 281.86a2.7 2.7 0 1 1 -2.58 2.68 2.64 2.64 0 0 1 2.58 -2.68zm-29.08 -112.72a18.24 18.24 0 1 0 18.32 18.1 18.18 18.18 0 0 0 -18.32 -18.1zm0 0.32a17.68 17.68 0 1 1 -17.58 17.78 17.74 17.74 0 0 1 17.58 -17.78z" fill-rule="evenodd" stroke-width="1"></path><path d="M234.32 178.94a8.34 8.34 0 0 0 -8.44 8.3 8.44 8.44 0 1 0 16.88 0 8.34 8.34 0 0 0 -8.44 -8.3zm0 0.32a8 8 0 0 1 7.74 8 7.74 7.74 0 1 1 -15.46 0 7.88 7.88 0 0 1 7.72 -8z" fill-rule="evenodd" stroke-width="1"></path><path d="M234.32 183.54a3.72 3.72 0 1 1 -3.64 3.7 3.66 3.66 0 0 1 3.64 -3.7z" fill-rule="evenodd" stroke-width="1"></path><path d="M95.62 45.02c0.42 -0.28 1.58 -1.24 1.86 -1.38a0.16 0.16 0 0 0 0 -0.32 1.62 1.62 0 0 0 -1 0.12 2.28 2.28 0 0 0 -1 1.08l0 0.34s0.04 0.34 0.14 0.16zm11.98 3.48 0 1.42a0.64 0.64 0 1 0 1.28 0l0 -1.3a0.6428063472 0.6428063472 0 1 0 -1.28 -0.12zm-1.38 -5.1c0.68 0.28 2.58 0.78 3.04 1.06 0.14 0.16 0.38 0 0.24 -0.2a2 2 0 0 0 -1.14 -1 3.08 3.08 0 0 0 -2.14 -0.18 0.16 0.16 0 1 0 0 0.32zm77.34 204.24a6.32 6.32 0 0 0 -1.44 -5.18 5.08 5.08 0 0 0 -1.42 -1.18 0.16 0.16 0 1 0 -0.18 0.26 10.92 10.92 0 0 1 2.72 6 0.1676305461 0.1676305461 0 0 0 0.32 0.1z" stroke-width="1"></path><path d="M251.54 245.8c2.48 -13.24 8.98 -48.82 10.32 -62.2 1.02 -10 -2.84 -21.4 -8 -29.32 5.54 -7.52 8.36 -19.28 9.66 -28.46a85.06 85.06 0 0 0 0.72 -21.4 32.28 32.28 0 0 0 -13 -19.4c0.12 -2.6 0 -14.12 -12.56 -24.9 0 0 5.54 -20.12 0 -27.04s-14.96 -12.68 -34 -5.46c0 0 -6.54 1.82 -6.3 8.36 0 0 -6.78 4.48 -2.5 11.18a37.64 37.64 0 0 0 -1.88 11.7 11.68 11.68 0 0 0 5.4 10.28c-11.02 20.56 0 8.56 -14.5 18.32A51.3 51.3 0 0 0 170.18 102a3.58 3.58 0 0 0 -2.18 -0.26c-6.3 1.06 -6.28 5.62 -10.14 4.7s-5.2 -4.66 -9.52 0 -2 7.06 -5.7 6.14c-0.92 -0.22 0 0.26 -3.14 -4.48a79.24 79.24 0 0 0 -36 -29.86c-1.68 -1.56 -3.84 -3.48 -5.5 -4.9 13.76 -1.76 14.84 -16.82 11.76 -30.34l0.78 0c3.7 -0.7 4.5 -2.58 4.76 -3.82 0 0 -4 1.76 -3.28 0s2.9 -4.4 0 -5.16 -4.84 -0.9 -3.38 -2.86 0.4 -2.98 -0.88 -3.52 -3.34 0.2 -1.34 -2.18a3.08 3.08 0 0 0 -2.42 -5.18c-2.5 0 -5.02 1.28 -7.26 0s-1.42 -4.54 -5.58 -3.24 -1.16 3.36 -2.84 3.24 -3.24 -3.4 -5.9 -2.42 -1.38 3.86 -2.98 3.8 -3.28 -3 -4.9 -1.38 0 4 -2 4.26 -3.58 -1.22 -5.08 0.86 3.18 5.42 0.96 5.7a5.22 5.22 0 0 0 -4.72 3.46c-0.7 2.14 2.4 1.84 1.32 3.1s-3.18 2.1 -3.1 3.6a1.72 1.72 0 0 0 1.78 1.68c0.26 -0.12 -1.24 0.62 -0.82 1.66s0.78 1.62 0 2.18 -1.6 2.46 0.82 2.28 3.46 -0.8 4.24 -2.28c0.56 -1.1 1.5 -0.94 1.78 -0.4s-0.58 1.42 -1.14 1.82 -0.96 0.78 -0.16 1.22a2 2 0 0 0 1.02 0.18A13.34 13.34 0 0 0 80 61.36c-0.26 1.42 -0.52 2.86 -0.68 4.28 -2.3 0.76 -5.1 6.28 -6.94 9.34A73.66 73.66 0 0 0 52.9 80 76.64 76.64 0 0 0 10 123.26l0 0.44a25 25 0 0 0 3.26 2.3 32.82 32.82 0 0 0 0 22.16c2.68 8 10.56 18.86 15.46 25.74 -5.46 19.04 -2.22 34.54 -3.1 50.7 -0.42 7.74 -0.56 29.42 0 36.22a0.44 0.44 0 0 0 0.3 0.34 86.32 86.32 0 0 0 11.36 2.18c0.5 16.56 3.16 74.22 8.24 90 0.36 1.14 16.8 4.68 21.02 2.46 0 0 0.76 -0.18 1.36 -1.8a0.14 0.14 0 0 0 0.2 0s0.94 -1.48 -1.16 -3.38a14.98 14.98 0 0 0 -4.76 -2.58l-2.84 -2c-0.44 -2.66 2.4 -13.26 4.38 -25.22 1.12 -6.74 3.44 -23.08 4.36 -27.74 0.96 14 6.38 39.4 14 50.88 4 5.8 7.32 7.2 8.44 7.52l1.44 0.8c4.62 6.82 11.62 9 19.12 3.82a13.8 13.8 0 0 0 2.98 -2.86 111.28 111.28 0 0 0 15.02 3.36 29.22 29.22 0 0 0 0.38 14c3.68 12.84 15.18 16.84 22.5 7.38 6.34 -8.2 6.34 -22.64 -0.12 -30.82 -0.96 -1.22 -0.4 0 0 -3.26 0.4 -4.56 -1.52 -8.64 -6.18 -8.28 -0.28 -11.74 -0.24 4.32 -0.24 -37.22a24.72 24.72 0 0 1 8.28 4.36c2.92 2.48 4.42 11.6 4.76 15.4 5.14 55.7 4 46.94 4.5 50.24 0.86 0.6 8.62 4.42 14.42 7.48a67.42 67.42 0 0 0 7.12 3.46c0.12 0 0 0 0 -0.1l0 -2.12c-13.12 -6 -18.74 -9.56 -21.1 -10.54l0.78 -0.28c4.32 2 13.52 6.48 20.32 10.38 0 0 54.9 -21.08 82.82 -32.46a0.2 0.2 0 0 1 0.16 0.36s-64.54 26 -67.6 27.14c-7.86 2.96 -13.58 4.98 -14.94 5.24l0 2.28c0 0.42 10.52 -2.4 83.22 -32.14 0 0 0.66 -3.9 -1 -5.5s-11.42 -4.98 -13.66 -5.78c0 0.22 -1.46 -34.5 -1.48 -34.72a63.12 63.12 0 0 0 20.98 -10c1.64 -1.26 -20.42 -43.32 -21.46 -45.3zm12.12 -128a3.68 3.68 0 1 0 -0.76 7.1c-0.18 1.14 -0.36 2.4 -0.7 4.32a8 8 0 0 1 -5.34 -13.48 7.7 7.7 0 0 1 7.14 -2.2c-0.12 1.36 -0.22 2.82 -0.34 4.34zm0.34 -4.6c-6.62 -1.84 -12.48 5.56 -9.18 12a8.18 8.18 0 0 0 7.38 4.46 92.2 92.2 0 0 1 -2.2 9.28 17.8 17.8 0 0 1 3.5 -35.38 45.64 45.64 0 0 1 0.5 9.64zm-30.26 -34s5.28 1.5 10.12 3.2a60.36 60.36 0 0 1 -10.68 6.58 55.28 55.28 0 0 0 0.5 -9.84zm10.48 3.32a29.48 29.48 0 0 1 19.26 20.78 18.12 18.12 0 0 0 -3.54 36c-3.74 12.66 -10.8 24.6 -23.44 20.96 -10.84 -3.1 -16.74 -8.88 -18.72 -15.38s0 -14 5.16 -20c2.8 -3.3 5.86 -5.06 10.36 -10a138.96 138.96 0 0 1 15.34 -15.08c5.42 -4.24 7.36 -4 8 -4 0.18 0 0.24 0 0.24 -0.16a0.14 0.14 0 0 0 -0.14 -0.16c-6 -0.42 -19.66 14.4 -23.84 18.96 -4.56 4.98 -7.64 6.72 -10.46 10A23.34 23.34 0 0 0 217 144.9c-20.18 4.22 -21.32 10.16 -35.52 13.82a156.76 156.76 0 0 1 6.76 -16.72c0 -0.22 0 -0.28 -0.14 -0.5a31.5 31.5 0 0 1 -4.78 -9.64 4.98 4.98 0 0 0 4.32 -2.82 7.6 7.6 0 0 0 -3 -9.88 12.36 12.36 0 0 0 0.7 -2A12.92 12.92 0 1 0 202 101.68l2 -9.88a38.12 38.12 0 0 0 20.96 1.22c-3.16 8.84 -8.84 24.44 -7.32 26.6 2 2.76 6.16 0.48 9.26 -6.5a100.86 100.86 0 0 0 6 -23.18 56.84 56.84 0 0 0 11.26 -7.48zM225.86 228l-15.48 -2a19.24 19.24 0 0 0 0.58 -4.98c2.2 0.2 19.36 1.82 21.2 2.96 0.84 0.54 1.32 7.66 1.38 8.38 0.12 2 0.6 15.54 0.64 17.4a49.8 49.8 0 0 0 -6 -3.34c0 -0.64 0.22 -14.42 0.22 -14.7a3.06 3.06 0 0 0 -2.54 -3.72zm-0.14 0.94a2.14 2.14 0 0 1 1.82 2.62l0.2 14.56A111.8 111.8 0 0 0 200 238a18.58 18.58 0 0 0 10.28 -11.78c5.72 1.08 8.56 1.6 15.44 2.66zM198 343.66s2.22 -7.76 2.52 -8.78a26.62 26.62 0 0 0 16.22 -13.82c1.86 4.92 5.78 14.68 5.78 14.68a2.56 2.56 0 0 0 0.72 0.2 4.9 4.9 0 0 1 0.1 0.5 4 4 0 0 1 -0.98 -0.26c-0.28 -0.1 -0.26 -0.22 -1.36 -3l-21.48 6.12c-1.4 4.94 -1.18 4.6 -1.68 4.66l0 -0.28zm9.34 -92c4.14 2.32 9.54 6 10.28 10.8 1.44 9.38 -4.4 31.62 -7.06 40.74 1.02 3.42 2.36 7.34 3.7 11.1 -4 10.14 -10.64 13.16 -12 14.88 5.36 -17.78 7.18 -21.6 11.06 -39.82 1.38 -6.48 4.24 -20.4 3.24 -26.74 -1.3 -8.48 -22 -16.26 -30.16 -18.6a0.228035085 0.228035085 0 0 1 0.12 -0.44 101.12 101.12 0 0 1 20.84 8.1zm0.46 -21.2a19.2 19.2 0 0 1 -8.26 7.54 0.16 0.16 0 0 0 0 0.2c-7.72 4.86 -14 4.3 -14.22 4a0.16 0.16 0 0 0 0.18 -0.14 14.74 14.74 0 0 0 0 -6.28 12 12 0 0 0 -7.12 -8.36 58.72 58.72 0 0 1 15.8 -12 26.24 26.24 0 0 1 8.68 -2.84 0.2 0.2 0 0 0 0 -0.4 25.58 25.58 0 0 0 -9.88 3c-1.32 -8.34 -7.02 -26.3 -10.4 -30.5a0.2 0.2 0 0 0 -0.32 0.22c2.38 3.38 9.06 24.92 10.32 30.48a48 48 0 0 0 -7.72 4.9 73.18 73.18 0 0 0 -8.9 8.32c-1.04 -4.28 -10 -41.78 -14.66 -50.62l1.32 -3.1c2.76 2.44 2.98 1.3 3.28 -2.12s0.1 -8.76 0.1 -12.18a24.56 24.56 0 0 0 3.44 1.12 4.42 4.42 0 0 0 -1.88 3.52s0.18 0.94 0.88 1.02a1.74 1.74 0 0 0 1.28 -0.6 2.1 2.1 0 0 0 1.6 0.32 0.7 0.7 0 0 0 0.48 1.12 12.66 12.66 0 0 0 7.26 0.28 42.84 42.84 0 0 1 10.74 10c9.66 11.88 16.18 27.62 20.32 42.36a17.44 17.44 0 0 1 -2.3 10.76zm-81.44 -64.76c-0.88 0.42 -3.32 1.32 -3.14 0.42s1.7 -2 2.68 -2.3c-0.42 0.96 -0.12 1.6 0.46 1.88zm-1.3 1.26a7.56 7.56 0 0 0 1.84 -1.12 5.06 5.06 0 0 0 3.58 -1.5c1.66 0.24 5.4 -1.66 5.78 -3.38l2.66 -0.66c1.66 3.34 10.74 21.3 13.34 18.66a32.38 32.38 0 0 0 2.74 -3.22l2.28 2.58s2.42 41.2 0.64 51.64c-8.52 -3.02 -15.38 -7.3 -26.38 -7.04a66.94 66.94 0 0 0 0.84 -12.18c0 -10.16 -0.88 -18.12 -0.9 -18.64a0.2 0.2 0 0 0 -0.38 0s0.36 24.26 0.34 25.42a36.92 36.92 0 0 1 -0.32 5.38c-0.96 0 -2 0 -3 0.2a0.22 0.22 0 0 0 -0.18 0.2c0 0.52 1.24 -0.26 7.24 0.44 9.4 1.08 15.5 4.68 21.32 6.56l8.26 2.48a4.58 4.58 0 0 0 -1.64 2c-0.8 1.56 -2 4.48 -0.32 5.04a8.36 8.36 0 0 0 -0.54 6 81.5 81.5 0 0 1 -18.14 1.36 17.86 17.86 0 0 0 -1.2 -4.92c-2.5 -4.86 -35.24 -9.5 -40.66 -10.28 -4.7 -11.82 -0.92 -24 0.66 -34.3a48.8 48.8 0 0 1 6.9 -17.5 44.66 44.66 0 0 1 12.92 -13.14c0.58 0.44 1.64 0.2 2.32 -0.08zm4.94 -2.76a7.56 7.56 0 0 1 -1.46 0.64c-0.52 0.18 -1.78 0.46 -2 0s0.42 -2.24 3.46 -2.84c-0.5 0.7 -0.78 1.76 0 2.2zm-3.5 -29.46a6 6 0 0 1 0.36 0.5 5.38 5.38 0 0 1 -0.16 1.14c-4.52 1.86 -14.38 5 -18.7 2.6 -0.16 -1.1 -2.96 -19.7 -3.08 -20.5a174.26 174.26 0 0 0 19.88 -2.26c0.28 1.7 1.42 8.74 1.88 14.22a3.12 3.12 0 0 0 -0.18 4.3zm0 -12c0.64 3.16 6.72 2.96 3.3 5.12a14.9 14.9 0 0 0 -2.44 1.84c-0.18 -2.3 -0.5 -4.78 -0.82 -7zm5.62 19.62c0 2.48 -0.12 6.52 6.84 4.98 1.42 -0.32 1.34 1.72 1.34 3.16 0 0.78 0.22 1.88 0.96 2.24 -0.94 2.24 -2.6 6.8 -2.66 7l-2.36 0.9c0 -0.16 0 -0.44 -0.24 -0.48a6.34 6.34 0 0 0 -5.42 0.98 96.28 96.28 0 0 0 -0.76 -20.36c1.28 0.14 2.38 0.42 2.34 1.54zm3.88 18.08c0.4 1.36 -4 3.3 -5.3 3.12 -0.24 0 -0.34 0 -0.3 -0.4 0.26 -2.26 3.18 -2.96 5.6 -2.72zm3.38 -0.14c0.2 0 18.68 10 18.9 9.9a92.16 92.16 0 0 1 -6.48 8.22 0.2 0.2 0 0 1 -0.24 0c-2.7 -0.78 -10.96 -15.72 -12.28 -18.12zm47.14 -19.74a8.5 8.5 0 0 0 1.02 1.32 129.02 129.02 0 0 0 -6.42 16.84c-4.5 1.12 -8 0.48 -11.26 2.74a19.54 19.54 0 0 0 -6.4 -2.44l0 -4.5a13.32 13.32 0 0 0 12.68 -10 10.5 10.5 0 0 0 10.28 -3.96zm-10.28 3.66a20.14 20.14 0 0 0 0.6 -2.46 1.7 1.7 0 0 0 1.78 0 3.66 3.66 0 0 1 2.9 -0.54c2 0.12 3.04 -1.8 3.28 -3.7a24.82 24.82 0 0 0 1.5 2.78 13.34 13.34 0 0 1 -10.16 3.92zm-10.44 16.24c-0.26 9.42 -0.84 15.08 -1.2 14.98 -1.18 -0.32 -4.82 -4.42 -5.64 -5.36a0.32 0.32 0 0 0 -0.3 -0.14c1.04 -2 4 -8.28 4.78 -10.52a20.84 20.84 0 0 0 2.26 1.04zm8.2 70.86a20.2 20.2 0 0 0 4 -3.64c4.48 2.28 7.62 7.12 7.16 14.32a14 14 0 0 0 -2.9 -2.78 6.56 6.56 0 0 0 -3.72 -1.3 5.38 5.38 0 0 0 -4.54 -6.6zm4.22 6.54c-4.26 -0.86 -5.06 -1.8 -5.42 -1.26s-2.8 3.86 -4.58 3.4 2.18 -4.88 2.38 -5.08 0 -0.38 -0.24 -0.22c0.18 -0.2 -3.06 3.1 -3.14 4.84a2 2 0 0 1 -2.2 0.4c-1.22 -0.38 2 -4.82 2.42 -5.36 0.14 -0.16 0 -0.38 -0.24 -0.22 0.2 -0.18 -3 2.74 -3.24 4.92a1.14 1.14 0 0 1 -1.2 -0.12c-0.78 -0.8 0.44 -3.18 0.98 -4.16 2 -3.66 4.9 -0.78 9.66 -3.42a6 6 0 0 1 4.72 6.28zm-8 5.74a6.28 6.28 0 0 0 -2.14 0.56l-0.52 0.18 -0.12 0 0.12 0 0.52 -0.18 -5.32 1.5c-0.52 0.1 -0.44 0.1 0 0a44.34 44.34 0 0 1 0.52 -5.8 1.74 1.74 0 0 0 0.8 -0.14 1.12 1.12 0 0 0 0.86 1 2.42 2.42 0 0 0 2.52 -0.56 1.06 1.06 0 0 0 0.72 0.56 3.12 3.12 0 0 0 2.52 -0.7 6.94 6.94 0 0 0 -0.7 3.58zm3.44 36.82 0 0.74a84.44 84.44 0 0 1 -28 -1.08l0 -0.6c9.68 1.64 27.86 0.94 27.86 0.94zm0.4 3.4c3.48 29.88 6.3 59.84 6.3 59.84a8.62 8.62 0 0 0 2 0.54l0 0.32c-0.9 -0.14 -1.52 0 -14 3.72 -0.86 -10 -2.82 -31.48 -4.66 -41.26a25.36 25.36 0 0 0 -17.2 -18.84zm7.2 -35.48a0.16 0.16 0 0 0 0.12 -0.2 6.64 6.64 0 0 0 -3.38 -5.22 0.15 0.15 0 1 0 -0.18 0.24 18 18 0 0 1 3.06 5l-0.16 -0.2c0 0.86 -0.58 0.96 -0.58 0.96 -0.9 0.62 -3.64 -3.46 -6.7 -4.76a7.12 7.12 0 0 0 -3.08 -0.58 11.64 11.64 0 0 1 2.76 -6.28c7.02 2.36 6.1 0.62 9.28 2.82a11.34 11.34 0 0 1 2.62 2.44 6.76 6.76 0 0 1 -0.12 5.02 0.88 0.88 0 0 1 -1.4 0.38c-0.48 2.04 -1.78 1.04 -2.38 0.38zM172 166.72c-0.36 0 -0.54 -0.3 -0.18 -0.82a28.56 28.56 0 0 0 3.06 -0.6c1.68 -0.42 1.84 -0.42 1.8 -0.62s0 -0.12 -4.72 0.42c-0.4 0 -1.76 0.26 -1.6 -0.2a2.8 2.8 0 0 1 0.78 -1 3.84 3.84 0 0 1 1.7 -0.88 12.18 12.18 0 0 1 3.04 -0.42 0.16 0.16 0 0 0 0 -0.32c0.2 0 -4.5 -0.88 -6.18 2a1.1 1.1 0 0 0 -0.12 1.02c-0.94 0.82 -1.42 0.52 -1.56 -0.2 0.26 -3.66 5.08 -4.84 8.76 -5.02a32.9 32.9 0 0 0 8.94 -2c12.14 -4.34 12.94 -8.48 31.3 -12.98 2 7.26 8.1 11.78 15.08 14.5 -8.66 6.4 -35.4 6.4 -45.9 5.54 -4.18 -0.32 -3.62 0.22 -6.76 1.5a12 12 0 0 1 -7.44 0.08zm28 -54.28 0.66 -3.38a5.54 5.54 0 0 1 2.52 4.7 5.32 5.32 0 1 1 -10.64 0 5.54 5.54 0 0 1 0.5 -2.32 41.66 41.66 0 0 0 0.36 4.7s3.04 2.12 5.04 0a2.58 2.58 0 0 0 2 -2.48 2.46 2.46 0 0 0 -0.44 -1.22zm-7 -2.16a6.18 6.18 0 0 0 -1.2 3.48 6 6 0 1 0 12 0 6 6 0 0 0 -3.14 -5.16l1.28 -6.5a12.28 12.28 0 1 1 -16.28 13.22 5.1 5.1 0 0 0 0 -1.58 12.36 12.36 0 0 1 8 -11.62 52 52 0 0 0 -0.66 8.16zm5 -43.22a11.18 11.18 0 0 1 -3.3 -8.2 36.76 36.76 0 0 1 1.7 -12 67.8 67.8 0 0 1 5.06 -11 5.12 5.12 0 0 0 3.08 -2.86s2.54 1.7 8.78 -1.14c0 0 -1.2 3.4 6.28 2.32 0 0 -5.18 3.44 1.84 5.78 0 0 -4.42 3.34 2.54 5.24 0 0 -6 3.1 0.88 5.4 0 0 -7.02 3.68 0 4.1 0 0 6 -1.6 5.68 1.88s-1.38 4.84 -3.7 5.2 -1.16 4.72 0 8.12a42.44 42.44 0 0 1 0 17.4c-0.22 0.8 -0.76 2.34 -1.46 4.3a38.7 38.7 0 0 1 -21.3 -0.6l2.5 -12.9c-0.18 -7.18 0.16 -7.32 -0.42 -7.38a15.16 15.16 0 0 1 -8.16 -3.66zm0.62 13.88c2.24 -0.76 1.54 -0.98 -1.44 7.38a39.42 39.42 0 0 1 -6 -3.86c2.46 -1.24 4.82 -2.36 7.5 -3.52zm-8 4a42.12 42.12 0 0 0 6.4 4 75.52 75.52 0 0 0 -3.36 12.8 12.86 12.86 0 0 0 -8.74 10.98 2.38 2.38 0 0 0 -1.3 -0.56 66.24 66.24 0 0 1 6.78 -12c0.12 -0.16 -0.14 -0.36 -0.26 -0.2a66.66 66.66 0 0 0 -7.24 12c-3.04 0 -7.84 1.68 -9.68 0.42s0 -8.28 -2.74 -10.24c4.74 -7.18 12.54 -13.12 20.16 -17.3zm-14 50 0 1.06a9.16 9.16 0 0 1 -5.3 1.12c-1.22 -0.12 -1.3 -0.36 -1.48 -0.7a34 34 0 0 1 -1.86 -8c0.2 -1.06 4 -1.12 6.94 -1a16.22 16.22 0 0 1 1.78 7.32zm-26 -6.92a8.46 8.46 0 0 0 4 -8.7c-0.62 -3.24 2.82 2.42 4.8 1.9s2.68 -1.3 3.42 -3.84c0 0 0.82 5.18 3.74 4.16 1.2 -0.42 1.62 -0.86 1.72 -1.24 0.62 1.2 1.8 2.98 3.02 2.1a21.34 21.34 0 0 1 3.28 4.6l-2.12 0a1.64 1.64 0 0 0 -1 -0.96 1.24 1.24 0 0 0 -1.1 0c-0.26 0 -0.22 0.34 0 0.32a8.48 8.48 0 0 1 1.24 0.74c-2.14 0.18 -4 0.62 -4 1.58l0 0.12a1.56 1.56 0 0 0 -1.66 0 1.36 1.36 0 0 0 -0.36 -0.66c-0.9 -0.7 -12.9 0.12 -12.6 2.54l0 0.66a47.16 47.16 0 0 0 -5.04 2.22c0.62 -2.38 0.84 -4.66 2.8 -5.74zm2.96 3.18 -0.16 0c0 -0.22 0 -0.42 -0.14 -0.58 0 -1.82 10 -2.16 11.82 -1.9a13.42 13.42 0 0 1 -0.44 7.28c-0.96 2 -6.56 2 -8.36 1.48 -1.12 -0.34 -2.18 -4 -2.66 -6l0.22 -0.14c0.14 -0.14 0.14 -0.44 -0.14 -0.34zm-11.18 5.18c1.8 1.46 2.76 3.34 4.54 0.6a7.62 7.62 0 0 0 1.06 -2.64 50 50 0 0 0 5.28 -2.72c0.4 2.24 1.36 6 2.82 6.42 2.2 0.7 8 0.6 9.28 -1.78a14.96 14.96 0 0 0 0.84 -7.04 10.96 10.96 0 0 1 1.56 0c0 0.88 0.24 2.2 0.46 3.54 -0.32 -0.8 -0.52 -1.22 -0.6 -1.42a0.14 0.14 0 0 0 -0.2 0c-0.3 0 0 0.18 1.58 6.48a20.44 20.44 0 0 1 0.46 2.18c-2 0.16 -2.14 0 -2.14 0.3s0 0.16 2.46 0.34c0.64 0 0.38 -1.66 -0.1 -3.48 0 0 0.16 0.2 0.26 0.24a8 8 0 0 0 4.44 0.2 8.54 8.54 0 0 0 2.26 -0.76 20 20 0 0 1 -0.42 5.46 16.28 16.28 0 0 1 -4 7.74 12.48 12.48 0 0 1 -3.28 2.34 12.26 12.26 0 0 1 -5.88 1.28 0.4 0.4 0 0 0 -0.42 0.38l0 4.96c-0.54 1.84 -3.78 8.56 -4.62 10.3l-18.76 -9.3c0 -0.2 2.16 -5.42 2.74 -7.1a4.96 4.96 0 0 0 2.44 -1.52c3.34 -3.18 3.16 -6 1.14 -7.28s-3.66 0.6 -5.8 -3.48 0.92 -5.92 2.74 -4.44zm-1.12 -24c-3.2 -1.44 -5.8 -5.04 -9.26 -1.3 -3.84 4.16 5.72 4 2 6.28s-8 1.4 -7.74 5.22c-0.54 -3.72 -1.06 -6.7 -1.06 -6.7a0.4 0.4 0 0 0 -0.16 -0.24c-0.44 -0.26 0.72 0.2 -8.32 1.38 -11.76 1.52 -12.44 1.12 -12.38 1.52l2.72 20.9a0.4 0.4 0 0 0 0.18 0.26c4.54 2.76 14.64 -0.4 19.56 -2.42a3.36 3.36 0 0 0 -0.54 2.2c0.14 1.06 1.48 1.22 2.82 1.38 0 0 0.86 14.16 0.9 15.38 0 1.6 0.12 3.7 0 5.42a4.78 4.78 0 0 0 -4 1.84c-3.02 0.42 -4 2.5 -3.62 3.4a39.86 39.86 0 0 0 -5.8 4.14c-5.66 2.4 -15.22 3.42 -21.4 3.9 0.14 -22.66 -1.82 -54.44 -1.48 -56.82 4 -2.74 6.12 -9.62 7.16 -14.4 1.38 -6.36 0.84 -7.36 1.74 -7.84s2.7 0.18 2.98 -1.18 -4 -3.82 -5.28 -4.56c2.1 -0.42 7.88 -1.7 9.44 -3.18 0.74 -0.72 0.4 -1.28 -0.22 -2a64.56 64.56 0 0 0 -5.48 -5.74 87.24 87.24 0 0 1 37.38 32.98zm-48 5c-3.04 -1.08 -8.22 -8.92 -10 -11.66 -4 -6.38 -2.94 -6.7 -4.52 -8s-4 -0.82 -4.28 -1.26 0.72 -2 0.96 -2.36a28.68 28.68 0 0 1 2 -2.78c2 0 2 0.16 2.14 0.16a122.74 122.74 0 0 0 13.48 24.9 0.38 0.38 0 0 0 0.68 0 66.5 66.5 0 0 0 5.02 -26.14L100 90c1.12 0.6 5.58 3.18 5.32 4.34s-1.76 0.3 -2.76 0.8 -0.64 1.62 -2.16 8.16c-1.08 4.7 -3.18 11.58 -7.12 14.08zM109.52 86l0 0.16c-1.08 1.36 -8.92 3.42 -10.6 3.84a58.96 58.96 0 0 0 -1.14 -11.54l0 -4.9c1.54 1.58 11.4 11.02 11.74 12.44zM74.14 57.46a15.18 15.18 0 0 1 -4 -8c1.54 -0.3 3.24 -1.5 2.5 -2.76 -1.02 -1.78 -4.14 -3.32 -2.8 -3.84s3.26 2.72 4.78 1 0 -4.22 1.64 -4.82 3.3 0.58 4.74 -2 1.26 -1.58 2.18 -1.7 1.1 1.32 2.98 1 2.22 0.42 1.38 1.3 -5.1 1.84 -4 4.22a6.5 6.5 0 0 0 3.88 3.5l0.38 0.8a98 98 0 0 0 -0.1 10 2.86 2.86 0 0 1 -2.46 0c-1.08 -0.7 -0.3 -5.84 -4 -5.64 -3.42 0.2 -4.86 1.82 -4.86 4.94 0 2.1 2.26 3.48 4.28 4 -0.1 0.46 -0.22 1 -0.34 1.58a14.8 14.8 0 0 1 -6.18 -3.58zm6 8.56c0.16 -2 0.54 -4.86 0.84 -6.9 0.3 2.38 1.24 9.34 1.06 10.26a1.3 1.3 0 0 1 -1.06 0.9c-1.3 0.12 -0.98 -2.88 -0.86 -4.28zm-0.58 4.14c0.78 1.66 2.98 0.78 3.26 -0.64 0.34 -1.86 -1.64 -11.38 -1.68 -11.58a0.16 0.16 0 0 0 -0.3 0s-0.12 0.46 -0.28 1.2c-1.7 -0.58 -3.84 -1.9 -3.76 -3.72 0 -2.76 1.32 -4 4.32 -4.18s2 4.5 3.6 5.52a3.04 3.04 0 0 0 1.76 0.44 4.86 4.86 0 0 0 1.72 -0.42c0.36 -0.2 0 -0.18 0 -4.48 0 -7.2 0.22 -5.9 -0.26 -6.78a4.26 4.26 0 0 0 3.1 -0.92c3.26 -2.42 -4.54 0.56 -3.64 -1.66s1.24 -2.2 4.22 -3.1 1.84 -1.84 0.76 -2.78 -3.78 -0.96 -0.76 -2.5 5.5 -2 5.82 -4.46a4.74 4.74 0 0 0 3.64 2.16c2.16 -0.1 2 0.52 1.4 1.7s-1.42 3.06 1.4 3.1 4.86 -0.66 4.68 0.6 -1.44 4.86 0.76 5.3c2.86 13.38 1.76 28.48 -12 29.72l-0.34 0.36 0 5.4a63.44 63.44 0 0 1 0.78 19.14 64.92 64.92 0 0 1 -4.36 17.86c-6.8 -9.8 -15.08 -25 -16.72 -36.98zM79.38 66c-0.64 6.34 1.46 -0.54 -3.18 12.34a53.82 53.82 0 0 0 3.34 12.92c-2.34 -0.52 -13.7 -0.68 -13.46 -2.7s5.02 -9.82 6.22 -11.88c3.42 -5.78 5 -9.64 7.08 -10.68zM53.1 80.56a72.84 72.84 0 0 1 19.16 -5.22c0.12 -0.22 -6.64 10.54 -6.94 13.16s8.7 2.78 11.8 2.9A14.5 14.5 0 0 0 74 96a0.96 0.96 0 0 0 0.82 1.38c1.4 0.32 3.72 0 4.68 2.72 1.56 4.34 9.28 16.3 13.66 17.64 -0.36 2.38 1.84 51.3 2 57.06 -6.78 0.52 -15.64 0.86 -26.32 0.74 -2.66 0 -13.54 -0.24 -15.5 -0.62 -2.52 -0.46 -7.88 -1.84 -10.34 -2.48 -4.32 -7.52 -1.44 -25.68 -4.92 -31.06l4.12 -6c3.12 0.34 6.46 0.54 10 0.58l0.32 -0.16a59.42 59.42 0 0 0 5.48 -9.5c6.56 -14.2 7.58 -29.42 -2 -41.72 -0.14 -0.16 -0.38 0 -0.26 0.18 10.82 14 7.6 31.9 -1.3 46.88 -12.74 -0.44 -26.32 -3.16 -37.14 -9.64a33.08 33.08 0 0 1 -4.46 -3.2A76.36 76.36 0 0 1 53.1 80.56zm-0.58 94.8a16 16 0 0 0 -2 2.82c-2.5 -2.18 -5.54 -2.36 -7.5 -5.32 2.68 0.74 6.86 1.92 9.5 2.5zm-41.68 -52c0.6 -1.44 1.12 -2.64 1.76 -4 6.72 6.38 22 12.96 41.38 12.84 -1.04 1.72 -1.76 2.72 -2 3.12a87.3 87.3 0 0 1 -21.62 -2.8c-12.14 -3.26 -18.36 -8.22 -19.52 -9.22zm6.74 32.4a40.62 40.62 0 0 1 -5.06 -13.2 31.58 31.58 0 0 1 1.04 -16.26 66.84 66.84 0 0 0 28.12 9.14l-4.24 5.86a0.24 0.24 0 0 0 0 0.3c0.12 0.14 1.48 2.16 1.72 8.84s0 16.42 2.72 22 7.8 3.84 10.26 9.32 -1.7 3.06 -3.28 0.34a0.36 0.36 0 0 0 -0.6 0 35.16 35.16 0 0 1 -8.62 7.12 30 30 0 0 1 -4 2 14.34 14.34 0 0 1 0.1 -6c0.7 -3.22 -11.4 -17.5 -18.16 -29.52zm8.78 104.84c-0.48 -6.84 -0.36 -28.44 0 -35.84 0.86 -16.5 -2.44 -31.5 2.58 -50.4 1.38 2 6.64 9.02 6.3 10.54a14.72 14.72 0 0 0 0 6.28c-4.72 1.82 -6.42 1.24 -6.36 1.72a0.14 0.14 0 0 0 0.16 0.14A31.32 31.32 0 0 0 48.4 182.8c2 3.04 5.3 4 5.16 1.2a9.7 9.7 0 0 0 -2.68 -5.44 5.6 5.6 0 0 0 1.82 -2.62c0.14 -0.5 0 -0.44 0.3 -0.38 3.34 0.68 23.78 1.32 38.96 0.28 7.06 -0.48 17.32 -1.56 24 -4.22a43.48 43.48 0 0 0 -13.04 23.86l-4.92 0a38.38 38.38 0 0 0 -1.12 -8.12 5.62 5.62 0 0 0 -2.28 -2.96c-2.62 -1.64 -6.38 -1.08 -16 0a0.44 0.44 0 0 0 -0.32 0.24c0.22 -0.6 -1.7 4 0 6.22a0.34 0.34 0 0 0 0.36 0.14 56.36 56.36 0 0 1 8.86 -1.1c0.76 0 3 0 3.14 0.8 0.48 2.58 3.08 52.78 2.62 57.52a12.84 12.84 0 0 0 -6.84 0.32c-6.32 2.14 -8.58 8.76 -8.8 8.92a12.2 12.2 0 0 0 -3.64 4.44 114.6 114.6 0 0 1 -47.62 -1.36zm35.66 88c6.86 2.34 6 4.92 5.78 5.26a19.18 19.18 0 0 1 -8.76 0.74 8 8 0 0 1 2.96 -5.96zm4.36 -48.86c-1.46 8.16 -4 25.36 -5.78 33.4 -0.3 1.32 -2.68 12.24 -1.8 13.26a12.46 12.46 0 0 0 -3.62 7.02 44 44 0 0 1 -9.82 -2.38c-1.68 -6 -2.94 -19.24 -3.54 -25.6 -0.54 -6 -4 -60.6 -4.14 -62a106.56 106.56 0 0 0 36.16 -1.22 58 58 0 0 0 -6 27.26c0.16 4.22 0.48 -0.52 -1.46 10.3zM90.52 351c-0.2 -0.12 -3.64 -0.84 -7.84 -7.38 -7.72 -12 -13.38 -39.8 -13.86 -54.14a62.64 62.64 0 0 1 2.74 -20.12 31.66 31.66 0 0 1 5.34 -10.82 18.42 18.42 0 0 1 3.4 -0.52 50.18 50.18 0 0 0 -5 20c-2.24 -3.5 -2.18 -3.54 -2.4 -3.4s-0.22 0 2.38 4.38a211.26 211.26 0 0 0 1.42 23.06c-5.28 0.66 -5.16 0.56 -5.12 0.82a0.18 0.18 0 0 0 0.2 0.18l5 -0.34a161.48 161.48 0 0 0 3.22 18.8l-2.66 6.78c-0.1 0.22 0.26 0.38 0.34 0.14l2.58 -5.9c2 7.9 5.44 18.16 11.42 23.64 0.32 2.36 0.32 3.82 0.32 3.82a0.2 0.2 0 0 0 0.2 0.18c0.26 0 0.18 -0.12 0 -3.46a14 14 0 0 0 4.54 2.66c-1.08 0.44 -4.96 2.1 -6.22 1.62zm14.12 -25.6c0 -1.48 0.26 -25.02 0.26 -25.28l3.7 -0.44a134.26 134.26 0 0 1 -0.6 31.26zm3.2 6.28c-0.74 4.68 -1.42 8.12 -3.66 11.36 0 0 0.42 -15.34 0.44 -16.4zm-2.94 -32.28 0 -11.44 2 0.54a93.7 93.7 0 0 1 1.74 10.64zm-0.22 -12a0.26 0.26 0 0 0 -0.32 0.24S104 298 104 299.46l-1.66 0.12a3 3 0 0 0 -0.64 -0.82 3.64 3.64 0 0 0 -1.56 -0.8l-3.56 0 0 -14.74 1.54 -3.88c1.6 0.28 4.64 0.92 6.24 1.26a61.18 61.18 0 0 1 2.32 7.4zM86.18 302l0 0.64c0 5.36 2.68 -3.38 -5.54 17.36a175.26 175.26 0 0 1 -2.88 -17.3zm-8.54 0c0 0.46 -1.32 -10.74 -1.52 -21.56 0 0.14 10.54 17.4 11.22 18.5a4.48 4.48 0 0 0 -1.02 2.12zm9.56 4.2a2 2 0 0 0 1.3 0.76c0.3 3.78 3 37.14 3.12 38.42 -5.68 -5.78 -8.9 -16.36 -10.76 -24.24 0.9 -2.08 6.08 -14.26 6.34 -14.94zm2.28 1.06 3.02 0 3.76 6 0 31.7a3 3 0 0 0 2.54 3.08c-0.54 0.34 -1.06 0.64 -1.6 0.92a13.66 13.66 0 0 1 -5.04 -2.96c-0.16 -1.5 -2.4 -35.06 -2.68 -38.74zm10.52 -8.42a2.56 2.56 0 0 1 1.3 0.82l-10.64 0.96a4.64 4.64 0 0 0 -0.64 -1.34l0.28 -0.64zm-9.5 -0.7 5.16 -12.54c0 4.4 0.2 8 0.5 12.42zm12 2.24 1.36 -0.16c0 0.22 -0.28 22.68 -0.28 23.68 -0.94 -1.58 -5.5 -9.06 -6.8 -11.18 0 -2.64 0 -4.62 -0.12 -5.44 1.8 0 3.38 0 4 -0.14 2.4 -0.22 2.48 -4.64 2 -6.76zm-2 5.82c-1.2 0.1 -6.36 0.16 -7.7 0.18 -2.82 -4.56 -1.8 -2.58 -2.12 -4.82l10.82 -1.08c0.6 1.52 0.62 5.52 -0.76 5.72zm-4.34 1.08c0 0.72 0 2.28 -0.12 4.38l-2.68 -4.36zm-5.64 -2.8 1.18 2 -2.22 0a4.16 4.16 0 0 0 1.28 -2zm6.18 40.56 0 -30.52c1.02 1.64 5.6 8.92 6.76 10.72l0 17.76a0.18 0.18 0 0 0 0.28 0.16 18 18 0 0 1 -4.68 4.58 2.46 2.46 0 0 1 -2.12 -2.7zm0.54 -65.78 -0.8 1.88 0 -2a4.9 4.9 0 0 1 1.04 0.12zm1.04 -0.68 2.12 -5.36a36.1 36.1 0 0 1 3.6 6.9c-1.48 -0.52 -3.72 -1.16 -5.48 -1.54zm-0.68 -0.14a5.78 5.78 0 0 0 -1.32 -0.16c-0.46 0 -0.6 0.3 -0.68 1 -0.72 6.7 2 -1.14 -6.32 18.9l-0.48 0c-0.12 -1.7 -3.2 -39.04 -3.2 -39.04a0.2 0.2 0 0 0 -0.4 0s2.52 37.16 2.64 38.76L76.1 279.26A50.52 50.52 0 0 1 80.76 258c6.46 0 12.6 4.16 19.56 14.7zm7.84 70.78c8.74 -6.78 9.7 -36.32 8.74 -44.22 -1.6 -13.16 -3.8 -33.24 -16.34 -44 -8 -6.94 -14.38 -6.32 -18 -4.74 3.4 -6.64 11.24 -8 19.1 -0.76a34.2 34.2 0 0 1 8.34 12.58c5.04 13.08 9.52 32 9.26 46.72 -0.34 22 -4.46 46.98 -24.16 37.26 3.08 0.98 7.5 1.64 13.3 -2.84zm5.08 6.32c-6.88 4.86 -13.32 3.24 -18 -2.88 19.84 9.78 24.44 -15.62 24.86 -37.84 0.26 -14.86 -4.2 -33.72 -9.38 -47.04a35.46 35.46 0 0 0 -8.66 -12.8c-4.44 -4 -10.66 -6.68 -15.76 -3.58a12 12 0 0 0 -4.38 5.12c-0.44 0.2 -0.82 0.42 -1.18 0.62a15.16 15.16 0 0 1 8.44 -8.22c3.02 -0.98 6.94 -0.8 12 1.88a34.4 34.4 0 0 1 14.28 16.16c11.7 22.88 12.42 78.4 -1.98 88.58zM137.44 336a9.84 9.84 0 0 0 -4.58 5.46 34.5 34.5 0 0 0 -0.5 7.32 69.36 69.36 0 0 0 -14.5 -2.52c5.58 -14.68 5.52 -37.82 3.04 -54 0.9 0.26 16 4.2 16.48 4.34 0 1.16 0.24 30.98 0.26 32a0.44 0.44 0 0 0 -0.18 0.34c0 -0.36 0.06 6.8 -0.02 7.06zm3.66 12.58a7.6 7.6 0 0 1 7.22 3.42c-2.94 2.98 -4.88 5.08 -7.36 7.84 0.06 -2.1 0.2 -6.36 0.14 -11.32zm0 12.62c3.16 -3.54 5.14 -5.86 7.52 -8.82a18.52 18.52 0 0 1 2.96 11.22 101.16 101.16 0 0 0 -10.52 -2.46zm10.42 2.8a17.64 17.64 0 0 1 -2.66 8.52c-2 -3.28 -5.06 -7.5 -7.2 -10.38 2.16 0.54 6.6 1.42 9.86 1.86zm-2.94 8.92a7.52 7.52 0 0 1 -8.58 3.5c0.5 -6.16 0.54 -8 0.78 -13.82 2.08 2.88 5.22 7.22 7.8 10.32zM140 360l-1.62 -2 0 -8.5a7.1 7.1 0 0 1 2.2 -0.94c-0.2 4.1 -0.58 11.24 -0.58 11.44zm-1.56 0.76 0 -2 1.34 2zm0.96 0.76 -0.9 1.02 0 -1.3zm-0.84 2.34c0.14 -0.14 1.04 -1.12 1.34 -1.48 -0.2 6 -0.28 7.82 -0.26 13.86a11.84 11.84 0 0 1 -6 -7.24c0.26 -0.28 2.58 -2.62 3.3 -3.4a5.84 5.84 0 0 0 1.4 -0.48c0.4 -0.18 0.28 -0.58 0.24 -1.24zm-5.08 4.68a20.56 20.56 0 0 1 -0.78 -8.86c0.28 5.4 0.24 5.26 0.52 5.44a5.12 5.12 0 0 0 2.52 0.64c-0.42 0.56 -2 2.48 -2.24 2.8zm-19.1 -15.72a27.44 27.44 0 0 0 3.32 -6.24 103.46 103.46 0 0 0 14.3 2.7 24.44 24.44 0 0 0 -2.76 6.9 115.82 115.82 0 0 0 -14.84 -3.34zm36.98 -5.18c6 7.88 6 21.9 -0.12 29.82 -6.92 8.94 -17.36 4.94 -20.94 -7.02a27.74 27.74 0 0 1 2 -20.98c0 1.26 0.2 6.94 0.26 8.34a20.58 20.58 0 0 0 -0.64 4.88c-0.18 13.06 10.52 19.66 17.06 11.18 7.06 -9.12 2.56 -26.1 -6.9 -26a6.84 6.84 0 0 0 -3.62 1.12 13.86 13.86 0 0 1 0.96 -5.04 14 14 0 0 1 1.24 -1.2 10.92 10.92 0 0 1 10.72 4.92zm-10 -5.36a4.68 4.68 0 0 1 5.6 -0.22 2.18 2.18 0 0 1 1.04 1.7 10 10 0 0 0 -6.58 -1.46zm8.34 -3.86a14.38 14.38 0 0 1 1.24 7.76 14.14 14.14 0 0 0 -2.48 -2.18c0.18 -2.16 -2.54 -3.6 -4.76 -3.32a8.38 8.38 0 0 0 -4.76 2.78c-2.32 2.46 -1.1 18.16 -0.98 20.92 -0.28 0.34 -1.86 0.4 -2.16 0.4a3.82 3.82 0 0 1 -1.86 -0.4c-0.14 -2.3 -1.34 -20.6 -0.5 -22.78a9.28 9.28 0 0 1 4.2 -5.36 6 6 0 0 0 4 1.14 8.36 8.36 0 0 0 4 -1.26 5.18 5.18 0 0 1 4.12 2.32zm13.66 27.32c-4.5 -49.42 -4.28 -50.96 -6.24 -57.4a13.24 13.24 0 0 0 -3.12 -6 26.16 26.16 0 0 0 -8.84 -4.52c-0.54 -0.14 -0.3 -1.28 -0.3 30.78 -5.16 1.78 -6.66 -0.22 -6.86 -0.3 0 -1 0.24 -32.2 0.24 -32.2a0.48 0.48 0 0 0 -0.34 -0.46l-17.16 -4.2c-0.4 -2.5 -0.86 -5 -1.38 -7.48l17.18 4.52c0 -1.74 0.36 -33.76 0.36 -35.44a6.46 6.46 0 0 0 -5.12 -6.4l-17.68 -5.14c-2.44 -1.06 -15.26 -4 -15.26 -4l0 12c1.62 0.54 15.34 -0.26 15.34 0l0 -0.62c1.34 7.42 6 22.88 22 28l0 1.64c-2 -0.9 -11.78 -5.58 -16.46 -11.82l-6 0c-5.34 -11.42 -13.4 -17.24 -20.12 -18.78 0.5 -4.88 -1.86 -55.12 -2.34 -57.74s-10 -0.84 -12.56 -0.34a6.74 6.74 0 0 1 0 -5.1c1.74 -0.18 10.36 -1.04 12.1 -0.9a5.24 5.24 0 0 1 5.12 3.48c1.84 5.06 2 38.94 2 44.3a0.48 0.48 0 0 0 0.4 0.46c-4.44 -0.56 40.88 5.14 43.54 10.3s2.6 39.74 2.6 45.64a0.46 0.46 0 0 0 0.36 0.46 28.48 28.48 0 0 1 11.38 6.8 21.82 21.82 0 0 1 6.16 11.6c2.3 12.2 5.02 44.38 6 56.74zm-28.8 -116.4c-2.24 0.16 -12.92 0.6 -20.32 -4l0 -3.34c18 6 18.62 5.62 20.32 7.34zm34.84 114.2 0 -0.48 15.18 -5.32c0 0.26 0.2 0.52 0.28 0.78zm13.2 -19.26a62.32 62.32 0 0 0 14.88 -0.54c0 0.28 0 0.94 -0.94 10.32a0.3 0.3 0 0 0 0 0.22 5.76 5.76 0 0 1 -2.7 1.82 19.48 19.48 0 0 1 -9.06 0.12 87.78 87.78 0 0 1 -2.18 -11.94zm19.64 19.26a46.98 46.98 0 0 1 -14.6 -2.82 3.72 3.72 0 0 1 -1.1 -0.72 9.88 9.88 0 0 1 -1.52 -3.28 14.56 14.56 0 0 0 7.6 0.7 6 6 0 0 0 4.4 -2.98c4 0.56 14.78 2.66 14.66 6.74 -0.1 2.5 -6.94 2.48 -9.44 2.36zm-3.72 -9.54 -1.28 -0.16 0 -0.42 28 -9.48 0.22 0.86zm25.14 -18a45.82 45.82 0 0 0 12.58 -1.24l-0.12 7.3c0 1.86 -7.76 3.38 -9.62 3.64 -0.28 -0.9 -2.64 -9.02 -2.84 -9.7zm4 13.52c-0.14 -0.46 -0.52 -1.76 -0.98 -3.38a15.8 15.8 0 0 0 6.5 -0.86 5.38 5.38 0 0 0 3.44 -2.92c2.46 0.46 12.28 2.52 13.4 4.78s-5.08 7.98 -22.42 2.4zm11.22 -15.22a0.44 0.44 0 0 1 -0.36 0.44s-0.72 0.18 -2 0.42l0 -0.46 1.8 -0.4 0 -4.74c2.66 -11.06 4.74 -21.12 6 -30 1.62 5.46 2 20.22 2.24 26l-7.34 2.44c-0.52 2.22 -0.4 0.74 -0.4 6.32zm14 1.5c-7.58 1.88 -3.12 0.56 -16.12 5.1l0 -0.76 10.38 -3.38c0.26 -9.44 1.14 -31.18 -2.4 -38.42 0.74 -5 1.24 -9.68 1.48 -14a29.86 29.86 0 0 1 4.26 10 31.3 31.3 0 0 1 0.66 6.76c-0.3 0.18 1.62 34.14 1.64 34.72zm-0.88 -34.92a28.14 28.14 0 0 0 -2.32 -11.42 30 30 0 0 0 -3.48 -6c0.68 -14.24 -1.56 -24.54 -7.78 -30.54a30.4 30.4 0 0 0 -3.66 -2.98c0 -2.9 0.5 -25.38 -2 -26.94s-18.76 -2.42 -21.72 -2.56a6.56 6.56 0 0 0 0 -0.88c-0.2 -1 -2.36 -8.28 -4.66 -14.32A100 100 0 0 0 190.3 177a43.46 43.46 0 0 0 -10.8 -9.76c3.32 -1.2 2.48 -1.76 6.64 -1.38 11.14 0.96 37.46 1.04 46.28 -6.1 1.18 0.44 2.44 0.86 3.8 1.24 7.46 2.14 12.98 -0.6 17.22 -6.22 5.1 8 8.86 19.02 7.8 28.76 -1.26 11.5 -10.46 62 -10.5 62.26s6.88 13.42 12.98 25.56a15.28 15.28 0 0 0 -8.16 3 13.76 13.76 0 0 0 -4.38 13.2c1.08 5.34 5.54 8.5 10.78 9.54a69.3 69.3 0 0 1 -9.96 3.78zm10.6 -4a15.84 15.84 0 0 1 -4 -1.34 11.46 11.46 0 0 1 -6.52 -8 14.4 14.4 0 0 1 1.7 -9.86 12.4 12.4 0 0 1 6.18 -4.88 14 14 0 0 1 4 -1c4 8.16 7.74 15.9 8.54 19.22a56.26 56.26 0 0 1 -9.96 5.8z" stroke-width="1"></path><path d="M242 344.56a2.54 2.54 0 0 0 -1.62 0.52 2.4 2.4 0 0 0 -1.04 1.34c-0.16 0.18 0.12 0.44 0.28 0.24a8.98 8.98 0 0 0 2 -1.32l0.46 -0.4a0.2 0.2 0 0 0 -0.08 -0.38zM103.12 61.58a5.24 5.24 0 0 1 -1.1 0 2.44 2.44 0 0 1 -1.88 -1.54l-0.14 -0.58a0.16 0.16 0 0 0 -0.32 0 2.4 2.4 0 0 0 3.6 2.4 0.161245155 0.161245155 0 1 0 -0.16 -0.28zm-6.18 -12.72 0 1.44a0.64 0.64 0 1 0 1.28 0l0 -1.32a0.6428063472 0.6428063472 0 1 0 -1.28 -0.12zM203.38 356.3a4 4 0 0 0 -4.54 1.88 0.2 0.2 0 0 0 0.32 0.22 4.74 4.74 0 0 1 0.96 -0.6 9.86 9.86 0 0 1 2.66 -0.96l0.58 -0.16c0.24 0.02 0.26 -0.38 0.02 -0.38zm-3.08 -0.52c0.24 0 0.18 -0.44 0 -0.38a4.88 4.88 0 0 0 -4.5 2.32c-0.16 0.2 0.16 0.42 0.3 0.2a19.2 19.2 0 0 1 3.2 -1.62zM172.7 236.6zm66.92 106.88a1.56 1.56 0 0 0 -0.8 0 2.78 2.78 0 0 0 -1.84 2 0.2 0.2 0 0 0 0.32 0.22c0.18 -0.16 0.56 -0.4 0.72 -0.56a13.62 13.62 0 0 1 1.16 -1.04l0.42 -0.32a0.2 0.2 0 1 0 0.02 -0.3zM103.7 56.9s2.78 4.32 4.6 4.3a12.74 12.74 0 0 0 -3.78 -5.86c-0.2 0 2.22 0.14 2.16 -1.24a13.04 13.04 0 0 0 -1.26 -2.94 30.54 30.54 0 0 0 -2.44 -3.88 0.16 0.16 0 1 0 -0.26 0.16l0.9 2a47.44 47.44 0 0 1 2.38 4.72c0 0.56 -2.34 0.82 -2.56 0.88a0.16 0.16 0 0 0 0 0.3 17.52 17.52 0 0 0 -6.8 2.98s5.14 0.06 7.06 -1.42z" stroke-width="1"></path><path d="M199.14 43.2c0.7 0 2.9 -0.18 3.24 -0.14s0.3 -0.22 0.12 -0.3a2.2 2.2 0 0 0 -1.42 -0.44 3.32 3.32 0 0 0 -2 0.58 0.16 0.16 0 0 0 0.06 0.3zm11.58 0.26a12.12 12.12 0 0 1 3.18 1.52 0.16 0.16 0 1 0 0.24 -0.2 3.38 3.38 0 0 0 -0.58 -0.84 3.44 3.44 0 0 0 -2.34 -0.88 2.22 2.22 0 0 0 -0.52 0c-0.22 0.08 -0.2 0.4 0.02 0.4zM200 48.54c0 -0.44 0.1 -0.86 0.18 -1.3a0.64 0.64 0 1 0 -1.24 -0.3c0 0.48 -0.16 0.94 -0.2 1.42a0.64 0.64 0 1 0 1.26 0.18zm-39.24 85.28 0 -1.32a0.64 0.64 0 1 0 -1.28 0l0 1.42a0.6419501538 0.6419501538 0 1 0 1.28 -0.1zM211.7 50.6c0 -0.42 0.12 -0.86 0.18 -1.3a0.64 0.64 0 1 0 -1.24 -0.3c0 0.48 -0.14 0.94 -0.2 1.42a0.64 0.64 0 1 0 1.26 0.18zm-39.04 82.86 0 -1.3a0.64 0.64 0 1 0 -1.28 0l0 1.42a0.6428063472 0.6428063472 0 1 0 1.28 -0.12z" fill-rule="evenodd" stroke-width="1"></path><g fill-rule="evenodd"><path d="m316.6 52.82 0 1.42a0.64 0.64 0 1 0 1.28 0l0 -1.32c0.12 -0.92 -1.24 -0.92 -1.28 -0.1zM314.92 47a11.44 11.44 0 0 1 3.18 1.54c0.14 0.16 0.38 0 0.24 -0.22a3 3 0 0 0 -0.58 -0.82 3.6 3.6 0 0 0 -1.84 -0.88 3.24 3.24 0 0 0 -1.02 0 0.1902629759 0.1902629759 0 1 0 0.02 0.38zm-9.96 1c0.7 -0.32 2.46 -1.46 2.82 -1.58a0.16 0.16 0 1 0 0 -0.32 2.18 2.18 0 0 0 -1.46 0.24 3.42 3.42 0 0 0 -1.56 1.44 0.16 0.16 0 1 0 0.2 0.22zm74.78 216.22c0.26 0.1 0.26 0.08 0 0zm-55.4 -192.76a6 6 0 1 0 12 0 6 6 0 0 0 -12 0zm11.34 0a5.32 5.32 0 0 1 -10.62 0 5.32 5.32 0 1 1 10.62 0zm-42.24 36.36a19.38 19.38 0 0 0 0.94 -4.4 0.34 0.34 0 0 0 -0.1 -0.3 13.8 13.8 0 0 0 -4.4 -2.9c-0.1 0 -0.18 0 -0.22 0.12a20.46 20.46 0 0 0 -0.9 4.98 0.34 0.34 0 0 0 0.12 0.3 13.56 13.56 0 0 0 4 2.46 0.4 0.4 0 0 0 0.56 -0.26zm-4 -2.66a32 32 0 0 1 0.56 -4.56 17.26 17.26 0 0 1 3.7 2.92 23.86 23.86 0 0 1 -0.84 3.68 16.64 16.64 0 0 1 -3.38 -2.04zm44.38 -10.4a19.42 19.42 0 0 0 4.1 -1.86 0.4 0.4 0 0 0 0.18 -0.26 14.24 14.24 0 0 0 -0.28 -5.26 0.16 0.16 0 0 0 -0.22 0 23.34 23.34 0 0 0 -4.56 2.22 0.46 0.46 0 0 0 -0.16 0.28c-0.04 0.94 -0.12 5.22 0.94 4.88zm3.74 -7.1a16.88 16.88 0 0 1 -0.18 4.7 21.06 21.06 0 0 1 -3.44 1.5 15.66 15.66 0 0 1 -0.34 -3.86 30.14 30.14 0 0 1 3.96 -2.34zm-2.1 39.2zM332 116.14a19.02 19.02 0 0 0 4.34 -1.22 0.32 0.32 0 0 0 0.2 -0.22 13.74 13.74 0 0 0 0.54 -5.26 0.16 0.16 0 0 0 -0.2 -0.12 20.12 20.12 0 0 0 -4.86 1.5 0.42 0.42 0 0 0 -0.18 0.26 13.56 13.56 0 0 0 -0.3 4.74 0.42 0.42 0 0 0 0.46 0.32zm0.52 -4.76a34.38 34.38 0 0 1 4.26 -1.7 16.98 16.98 0 0 1 -0.88 4.64 22.68 22.68 0 0 1 -3.64 0.96 15.08 15.08 0 0 1 0.32 -3.9zm16.4 -7.1a18.52 18.52 0 0 0 4.12 -1.86 0.4 0.4 0 0 0 0.16 -0.26 13.74 13.74 0 0 0 -0.28 -5.26 0.14 0.14 0 0 0 -0.2 -0.1 24.96 24.96 0 0 0 -4.58 2.24 0.34 0.34 0 0 0 -0.14 0.28c0 1.02 -0.12 5.3 0.92 4.96zm3.74 -7.1a16.84 16.84 0 0 1 -0.16 4.7 21.36 21.36 0 0 1 -3.46 1.52 16.86 16.86 0 0 1 -0.32 -3.88 30 30 0 0 1 3.94 -2.34z" stroke-width="1"></path><path d="M385.5 125.86c-0.52 -1.1 -6.58 -17.14 -13.12 -28 1.52 -3.58 -7.24 -11.58 -10.14 -14.14 -12.12 -10.66 -14.64 -12.66 -23.32 -14.88 -0.64 -0.16 -0.98 -0.84 -2.14 -1.1a7.32 7.32 0 0 0 -3 -2.8 2.52 2.52 0 0 0 0.7 -0.34 6.14 6.14 0 0 0 5.84 -4c2.44 -2.3 8.14 -8.5 6.14 -14.92 0 0 8.48 2 10.18 -6.22s-0.14 -18.12 -10.18 -20 -20 0 -21.48 10.2c0 0 -14.14 -2.36 -20.84 5.82 -6 7.22 -5.26 13.86 -2.38 18.4a37.5 37.5 0 0 0 0.14 12.4c0.98 4.74 6 7.56 10.48 9.14 -6.16 3.62 -26.28 16 -29.78 22.18a12.84 12.84 0 0 0 -0.76 9.24c-2.36 8.5 -6.14 29.22 -6.28 38a65.24 65.24 0 0 0 -6.82 24c-0.7 12.36 2.36 24 0 33.36a32.7 32.7 0 0 0 -1.36 9.3 5.86 5.86 0 0 0 1.44 3.88 1.22 1.22 0 0 0 1.64 0c0.66 2.88 2.9 2 3.58 -1.02 0.24 -1.04 0 -1.16 0.3 -0.1s0.6 2.54 1.5 2.66c1.8 0.2 1.44 -3.16 1.14 -4.96 0.86 1.02 1.56 0.82 1.5 0.54a0.16 0.16 0 0 0 -0.18 -0.12c-1.1 0.12 -2.78 -5.86 -3.76 -8.88a0.16 0.16 0 0 0 -0.32 0 23.16 23.16 0 0 0 2.34 7.78c0.26 1.42 0.78 5.34 -0.68 5.16 -0.62 0 -0.98 -1.74 -1.1 -2.36a57.42 57.42 0 0 1 -0.58 -6.82 0.26 0.26 0 0 0 -0.52 0s0 1.24 0.14 2.84 -0.14 5.6 -1.74 6.2c-0.78 0.28 -1.04 -1.28 -1.12 -2.1a56.16 56.16 0 0 1 0.24 -7.58 0.36 0.36 0 0 0 -0.72 0 47.6 47.6 0 0 0 -0.3 6.2l0 1.02c0 0.66 -0.16 1.28 -0.76 1a6 6 0 0 1 -1.2 -4.66c0.28 -6.64 2.48 -7.62 2.26 -17.86 -0.24 -12.64 -2.86 -21.26 1.26 -35.6a80.92 80.92 0 0 1 4.48 -11.72 152.98 152.98 0 0 1 2.78 -22.6 14.78 14.78 0 0 1 2.88 2.96c-1.06 5.62 -5.7 30.14 -5.12 35.84a0.38 0.38 0 0 0 0.42 0.34s0.98 -0.12 2.42 -0.2a10.94 10.94 0 0 0 0.12 4.94 2.8 2.8 0 0 0 -0.4 5.48 66.1 66.1 0 0 0 -0.3 9.22c0.1 5.74 0.62 12.1 0.64 24.48 0 21.02 -2.7 27.44 -3.6 36.16 -0.28 2.9 -1.26 19.74 1.48 18.7 0.46 0.1 1.86 0.48 3.72 1.02 -0.34 9.32 -1.58 56.58 4 64a19.4 19.4 0 0 0 7.8 6.9c0 1.28 0 7.22 -0.16 8l-1.7 0.12c-2.66 0.28 -10 2 -11.66 3.82 -2.58 2.84 7.78 2.92 14 2 5.6 -0.78 8 0.34 8.54 -2.94a51.86 51.86 0 0 0 0.9 -11.22l0.56 -0.16c9.88 -2.84 14.88 -47.68 15.86 -57.9l0.56 0c0.7 18.8 6 59.18 22.56 66.46 0 0.82 0.46 8 0.44 8.8 -0.9 0 -2.12 0.28 -3.02 0.48s-8.44 2.32 -10 4.36c-2.38 3.02 8 2.38 14 1.1 5.68 -1.2 8 -0.94 8.34 -3.54a52.66 52.66 0 0 0 0 -10.94c15.38 -6.62 17.2 -48.7 16.8 -65.3a27.5 27.5 0 0 0 10 -3.56c3.86 -2.64 4.1 -2.46 0.82 -52.46 -0.34 -5.18 -2 -28 -1.22 -32.5 1.84 -3.18 3.64 -6.58 5.24 -10a58.7 58.7 0 0 0 6 -22.16c0.22 -8.88 -0.64 -20.7 -4.42 -28.84zm-46.38 -56.28a28.92 28.92 0 0 1 9.78 4.16 134.66 134.66 0 0 1 20.26 18.14A14 14 0 0 1 371.6 96a6.38 6.38 0 0 0 -6.32 -2.26c-4.14 0.42 -16.96 18 -29.72 33.28a0.14 0.14 0 0 0 -0.1 -0.2 26.86 26.86 0 0 1 -14.5 -15.06 80.72 80.72 0 0 1 -2.68 -8.86C332 92 338.32 78.78 339.12 69.58zm-4 6.58a6.76 6.76 0 1 1 -3.52 -11.46 2.52 2.52 0 0 0 1.38 0.44 6.76 6.76 0 0 1 2.12 11.02zm-2 -11.82a1.88 1.88 0 0 1 -1.88 -1.82 1.88 1.88 0 1 1 3.74 0 1.86 1.86 0 0 1 -1.96 1.82zm-27.14 7.04c-2.42 -2.12 -3.56 -3.9 -3.78 -10.14a59.7 59.7 0 0 1 0.32 -7.78c1.1 -10.18 6.96 -17.72 16.5 -20.42 0 0 -0.82 17.84 9.4 18.86 0 0 -1.14 6.1 2.18 6.74s3.34 -3.58 6 -3.82c3.26 -0.3 4.24 2.84 2.92 6.32A7.78 7.78 0 0 1 335.1 64a2.64 2.64 0 0 0 0.5 -1.56 2.6 2.6 0 0 0 -5.18 0 2.66 2.66 0 0 0 0.66 1.76 7.32 7.32 0 1 0 6.22 4.6 3.8 3.8 0 0 0 1.24 0.52 42.8 42.8 0 0 1 -7.26 18.92 18.28 18.28 0 0 1 -15.76 0.86c-0.28 -1.68 -1.84 -12.14 -1.38 -13.12a0.18 0.18 0 0 0 0 -0.2 26 26 0 0 1 -8.26 -4.4zM283.1 98.12c3.38 -6.12 23.66 -18.74 29.68 -22.32l1.02 0.32c-0.56 7.5 3.5 32.56 8.92 40.86a26.52 26.52 0 0 0 12.64 10.18 0.16 0.16 0 0 0 0.16 0c-3.5 4.16 -12.88 15.38 -17.78 17 -9.7 3.26 -22.56 -13.88 -28.18 -22.4 -4.18 -6.4 -10.14 -16.98 -6.46 -23.64zm13.7 78.58c0 -0.48 0 -43.16 -0.12 -44.14 1.32 1.56 2.7 3.1 4.14 4.54 0 1.74 -1.38 40 -1.48 42.76 -0.78 0.46 -2.16 -1.86 -2.54 -3.16zm2.54 3.56c0 2.26 -0.14 3.84 -0.16 4.36 -1.38 0.68 -2.14 -2.84 -2.5 -4.18l0 -2c0.62 0.66 1.76 2.1 2.66 1.82zm-9.66 -8c3.78 1.76 5.84 2.16 6.64 5.32 0 2 0 1.78 -0.12 1.18a6 6 0 0 0 -4 -4c-3.06 -1.28 -7.1 -1.84 -7.22 -3.82 0 -1.52 1.56 -2.68 2.88 -3.7a3.44 3.44 0 0 0 1.82 5.06zm1.16 -9.38c0.94 -7.5 0.44 -30.42 0.1 -38 1.4 2 3.18 4.46 5.38 7.12l0 43.42c-1.16 -2 -3.52 -2.66 -6.3 -4a3.12 3.12 0 0 1 -1.48 -4.8c1.34 -0.88 2.5 -2 2.3 -3.7zm-6.42 -48.78a77.78 77.78 0 0 0 6 10.12c0 1.18 0.2 32 0.2 32.24 -2.42 -2.54 -9.4 -1.88 -12.86 -1.08 1.06 -10.38 4.7 -30.9 6.66 -41.24zm-6.94 46.6a38 38 0 0 1 0.24 -4.96c3.1 -0.26 10.86 -0.9 12.9 1.22l0 5.18c-1.74 -2.34 -10.26 -1.68 -13.14 -1.4zm24.3 181.5c-2 0.3 -15.54 2.28 -13.6 -0.8 5.04 -0.46 5.3 -0.1 5.46 -0.6a49.7 49.7 0 0 0 -0.16 -8.38 14.82 14.82 0 0 0 9.02 -0.16 86.44 86.44 0 0 0 -0.72 9.98zm1.48 -10.98c-7.46 2.16 -11.62 1.34 -17.34 -6.32 -5.26 -7.02 -4.28 -54.72 -4 -63.42 2.9 0.86 10.56 3.18 12.88 5.08 6 4.88 16.54 6.92 24.3 7.5 -1.1 9.44 -6.72 54.6 -15.84 57.2zm48.46 20c-2 0.4 -15.18 2.84 -13.48 -0.38 4.62 -0.82 5.28 -0.42 5.4 -0.98a22.48 22.48 0 0 0 -0.12 -3.66c0 -0.42 -0.3 -3.08 -0.7 -5.42a12.84 12.84 0 0 0 5.4 0.98 10.32 10.32 0 0 0 3.62 -0.72c-0.3 4.72 0.02 8.7 -0.12 10.18zm-3.52 -10.24c-11.08 0.32 -17.28 -13.44 -20.64 -24a192.36 192.36 0 0 1 -7.34 -42.74c14.84 0.94 19.2 -1.62 28 -0.32a19.74 19.74 0 0 1 5.3 1.46c2.68 1.26 8.94 1.34 14.88 0.34 0.28 18.16 -2.12 64.76 -20.2 65.26zm33.2 -75.14c-0.16 2.7 -0.26 4 -2.7 5.54 -5.8 4 -20.28 5.32 -24.74 3.22a31.08 31.08 0 0 0 -14 -1.8 107.74 107.74 0 0 1 -27.68 -0.32c-10 -1.68 -15.06 -4.88 -17 -6.48 -2.94 -2.4 -14 -5.52 -17.64 -6.46a0.3 0.3 0 0 0 -0.26 0c-0.92 -1.3 -0.9 -8.22 -0.88 -9.8 0 -11.7 1.5 -12.96 3.1 -26.74s0 -36.3 -0.12 -43.86c0 -2.26 0 -4.84 0.28 -7.34a2.8 2.8 0 1 0 0.56 -5.56c0.28 -2.36 0.56 -4.2 0.68 -5 2 0 8.86 -0.24 9.12 1.8s-3.52 3.76 -5.14 5.84a2.76 2.76 0 0 0 1 4.5 13.56 13.56 0 0 0 2.14 0.88 11.24 11.24 0 0 0 0.1 5.04 2.8 2.8 0 1 0 0.38 0 32.58 32.58 0 0 0 0 -4.84c2.3 0.74 5.3 1.54 6.4 3.46 0.84 1.48 1.34 4.72 2 6.12a6.56 6.56 0 0 0 0.2 3.16 2.8 2.8 0 1 0 0.4 0 10 10 0 0 0 0 -2.2 1.6 1.6 0 0 0 0.74 0.44c0.56 0.16 1.5 0 1.5 -0.56 0 0 1.2 -44.26 1.2 -47.42 4.44 4.36 10.96 9.38 16.84 7.42 8.94 -2.88 29.98 -32.88 41.34 -45.18 -6.28 8.98 -10.94 21.6 -11.8 38.4 -0.72 14.4 -0.94 30.52 -0.92 36.12 0 9.12 3.04 24 5.3 32a52.7 52.7 0 0 1 -6.5 3.08c-0.86 0.52 -2.26 1.76 -1.66 2.56s4.32 0 5.62 -0.22c-2 1.8 -8.36 7.68 -5.76 8.18a5.8 5.8 0 0 0 2.68 -0.86 6.74 6.74 0 0 0 -1.62 2c-0.22 0.78 0.48 1.1 1.32 1.02a14.68 14.68 0 0 0 3.82 -1.32c-0.58 0.86 0 1.32 0.98 1.46a8.18 8.18 0 0 0 4.88 -1.22c3.12 11.2 7.66 23.78 14 33.48 2.26 3.42 6.56 8.82 10 10.16a0.16 0.16 0 0 0 0.14 -0.28c-0.76 -0.34 -4.62 -2.54 -9.72 -10.6 0 -2.18 -2.3 -48.84 -2.34 -50.32a157.42 157.42 0 0 0 10.64 -15.64 59.7 59.7 0 0 0 -0.12 6.28c0.34 17.88 3.96 59.32 3.24 71.86zm-28 -61.78a2.94 2.94 0 0 1 -1.16 1.78c-1.62 -7.8 -4.48 -21.64 -4.8 -29.58 0.62 0 5.68 0.2 7.7 -1.62a67.74 67.74 0 0 0 -0.72 9.04c-0.12 4.54 0.68 15.7 -0.98 20.32zm2.52 16.56c4.52 -2.88 6 -9.02 7.44 -11.54a10.42 10.42 0 0 1 2.2 -2.94 21.72 21.72 0 0 0 1.58 -2c0.28 5.88 2.22 47.48 2.3 48.68 -5.72 -9.32 -10.22 -21.96 -13.44 -32.2zm33.46 -65.8c-0.16 6.82 -2.72 14.52 -6.1 21.84a138.24 138.24 0 0 1 -18.3 28.96 16 16 0 0 0 -2.32 3.06c-1.46 2.6 -3.06 8.96 -7.68 11.6a6.66 6.66 0 0 1 -4.74 0.92 8.3 8.3 0 0 1 1.72 -1.84 12.26 12.26 0 0 0 2.98 -2.36 0.4 0.4 0 0 0 -0.54 -0.58s-1.58 1.16 -2.94 2.34c-1.4 0.84 -5.1 2.72 -6.18 2.42 0.5 -1.34 5.3 -4.88 6.46 -5.7a0.38 0.38 0 1 0 -0.42 -0.62c0.58 -0.42 -6.1 4.34 -7.72 4.22 0 -1.22 6.1 -6.96 7.14 -8a0.36 0.36 0 0 0 -0.32 -0.6 22.4 22.4 0 0 1 -5.76 1.02c-0.66 0 -0.6 -0.2 -0.42 -0.5 1.5 -2.5 7.8 -2.68 9.44 -6.2 2 -4.42 1.02 -16.22 1.16 -21.2 0.26 -9.66 3.86 -25.24 5.18 -27.6 0 0 -4.24 -12.76 -4.34 -18 0 0 10.9 -21.9 30 -11.08 3.24 7.86 3.94 19.52 3.74 27.9z" stroke-width="1"></path><path d="M349.78 88.66a18.32 18.32 0 0 0 4.36 -1.2 0.36 0.36 0 0 0 0.2 -0.22 14 14 0 0 0 0.54 -5.24 0.16 0.16 0 0 0 -0.2 -0.14 23.66 23.66 0 0 0 -4.86 1.5 0.36 0.36 0 0 0 -0.18 0.26 13.56 13.56 0 0 0 -0.3 4.74 0.38 0.38 0 0 0 0.44 0.3zm0.54 -4.74a33.16 33.16 0 0 1 4.26 -1.7 16.16 16.16 0 0 1 -0.9 4.64 22.14 22.14 0 0 1 -3.64 0.96 16 16 0 0 1 0.28 -3.82zm-29.2 51.28a14 14 0 0 0 5.22 -0.7 0.16 0.16 0 0 0 0 -0.22 23.86 23.86 0 0 0 -2.6 -4.36 0.34 0.34 0 0 0 -0.28 -0.14c-1.04 0 -5.3 0.32 -4.88 1.34a18.58 18.58 0 0 0 2.18 4 0.42 0.42 0 0 0 0.36 0.08zm2.28 -4.68a30.72 30.72 0 0 1 2.6 3.74 16 16 0 0 1 -4.7 0.22 23.84 23.84 0 0 1 -1.8 -3.3 14.88 14.88 0 0 1 3.9 -0.66zM316.1 62c0 -0.2 -0.22 -0.32 -0.28 -0.12a3.36 3.36 0 0 1 -3.32 1.7l-0.6 0a0.1615549442 0.1615549442 0 0 0 -0.12 0.3 2.94 2.94 0 0 0 2.66 0.28A2.6 2.6 0 0 0 316.1 62zm-11.38 -9.76 0 1.42a0.64 0.64 0 1 0 1.28 0l0 -1.32a0.6419501538 0.6419501538 0 1 0 -1.28 -0.1zm4.6 6.36a5.88 5.88 0 0 1 -2 0c-0.72 -0.2 -0.42 -0.22 1.2 -4.38 0.5 -1.3 1 -2.84 0.92 -2.64 0.1 -0.18 -0.2 -0.32 -0.28 -0.12a37.54 37.54 0 0 0 -2.9 6.36c-0.36 1.2 0.62 1.58 1.86 1.42a8 8 0 0 0 1.22 -0.26 0.1902629759 0.1902629759 0 0 0 -0.02 -0.38zm-8.64 73.08c0.92 0.56 4.72 2.66 4.88 1.54a20.7 20.7 0 0 0 0.18 -4.72 0.4 0.4 0 0 0 -0.16 -0.26 13.86 13.86 0 0 0 -4.84 -2.24 0.14 0.14 0 0 0 -0.18 0.14 25.32 25.32 0 0 0 0 5.32 0.36 0.36 0 0 0 0.12 0.22zm4.34 -2.94a23.78 23.78 0 0 1 -0.2 4 16 16 0 0 1 -3.62 -1.56 35.26 35.26 0 0 1 -0.32 -4.82 16.98 16.98 0 0 1 4.14 2.38zm2.02 -20.96a21.42 21.42 0 0 0 -0.86 5.02 0.42 0.42 0 0 0 0.14 0.28c0.8 0.64 4.24 3.2 4.58 2.16a19.5 19.5 0 0 0 0.9 -4.42 0.4 0.4 0 0 0 -0.12 -0.3 14 14 0 0 0 -4.42 -2.84 0.16 0.16 0 0 0 -0.22 0.1zm4 3.16a23.64 23.64 0 0 1 -0.78 3.68 16.76 16.76 0 0 1 -3.36 -2 32.76 32.76 0 0 1 0.42 -4.58 16.22 16.22 0 0 1 3.72 2.9zM306 90.16a0.42 0.42 0 0 0 0.52 -0.18 19.56 19.56 0 0 0 1.66 -4.2 0.4 0.4 0 0 0 0 -0.3 14 14 0 0 0 -4.02 -3.48 0.14 0.14 0 0 0 -0.22 0 23.18 23.18 0 0 0 -1.72 4.78 0.4 0.4 0 0 0 0 0.3 13.74 13.74 0 0 0 3.78 3.08zm-1.74 -7.88a17.04 17.04 0 0 1 3.16 3.5 22.8 22.8 0 0 1 -1.44 3.48 16.98 16.98 0 0 1 -2.94 -2.56 30.78 30.78 0 0 1 1.14 -4.42z" stroke-width="1"></path></g></g></g></svg>