<svg xmlns="http://www.w3.org/2000/svg" viewBox="0 0 400 400" id="My-Body-My-Rules-1--Streamline-Free-Illustrations.svg" height="400" width="400"><desc>My Body My Rules 1 Streamline Illustration: https://streamlinehq.com</desc><g><g fill="#100259"><path d="M277.34 165.18c1.58 2.8 5.72 8.14 6.26 8 3.76 -1.26 7.32 -3 10.96 -4.52a18.62 18.62 0 0 0 4.36 -2.32c6.68 -5.2 8.34 -11.72 0 -13.62a8.76 8.76 0 0 0 -8.42 2.36 11.7 11.7 0 0 0 -4.48 -7.2 7.56 7.56 0 0 0 -8.38 1.04c-4.94 3.78 -2.84 11.7 -0.3 16.26zm7.24 -17.18c3.1 1.1 4.52 5.04 5.3 8 0.18 0.68 1.68 -0.84 2 -1.02a7.36 7.36 0 0 1 6.8 -1.66c5.62 1.18 6.94 4.62 3.02 9.42s-5.86 4.36 -18 9.74a38 38 0 0 1 -4.74 -6.12c-2.68 -4.26 -4.82 -11.26 -2 -15.42a7.44 7.44 0 0 1 7.62 -2.94zm-3 56.26a6.74 6.74 0 0 0 -9.26 -5.02c-4.16 2.2 -3.3 8.48 -1.06 12.78a33.6 33.6 0 0 0 5.22 6.7c2.9 -1.12 5.76 -2.36 8.64 -3.56a13.82 13.82 0 0 0 3.5 -2c6.36 -5.08 5.16 -9.7 -0.36 -10.7a7.32 7.32 0 0 0 -6.68 1.8zm6 8.98c-1.36 0.94 -6.56 2.8 -10.96 4.76a21.78 21.78 0 0 1 -6.2 -10.8c-2 -10.4 9.8 -9.52 10.56 -2 0 0.4 1.24 -0.2 1.74 -0.72a4.68 4.68 0 0 1 2 -1.08 6.3 6.3 0 0 1 3.28 -0.1c6.64 1.28 4.54 6.48 -0.46 9.94zm24.18 -29.08a3.34 3.34 0 0 0 -1.34 -2.64c-2.6 -1.74 -6.18 2.38 -1.84 7.64 0.86 1.06 2.94 3.2 3.48 2.82 1.56 -0.92 3.18 -1.8 4.72 -2.8 2.28 -1.5 4.48 -5.2 2.26 -6.74a5.78 5.78 0 0 0 -7.28 1.72zm6.42 2.5c-0.94 1.38 -1.2 1.36 -6.3 4.74a10.72 10.72 0 0 1 -4.36 -5.82c-0.82 -3.16 1.56 -4.72 3.1 -2.94 0.5 0.58 0.64 3.38 1.32 2.6a5.86 5.86 0 0 1 6.18 -2.26c1.76 0.62 0.8 2.62 0.06 3.68zM96.64 188c-5.84 0.38 -3.62 8.76 -1.34 11.82a97.24 97.24 0 0 0 7.08 8.38 24.36 24.36 0 0 0 6.3 -2.7 17.56 17.56 0 0 0 5.08 -4.4c3.84 -4.92 1.52 -10 -2.22 -9.6a6 6 0 0 0 -4.7 4.26 10.64 10.64 0 0 0 -10.2 -7.76zm6 3.2a13.44 13.44 0 0 1 3.5 5.34 0.4 0.4 0 0 0 0.78 0c0.82 -1.82 1.86 -3.72 4 -4.16s4 1.54 4 3.76c0 3.5 -3.62 7.16 -6.68 8.9a39.32 39.32 0 0 1 -5.88 2.56c-6.18 -8 -7.08 -8.74 -8 -11.2 -0.7 -2 -1.66 -6.34 1.22 -7.28a8.66 8.66 0 0 1 7.16 2.04zm-4.9 -86.6c-3.14 1.18 -0.72 5.32 1.08 6.66s3.16 2 4.74 3.14c0.52 0.46 2.66 -1.74 3.14 -2.24 1.68 -1.72 3.24 -4.7 2 -6.88s-4 -1.76 -4.56 1.54a5.86 5.86 0 0 0 -6.4 -2.22zm9.04 0.18c2 0.2 2.48 3.68 -0.44 6.82a23.06 23.06 0 0 1 -2.6 2.22c-4.68 -3.42 -4.9 -3.48 -5.56 -4.38s-2 -3.02 -0.48 -3.82a4.34 4.34 0 0 1 3.56 0A7.32 7.32 0 0 1 104 108c0.68 0.82 0.72 -3.42 2.78 -3.22zM61.84 280.82a30.7 30.7 0 0 1 -17.14 -5.66c-0.66 -0.48 -1.64 -1.66 -2.58 -1.34s-1.04 2.86 -3.56 5.24a9.5 9.5 0 0 1 -7.68 2.62c-0.28 0 -0.34 0.44 0 0.48A10.62 10.62 0 0 0 41.76 276c0.16 -0.34 0.38 -1.46 0.82 -1.48s3.56 2.5 4.6 3.08a28.28 28.28 0 0 0 14.66 3.62 0.2 0.2 0 0 0 0 -0.4zm11.94 -5.18c-3.68 -1.28 -7.16 -3.42 -11.12 -3.62A10 10 0 0 0 54 276.3c-0.22 0.3 0.28 0.58 0.48 0.28a9.32 9.32 0 0 1 8.96 -3.74c3.58 0.5 6.8 2.42 10.22 3.4a0.32 0.32 0 0 0 0.12 -0.6zM364 380.8c-4.64 -1.08 -6.36 -5.72 -6.92 -6.74 -0.32 -0.6 -0.7 -1.88 -1.58 -1.72a2.12 2.12 0 0 0 -1.04 0.78c-4 4.86 -8.1 5.84 -10.56 5.62 -0.34 0 -0.32 0.48 0 0.52a10.7 10.7 0 0 0 6.44 -1.52c0.92 -0.54 4.62 -4 5.02 -4.36s2.58 4.16 3.56 5.08a9.08 9.08 0 0 0 5 2.78 0.2236067977 0.2236067977 0 0 0 0.08 -0.44zm14.84 -5.26c-4.7 0.54 -5.78 -2.38 -9.02 -3.5 -4.66 -1.58 -5.12 3.6 -8 3.04 -0.4 0 -0.58 0.54 -0.18 0.62a4.14 4.14 0 0 0 3.66 -1.5c1.46 -1.36 2.46 -2.14 4.7 -1.22a48 48 0 0 1 4.26 2.72 6 6 0 0 0 4.72 0.48c0.26 -0.18 0.26 -0.68 -0.14 -0.64zM199.78 77.44a2.98 2.98 0 0 0 2.72 -0.24c0.42 -0.22 0.14 -0.96 -0.34 -0.8a7.62 7.62 0 0 1 -1.8 0.32c-0.28 0 -0.26 -0.18 -0.2 -0.44a17.8 17.8 0 0 0 0.18 -7.78c0 -0.26 -0.48 -0.2 -0.44 0 1.06 6.26 -1.48 8.18 -0.12 8.94zm3.64 7.56a6 6 0 0 0 4.78 -4c0.14 -0.38 -0.52 -0.76 -0.7 -0.4 -3.2 6 -8.54 2.74 -10.32 1.52 -0.26 -0.16 -0.48 0.24 -0.24 0.4a10.18 10.18 0 0 0 6.48 2.48zm-7.16 -17.64a3.6 3.6 0 0 1 -6 0.34c-0.24 -0.28 -0.62 0.12 -0.4 0.38a5.22 5.22 0 0 0 3.86 2 3.6 3.6 0 0 0 3.36 -2.28 0.465295605 0.465295605 0 0 0 -0.82 -0.44zm12.24 1.6a4.44 4.44 0 0 0 2.78 -2 0.38 0.38 0 0 0 -0.6 -0.46c-1.38 1.12 -2.22 3.12 -5.32 0.9 -0.22 -0.16 -0.5 0.2 -0.3 0.36a4.48 4.48 0 0 0 3.44 1.2zM192 62.4a5.44 5.44 0 0 1 3.82 -1.66c0.46 0 0.44 -0.9 -0.12 -0.88a5.16 5.16 0 0 0 -4.18 2c-0.32 0.38 0.18 0.86 0.48 0.54zM78 137.66c-5.74 -0.4 -12.24 5.5 -12 12C59.8 144 51.4 146 49.04 152c-4 10.24 10.72 14.94 12.88 15.68l15.68 5.44a0.36 0.36 0 0 0 0.42 -0.16c1.46 -3.24 3.6 -10 3.62 -10.12 3.12 -6 7.02 -13.86 3.36 -20.44a8.82 8.82 0 0 0 -7 -4.74zm7.12 14.56a66.78 66.78 0 0 1 -4.14 10.34s-2.18 6.6 -3.56 9.72l-18.68 -6.5c-0.82 -0.28 -10.26 -5.24 -9.58 -11.66a8.32 8.32 0 0 1 6.14 -6.7A11.24 11.24 0 0 1 66.14 151c0.3 0.34 0.76 0 0.7 -0.4 -0.88 -5.84 4.8 -12.12 10.64 -12.12 5.04 0 9.68 5.34 7.72 13.74zM28 90.84c0.2 0 31.3 1.64 39.64 1.8 6.74 0.12 13.52 0 20.24 -0.34 0.14 0 11.78 -0.6 14.92 -5.3 5.18 -7.74 -6.46 -13.08 -15.62 -8.6a9.7 9.7 0 0 0 -3.6 -8.28 9.42 9.42 0 0 0 -13.16 2c-5.9 -14.66 -32 -15.02 -36.78 -0.56a12 12 0 0 0 0.86 9.88 17.02 17.02 0 0 0 -8.76 2.92 4.18 4.18 0 0 0 -0.1 5.28 3.18 3.18 0 0 0 2.36 1.2zm-2 -5.16c0 -0.5 0.62 -0.76 1.04 -1.02 1.16 -0.7 6.52 -2.52 8.32 -2.12 0.66 0.14 1.12 -0.22 0.72 -0.72a10.64 10.64 0 0 1 -1.66 -9.12c3.72 -14.86 30.52 -14.24 35.52 0.52a0.48 0.48 0 0 0 0.86 0.12A8.38 8.38 0 0 1 86.34 79a0.42 0.42 0 0 0 0.62 0.48c8 -4.5 19.72 -0.46 15.48 6.78 -2.84 4.88 -14.34 5.22 -14.48 5.2 -24.22 -0.12 4.2 1.18 -57.62 -1.46 -1.12 0 -5.4 0.46 -4.52 -4.32zm262.76 -35a25.6 25.6 0 0 0 9.48 2.1c6 0.3 9.18 -0.66 21.74 -1.1 8.56 -0.3 17.14 -0.46 25.68 -0.94 0.2 0 12 -0.72 16.16 -4.5 7.16 -6.4 -4.54 -14.36 -11.38 -9.68a11.16 11.16 0 0 0 -3.52 -10 8.62 8.62 0 0 0 -13.44 2.14 11.34 11.34 0 0 0 -8 -8.94 11.2 11.2 0 0 0 -14 12 26.38 26.38 0 0 0 -18.46 1.42c-11.02 5.14 -8.7 14.82 -4.26 17.5zm-2.62 -9.64c1.62 -6 13.44 -12.24 25.6 -8.42 0.3 0.1 0.52 -0.2 0.48 -0.48A10.44 10.44 0 1 1 332.96 30a0.3436568055 0.3436568055 0 0 0 0.68 0.1 7.68 7.68 0 0 1 10.52 -4.48 10.28 10.28 0 0 1 5.42 11.68 0.38 0.38 0 0 0 0.62 0.36c5.02 -4.52 14.36 0.16 13.08 5.2a6.78 6.78 0 0 1 -2 3.06c-3.3 3.24 -15.36 3.88 -15.56 3.88 -6 0.1 -31.38 1.14 -32.22 1.18 -6.56 0.44 -13.72 1.66 -20.22 0.26 -2.9 -0.6 -4.86 -1.14 -6.3 -3.8a8.86 8.86 0 0 1 -0.84 -6.4z" stroke-width="1"></path><path d="M380.56 244.64c-3.7 -0.12 -122.1 0.66 -122.82 0.68a74.96 74.96 0 0 0 -5.18 -47.16c-3.5 -7.4 -22 -8.52 -10.18 -28.56 1.78 -3 4.8 -5.02 7.02 -7.68 1.08 -1.3 10 -10 1.12 -29.22a324.92 324.92 0 0 0 22 -29.02 49.34 49.34 0 0 0 6.24 -11.16 24 24 0 0 0 -2.22 -21.78 55.52 55.52 0 0 0 -7.58 -8.2c-5.02 -4.76 -11.2 -8.82 -20.62 -14.98 0 0 2.22 -5.82 1.5 -8.72a17.38 17.38 0 0 0 -3.58 -6.84c-0.52 -5.14 -5.14 -9.16 -8.6 -8.8a6.4 6.4 0 0 0 -4.12 -5.78 4.82 4.82 0 0 0 -2.14 0A8.86 8.86 0 0 0 224 13a14 14 0 0 0 -12.36 -1c-4.94 -3.32 -7.56 -0.7 -10.68 -1.48a12.62 12.62 0 0 0 -10.58 1.4c-9.16 -3.02 -19.28 4 -23.18 12.18a40.38 40.38 0 0 0 -6.46 3.56c-7.38 5.88 -6.96 16 -6.88 17.4 -7.88 7.14 -2.86 17.66 -2.56 18.3a8 8 0 0 0 5.14 9.34 4.5 4.5 0 0 0 3.32 6.52c-1.88 4.16 1.18 5.44 1.32 5.58a4.34 4.34 0 0 0 2.28 1.02A16.38 16.38 0 0 0 168 90c5.84 4.68 12.6 6.56 18.26 4.66a24.78 24.78 0 0 0 5.66 -3.48c0.58 0.32 2.36 1.14 2.36 1.14l0 5.22c-1.7 1.2 -8.14 5.08 -9.6 5.86a12.94 12.94 0 0 0 -9.2 2.18c-21.48 2.92 -36.28 8.6 -50.54 16.98 -5.82 3.42 -11.06 6.22 -14.24 10.32 -4.88 6.3 -5.36 14.7 -2.64 19.08 7.12 11.54 40.82 23.28 54.3 26.96a9.64 9.64 0 0 1 -4.52 6.54c-1.54 1.02 -3.86 1.66 -2.84 4.74 -23.12 17.4 -15.36 50.7 -14.5 54.5 -3.28 0 -120 2.44 -120.84 2.44a0.38 0.38 0 0 0 0 0.74c7.64 0 120.44 -2.48 121 -2.5a77.82 77.82 0 0 0 14.8 30.62c-1.18 2.64 -4.9 1.22 -6 1.84 -4.98 5.32 -9.84 2.7 -10.68 2.26s-1.48 -0.4 -1.88 0.28c-4.48 7.2 -12.76 6.24 -13.62 6.44a4.38 4.38 0 0 0 -2 1.5c-4 4.38 -11.48 3.66 -12.36 3.64a1.66 1.66 0 0 0 -1.78 1.18 11.06 11.06 0 0 1 -7.76 6.24 1.64 1.64 0 0 0 -1.62 1.14c0.78 4.46 -2.98 7.66 -4.56 8.5 -0.68 0.34 -1.48 0.8 -1.36 1.58 0.68 4.6 -3.64 7.22 -5.54 9.36a5.16 5.16 0 0 0 -0.52 2.2 10 10 0 0 1 -3.5 10.3 0.4 0.4 0 0 0 -0.14 0.54c2.82 4.76 2.78 9.82 1.54 11.52a0.3 0.3 0 0 0 0.22 0.5c9.88 8.12 8.38 14.22 12.3 18.64a22.44 22.44 0 0 0 11.32 5.9c57.3 25.52 154.4 28 211.72 2.74 1.44 -0.64 13.1 -4.72 16.46 -7.38 1.74 -1.4 7.82 -9.76 10.42 -10.4a0.36 0.36 0 0 0 0.24 -0.42 10.48 10.48 0 0 1 4.72 -10.42c0.82 -0.56 0.7 -1.32 0.16 -2a8.52 8.52 0 0 1 -0.92 -9.18 0.44 0.44 0 0 0 -0.26 -0.62 8.58 8.58 0 0 1 -5.4 -8.94 0.42 0.42 0 0 0 -0.42 -0.42c-4.62 -0.4 -9.84 -5.48 -9.32 -10.36a0.46 0.46 0 0 0 -0.32 -0.44 14.64 14.64 0 0 1 -10.54 -11.56c-0.12 -0.62 -0.88 -0.54 -1.46 -0.48a16.22 16.22 0 0 1 -15.72 -8.9 0.48 0.48 0 0 0 -0.52 -0.2 9.86 9.86 0 0 1 -10.94 -4c-1.14 -1.02 -2.48 0 -3.74 0.22 -6.94 1.54 -11.06 -3.6 -11.68 -4a2.76 2.76 0 0 0 -2 0c-4 1.02 -9.44 -1.3 -12 -3.68a0.38 0.38 0 0 0 -0.4 -0.12c-5.86 2.3 -14.86 -2.46 -18.8 -7.26 1.28 -2.24 8.5 -14.58 10.76 -25.6 7.56 0 122.1 -0.76 123.02 -0.82 0.36 -0.12 0.38 -0.68 -0.02 -0.68zM226.22 37.48c1.36 -3.06 4 -3.4 4.7 -5.28a10.68 10.68 0 0 0 0.1 -4.22c0.34 -0.56 0.8 -0.78 1.04 -0.2a16.84 16.84 0 0 1 0.6 5.64 0.32 0.32 0 0 0 0.62 0 17.08 17.08 0 0 0 -0.18 -4.16c0.26 -0.28 0.76 -0.66 1.04 -0.38a1.24 1.24 0 0 1 0.22 0.66 13.08 13.08 0 0 1 0 4.78c0 0.3 0.44 0.34 0.52 0a8.6 8.6 0 0 0 0.2 -3.68c0.16 -0.28 0.74 -0.4 0.86 -0.12 1.06 2.26 -0.66 6 -1.06 6.92s-0.7 1.42 -0.3 2.16c0 0 28.4 19.06 31.2 21.46 9.8 8.38 16 15.76 12.72 28.54a37.04 37.04 0 0 1 -5.46 11.32c-2.4 3.6 -17.66 24.18 -23 30.76a89.36 89.36 0 0 0 -17.84 -28.38c4 -2.32 14.22 -6.62 21.62 -14.12 2.5 -2.52 2.34 -4.26 0.52 -6.68 -5.04 -6.64 -18 -20.7 -25.7 -37.74 -0.02 -0.24 -3.94 -3.84 -2.42 -7.28zm3.88 55.14c1.4 -0.6 2.8 -1.2 4.18 -1.86 2 -0.6 9.16 -3.44 11.16 -10.34a18.52 18.52 0 0 0 0.58 -6.88c8.3 10.68 10.18 11.14 8.18 14 -3.4 4.88 -15.76 11.5 -22.46 15.48a7.22 7.22 0 0 0 -5.8 0c-1.62 -0.52 -3.28 -1 -4.86 -1.62a13.62 13.62 0 0 1 -3.26 -4 13.16 13.16 0 0 0 12.28 -4.78zm-33.88 4c0.28 -0.22 0 -0.74 -0.4 -0.52l-1.04 0.76 0 -4.56a19.58 19.58 0 0 0 4 0.88c0.3 0 0.38 -0.46 0 -0.52 -3.84 -0.54 -13.24 -3.08 -14.34 -16.22a3.58 3.58 0 0 0 -1.3 -0.44 4.28 4.28 0 0 1 0 -8.46 31.26 31.26 0 0 1 1 -8.72 11.62 11.62 0 0 1 4 -4.8 21.1 21.1 0 0 1 10 -3.34c8.64 14.68 20.76 15.7 22 15.78 -1.18 1.46 -0.1 1.84 -0.1 1.88a4.34 4.34 0 0 1 2.72 6.96c-1.04 1.3 -2.76 0 -3.9 0.98a0.38 0.38 0 0 0 0.16 0.64c1.72 10.76 -5.34 13.22 -6.5 13.56 -0.26 0 -0.14 0.46 0.12 0.4a11.36 11.36 0 0 0 2 -0.66c-0.72 3 -0.42 6 2.62 6.98a17.68 17.68 0 0 0 3.3 4.8 37.78 37.78 0 0 0 5.14 2c4.14 22.32 -2.8 26.64 -3.32 27.04 -8.14 6.72 -18.2 1.38 -19.32 0.82 -2 -1.52 -11.04 -8 -17.68 -28 1.28 -0.68 10.32 -6.74 10.84 -7.14zm-36.76 88.42a9.26 9.26 0 0 0 3.28 -6.32 0.32 0.32 0 0 0 -0.18 -0.4c-12.86 -4 -44.86 -15.2 -53.16 -25.76 -3.58 -4.56 -2.6 -11.22 -0.12 -16.16a19.26 19.26 0 0 1 5.36 -6.4A177.12 177.12 0 0 1 137 117.02 150.54 150.54 0 0 1 175.22 106c5.14 11.82 4.34 26.26 4 29.38 -1.32 9.58 -6.52 7.84 -10.98 6 1.1 -0.34 2.18 -0.72 3.26 -1.12 0.3 -0.12 0.18 -0.58 -0.14 -0.48 -19.42 6.46 -32.52 3.88 -32.58 4a23.76 23.76 0 0 0 -4.2 -2c-0.28 0 -0.4 0.36 -0.12 0.46a22.9 22.9 0 0 1 7.34 4.62c2.24 2 27.72 26.38 29.2 27.58 0 0 0.24 0.16 0.38 0.12 1.62 -0.46 5.26 -1.52 7.16 1.1 0 0 -15.52 7.4 -22.98 14 -0.54 -2.78 1.72 -2.64 3.9 -4.62zm13.38 -32c-1.74 13.14 0.84 20.3 0.86 20.38a12 12 0 0 0 -2.36 0.58c-1.08 -1.24 -26.36 -25.46 -28.76 -27.38 -0.82 -0.66 -1.68 -1.28 -2.56 -1.88A69.14 69.14 0 0 0 166.8 142a16.12 16.12 0 0 0 6.04 10.96zM148 262.82c-2.94 -5.54 -7.52 -17.52 -8.16 -26 -0.72 -9.32 -0.54 -18.88 2.74 -27.7A42.76 42.76 0 0 1 154 191.64c0.88 8 5.04 15.08 10 21.26 2.74 3.44 31.2 30.28 31.4 30.2s-2 40.66 -2 45.24a46.44 46.44 0 0 0 5.52 23.86 151.24 151.24 0 0 0 8.14 13.5c1.54 17.7 -3.44 32.48 -3.44 34.58 -2.88 2 -5.7 4.24 -8.56 6.32 -9.06 -19.1 -19.78 -40.84 -14.48 -63.8 0 0 2 1.34 3 1.86 0.42 0.22 0.78 -0.42 0.36 -0.64a67.78 67.78 0 0 1 -10.3 -8.6c-3.12 -3.14 -6 -6.52 -8.9 -9.88A128.34 128.34 0 0 1 148 262.82zm59.66 63.88c1.42 2 18 26.4 18.5 27.02 -8.44 -1.8 -15.32 1.52 -21.86 6 1.2 -4.26 5.28 -19.56 3.38 -33.02zm-113.28 32a28 28 0 0 0 -6.84 -11.36c1.84 1.18 23.9 14.96 48.32 15.8a0.26 0.26 0 0 0 0 -0.5 105.72 105.72 0 0 1 -51.16 -18.3c1.44 -2.54 0.56 -6.98 -0.72 -9.74 1.24 1.04 20.72 14.4 52.66 22.3a0.2404163056 0.2404163056 0 0 0 0.14 -0.46c-9.44 -2.58 -35.78 -10.54 -53.42 -23.68 2.86 -1.84 4.34 -6.74 3.3 -10.86a166 166 0 0 0 46.52 29.46c0.28 0.12 0.54 -0.3 0.24 -0.42 -29.12 -13.14 -43.62 -27.62 -46.64 -30.16 0.94 -1.72 6 -4 6 -8.72a8.56 8.56 0 0 1 0 -1.04 297.2 297.2 0 0 0 50.2 43.14c0.28 0.18 0.56 -0.28 0.26 -0.46 -7.32 -4.68 -32.26 -24.64 -50.18 -43.52a34 34 0 0 1 2.92 -2 6.92 6.92 0 0 0 2.76 -6.76c3.32 6 14.38 23.72 37.12 40 0.22 0.16 0.42 -0.2 0.22 -0.36 -11.64 -8.74 -28.34 -24.56 -36.88 -40.74 0.4 -0.14 7.08 -1.28 9.14 -7.18 14.72 31.36 35.12 46.54 39.44 49.88 0.22 0.16 0.54 -0.16 0.32 -0.34a151.02 151.02 0 0 1 -38.94 -49.86c0.38 0 9.24 0.98 14 -4.7a146.76 146.76 0 0 0 51.3 71.12c0.24 0.18 0.46 -0.2 0.24 -0.38 -36.7 -28.26 -49.08 -67.26 -50.7 -70.64 0 -0.14 10.5 -0.68 14 -7.32 1.14 3.06 2 6.2 3.12 9.28 8.12 24 18.68 44.68 38.16 61.86 0.2 0.18 0.52 -0.1 0.3 -0.3 -18.22 -16.52 -29.08 -37.88 -37.08 -60.46 -1.22 -3.42 -2.42 -6.84 -3.7 -10.24a9.48 9.48 0 0 0 10.98 -2.34c8.9 28.36 24.86 52 27.1 56a0.2418677324 0.2418677324 0 0 0 0.42 -0.24c-4 -7.14 -19.46 -31.36 -26.76 -56.14 0.7 -0.16 4.5 0.44 5.52 -1.78 1.76 2.28 14.84 19.16 24 25.76 -5.62 22.28 4.12 44.46 14.34 64.76 -6.7 4.78 -13.68 8.64 -21.86 7.12 -8.84 -1.66 -16.38 -8.6 -25.22 -10.68 -11.38 -2.66 -19.36 5.24 -30.2 6 -8.62 0.5 -19.7 -2.76 -22.72 -10.76zm15.88 11.36c12.82 2 19.38 -4.3 28.74 -5.86 14.62 -2.44 24.98 13.2 39.54 11.18 16 -2.2 26.28 -20.36 41.82 -21.22s27.86 18 43.44 16.92c10.48 -0.7 19.56 -13.64 31.62 -11.5 5.52 0.96 8.78 6 13.6 8.36a22.86 22.86 0 0 0 13.56 2.18c-57.5 26.34 -153.98 23.88 -212.3 -0.02zM264.96 280a125.52 125.52 0 0 0 -14.64 48.94c0 0.3 0.44 0.28 0.46 0 1.24 -13.52 8.62 -39.18 14.98 -49.02a13.46 13.46 0 0 0 13.16 3.52c-11.32 18.32 -23.66 56.82 -25 60 0 0.24 0.26 0.46 0.38 0.22 1.12 -2.62 16.34 -45.68 25.42 -60 6 6.56 12 4 12.62 3.84s1.84 -0.92 2.6 -0.28a10.46 10.46 0 0 0 10 4.66c-16 14.82 -44.74 58.62 -44.94 58.9s0.28 0.56 0.48 0.28c28 -41.78 45.78 -59.32 45.88 -59.4a16.58 16.58 0 0 0 16.1 8.94A202.18 202.18 0 0 0 277 344.32c-0.18 0.26 0.14 0.58 0.34 0.34 25.38 -30.52 44.98 -42.86 46 -43.9A16.42 16.42 0 0 0 333 312c-36 18.32 -52.64 40.28 -56 44.32 -0.18 0.22 0.14 0.54 0.34 0.32a185.16 185.16 0 0 1 56.66 -44.1c-0.22 4.86 4.34 9.5 9 10.56a290 290 0 0 0 -46.32 23.7 0.22 0.22 0 0 0 0.22 0.38 393.16 393.16 0 0 1 46.88 -23.74 9.5 9.5 0 0 0 5.04 8.7c-19.34 3.24 -52.92 20.3 -59.34 23.76 -0.3 0.16 0 0.64 0.28 0.48 10.32 -5.44 34.62 -17.2 59.52 -23.6 -2.64 4.38 1.58 9.64 1.58 9.68 -10.38 2.56 -45.28 16 -47.1 16.76 -0.34 0.14 -0.2 0.7 0.16 0.56 4.56 -1.82 33.84 -12.48 46.34 -16.42 -4 3.26 -5.22 6.76 -4.6 10.56 -5.44 2 -8.78 10.76 -17.58 13.72a24.26 24.26 0 0 1 -15.42 0.68c-6.7 -2.12 -8.62 -6 -13.04 -8.36a17.44 17.44 0 0 0 -14.68 0c-5.24 2.14 -9.74 5.68 -14.82 8.16 -11.04 5.4 -20.48 -2 -30.8 -8.52 0 -16.52 -2.7 -32.92 -5.78 -49.12 -2.9 -15.26 -2.9 -13 -2.52 -13.56 3.66 -5.4 13.76 -22 15.32 -24.58 6.98 7.82 15.4 8.54 18.62 7.66zm-8.38 -34c-2.84 11.7 -8.74 22.24 -15.02 32.4 -3.76 6 -11.64 18.68 -11.62 18.78a399.02 399.02 0 0 1 8.72 62.14 41.02 41.02 0 0 0 -11.58 -5.3c-22 -33.82 -32.28 -44.16 -32.74 -62.34 -0.12 -4.5 1.78 -46 1.68 -48.6 1.26 -1.28 20.86 -21.36 61.2 -26.64a68 68 0 0 1 -0.64 29.56z" stroke-width="1"></path></g></g></svg>