<svg xmlns="http://www.w3.org/2000/svg" viewBox="0 0 400 400" id="Work-From-Home-1--Streamline-Free-Illustrations.svg" height="400" width="400"><desc>Work From Home 1 Streamline Illustration: https://streamlinehq.com</desc><g><g fill="#100259"><path d="M191.12 69.14c0.46 -0.38 0.5 -1.44 0.58 -2.48a356.3 356.3 0 0 0 0.12 -35.8c-0.26 -2.66 -0.36 -2.76 -3.2 -2.98 -7.68 -0.66 -40.6 0 -42.12 1.4 -1.04 1 -0.52 36.26 0.42 39.44a0.96 0.96 0 0 0 0.76 0.54c2.54 0.42 41.26 1.68 43.44 -0.12zm-44.18 -39.42c1.7 -1.1 39.24 -1.3 43.22 -0.2 1.02 4.88 0.42 35.5 -0.16 38.52 -7.06 0.96 -37.88 0.32 -41.86 -0.1a355.44 355.44 0 0 1 -1.2 -38.22zm46.02 50.8a1.2 1.2 0 0 0 -0.78 -0.96c-3.44 -1.24 -42.7 -0.42 -44.26 1.08 -0.98 0.92 -0.62 36 0.4 39.44a0.96 0.96 0 0 0 0.76 0.54c3.28 0.54 38.16 1.38 42.76 0.18 0.68 -0.18 0.9 -0.44 1.02 -0.88 0.8 -3.02 1.14 -35.32 0.1 -39.4zm-1.56 38.86c-7.08 0.96 -37.74 0.36 -41.86 0 -0.94 -4.7 -1.7 -35.3 -1.2 -38.22 1.78 -1.2 39.56 -1.22 43.22 -0.22 0.94 4.44 0.44 35.06 -0.16 38.44zm53.4 -50.68c0.44 -0.36 0.48 -1.44 0.58 -2.48a356.28 356.28 0 0 0 0 -35.8c-0.26 -2.66 -0.38 -2.74 -3.18 -2.98 -7.7 -0.64 -40.6 0 -42.12 1.4 -1.04 0.98 -0.54 36.26 0.42 39.44a0.84 0.84 0 0 0 0.74 0.54c2.76 0.44 41.36 1.68 43.56 -0.12zm-44.18 -39.42c4 -1.22 39.64 -1.2 43.2 -0.2 0.94 4.48 0.52 35.02 -0.16 38.52 -7.08 0.96 -37.76 0.34 -41.86 0a352.2 352.2 0 0 1 -1.18 -38.32zM72.4 146.88c0.28 0.78 1.32 1.12 2.18 1.32 7.32 1.78 34.2 0.82 42.5 -0.76 0.88 -0.16 2.64 -0.48 3.12 -1.22 1.84 -2.96 1.1 -50.54 -1.1 -53.18s-40.86 -2.18 -44.26 0.42c-2.56 1.98 -3.16 51.34 -2.44 53.42zm3.3 -52.4c3.24 -2.26 41.38 -2.92 42.92 -1.06 2 2.4 1.76 49.18 0.38 52 -3.74 2 -40.4 3.26 -45.14 0.96 -0.64 -0.38 -0.04 -47.8 1.84 -51.9zm-52.18 66.58a1.8 1.8 0 0 0 1.44 0.8 110.14 110.14 0 0 0 21.58 -0.36 3.12 3.12 0 0 0 1.8 -0.66c1.08 -1.42 0.52 -21.32 -0.7 -22.52s-20.74 -1.26 -22.7 0a1.66 1.66 0 0 0 -0.56 1 127.84 127.84 0 0 0 -0.86 21.74zM47.18 160a79.56 79.56 0 0 1 -10.72 0.76 14.98 14.98 0 0 1 0.9 -1.58 12.1 12.1 0 0 1 10.18 -4.74 46.36 46.36 0 0 1 -0.36 5.56zM25.8 139.38c2.4 -0.94 20.82 -1.2 21.42 -0.62a7.86 7.86 0 0 1 0.32 1.86c-3.06 0.4 -3.54 6.18 -3.62 9.26a51.78 51.78 0 0 0 -4.12 -5.76 4 4 0 0 0 -3.8 -0.66c-1.46 0.64 -1.18 2.44 -0.98 3.86a24.18 24.18 0 0 0 2.16 5.22c-1.2 -0.96 -6 -4.84 -7.36 -5.08s-2.68 -0.16 -3.36 1.04c-2 3.52 2.82 9.36 5.68 12.22a52.66 52.66 0 0 1 -7.2 -0.4 139.48 139.48 0 0 1 0.86 -20.94z" stroke-width="1"></path><path d="M16.4 168.42c0.28 0.66 1.2 0.9 2 1.04 6 1.24 27.6 0.54 34.3 -0.54 0.76 -0.14 2.2 -0.36 2.62 -0.92 1.56 -2.12 0.9 -35.24 -0.92 -37.16 -1.54 -1.6 -32.94 -1.74 -35.88 0.18a2.34 2.34 0 0 0 -0.7 1.4c-1.54 6.04 -2.02 34.52 -1.42 36zm2.88 -36.3c2.76 -1.5 33.38 -2 34.6 -0.84s1.4 32.46 0.24 35.82c-3.86 1.24 -27.62 2.24 -36.3 0.72 -0.4 -1.36 -0.04 -31.42 1.46 -35.7zm301.78 -4.52a30 30 0 0 0 2.48 2.52 0.28 0.28 0 1 0 0.44 -0.34 23.58 23.58 0 0 0 -6.38 -7.78 0.2831960452 0.2831960452 0 1 0 -0.42 0.38 33.74 33.74 0 0 0 3.88 5.22zm-20.3 7.5a21.82 21.82 0 0 0 0.38 -9.3 0.28 0.28 0 0 0 -0.56 0 24 24 0 0 0 -0.5 3.52 22.18 22.18 0 0 0 0.12 5.74c-0.04 0.38 0.52 0.42 0.56 0.04zm-26.06 -2.26a22 22 0 0 0 2.26 -4.16 19.28 19.28 0 0 0 1.5 -4.52 0.28 0.28 0 0 0 -0.46 -0.16c-0.2 0.32 -0.82 1.24 -1.2 2a24.82 24.82 0 0 0 -2.56 6.74 0.28 0.28 0 1 0 0.46 0.1zM150.84 270.8c10.58 0.68 10.72 -10.76 0 -8.94 -6.84 0.36 -4.74 8.58 0 8.94zm0 -8.34c8.94 -0.46 8.22 7.32 0 6.82 -2.84 -0.14 -5.34 -5.92 0.08 -6.82zm38.68 2.14c10.62 0.68 10.72 -10.76 0 -8.94 -6.76 0.34 -4.72 8.58 0 8.94zm0 -8.34c8.94 -0.46 8.24 7.32 0 6.82 -2.8 -0.14 -5.32 -5.92 0.08 -6.82zm22.72 13.22c10.6 0.68 10.72 -10.76 0 -8.96 -6.78 0.38 -4.74 8.6 0 8.96zm0 -8.34c8.94 -0.46 8.24 7.32 0 6.82 -2.8 -0.14 -5.34 -5.96 0.08 -6.82zm6.18 -8.02c10.58 0.68 10.74 -10.76 0 -8.94 -6.78 0.36 -4.72 8.6 0 8.94zm0 -8.32c8.94 -0.46 8.22 7.3 0 6.82 -2.8 -0.16 -5.34 -5.94 0.08 -6.82zm-79.76 -16.48a12 12 0 0 0 8.16 -0.92c4 -2.16 4.18 -7.08 1.82 -10.92 -3.66 -6 -11.28 -5.38 -14 -1.08a10 10 0 0 0 -1.1 6.82 8.26 8.26 0 0 0 5.12 6.1zm-3.62 -6.32a8.94 8.94 0 0 1 0.78 -5.84 7.28 7.28 0 0 1 8.86 -2.52c4.12 2.32 6.3 10.12 1.44 12.5a10.76 10.76 0 0 1 -6.96 0.8 6.8 6.8 0 0 1 -4.12 -4.94z" stroke-width="1"></path><path d="M139.24 216.98c-0.24 -0.4 -1.52 -0.76 -1.42 0.46s2.18 0.76 1.42 -0.46zm4.46 0.04c0.44 -0.7 -1.3 -2 -1.48 -0.34 -0.06 0.54 0.7 1.52 1.48 0.34zm-4.98 4.98c-0.74 0.5 1.56 2.8 4.4 1.52a2.56 2.56 0 0 0 1.58 -2.16 0.303644529 0.303644529 0 1 0 -0.58 -0.18 5.26 5.26 0 0 1 -4.96 0.92 0.34 0.34 0 0 0 -0.44 -0.1zm24.14 10.28c1.82 0.76 10.44 0.54 11.86 -1.26 0.36 -0.44 0.12 -0.88 -0.14 -1.38 -0.88 -1.68 -5.78 -9.88 -7.54 -9.58s-3.52 5 -4 6.54 -1.64 5.06 -0.18 5.68zm2 -7.64c0.26 -0.78 1.38 -3.82 2.18 -4s6 9.4 6.12 9.6a26 26 0 0 1 -9.7 0.68 22.68 22.68 0 0 1 1.48 -6.28zm49.92 -96.44a0.78 0.78 0 0 0 -1.54 0 5.4 5.4 0 0 0 0.24 1.38 0.78 0.78 0 1 0 1.48 -0.44 4.98 4.98 0 0 1 -0.18 -0.94zm4.28 6.78a4.68 4.68 0 0 0 1.38 -0.94c0.32 -0.3 0.18 -0.64 -0.28 -0.56l-1.34 0.28a15.04 15.04 0 0 1 -0.5 -2.98c0 -0.76 -0.34 -3.2 -0.74 -3.36s-0.5 0.62 -0.62 1.3c-0.36 2.28 -0.06 7.1 2.1 6.26zm3.3 -7.32a0.78 0.78 0 0 0 1.54 0l0 -1.1a0.82 0.82 0 0 0 -0.84 -0.72 0.8 0.8 0 0 0 -0.72 0.84c-0.08 0.14 0.02 0.98 0.02 0.98zm0.78 8.58c-0.28 0 0 0 -1.5 1.18a3.76 3.76 0 0 1 -0.46 0.32c-1.48 0.86 -2.16 0.38 -2.3 0.82s1.04 1.14 2.34 0.82c2.12 -0.52 2.46 -2.98 1.92 -3.14zm-144.8 4.04c0.22 0.68 1.06 0.98 1.76 1.14 5.7 1.44 26.14 0.62 32.22 -0.58 0.76 -0.16 2 -0.42 2.46 -1.04 1.44 -2.38 0.74 -39.32 -0.92 -41.4s-30.94 -1.82 -33.62 0.26c-2 1.6 -2.46 39.98 -1.9 41.62zm32.2 -18a4.22 4.22 0 0 1 3.64 0.38 153.06 153.06 0 0 1 -0.62 16.36l-0.4 0.14a28 28 0 0 0 -8 -13.28 29.04 29.04 0 0 1 5.38 -3.66zm-7.34 -16c3.3 2.12 3.2 7.56 -2.56 7.62 -3.5 0 -5 -1.68 -5 -3.68a4.78 4.78 0 0 1 7.56 -4zm-19.72 16.8c5.86 -3.5 10.2 -3.7 16 0 5.18 3.34 10.86 10 12.22 16.42 -6 1.08 -29.04 2 -32 0.38 -0.26 -1.08 -0.36 -12.4 -0.36 -13.64a27.04 27.04 0 0 1 4.14 -3.22zm191.4 223.36a14.2 14.2 0 0 0 -2.74 0.48c-0.94 0.36 -1.76 0.94 -1.3 1.84a8.66 8.66 0 0 0 2.58 3.28c0.28 0.3 0.72 -0.14 0.44 -0.44s-0.32 -0.92 -1.44 -3.14a19.26 19.26 0 0 0 2.74 -1.46 0.32 0.32 0 0 0 -0.28 -0.56zm-4.06 -5.74a2 2 0 0 0 -1.8 3.16 0.32 0.32 0 0 0 0.62 0 2.94 2.94 0 0 1 1.44 -2.52c0.3 -0.22 0.24 -0.74 -0.26 -0.64zm-51.46 -198.86a0.96 0.96 0 0 0 -0.56 1.76 0.96 0.96 0 0 0 1.3 -0.26 0.98 0.98 0 0 0 -0.74 -1.5zm3.52 1.32a1.04 1.04 0 0 0 -0.94 1 0.94 0.94 0 0 0 1.6 0.68 0.96 0.96 0 0 0 -0.66 -1.68zm-0.06 -3.02a0.96 0.96 0 0 0 0.92 1.22 1.02 1.02 0 0 0 0.98 -1.14 0.98 0.98 0 0 0 -1.9 -0.08zm5.44 4.12a0.94 0.94 0 0 0 0.52 -1.74 0.96 0.96 0 0 0 -1.46 0.8 0.96 0.96 0 0 0 0.94 0.94zm1.74 -4.46a0.96 0.96 0 1 0 -0.62 -1.8 0.96 0.96 0 0 0 0.62 1.8z" stroke-width="1"></path><path d="M379.74 237.34a16.88 16.88 0 0 0 -11.56 0.66c8.26 -10.6 12.7 -21.2 12.7 -35.48 0 -8.1 -0.8 -15.72 -8.46 -18.26 -4.72 -1.58 -12.98 0.88 -17.46 3.16 0 -8.48 0.7 -120.26 -2.34 -128.34 -0.24 -0.7 -1.6 -1 -2.4 -1.2 -8.62 -2.1 -50 -5.86 -52 -4.12 -1.3 1.12 -0.86 9.58 -0.78 11.26 -2.7 0 -15.56 -0.18 -17.28 1.88 -2.66 3.14 -16.82 39.66 -16 43.72a1.08 1.08 0 0 0 0.32 0.6c8.48 8.26 64.56 6.76 67.12 1.62 1.66 -3 -9.6 -42.58 -11.6 -44.84s-18.66 -2.86 -21.84 -2.9a50.76 50.76 0 0 1 0.36 -10c0.2 -0.84 0.34 -0.76 0.66 -0.82 5.36 -0.98 49.1 3.34 52.38 5.4 1.48 4.56 1.5 33.66 2.16 128.54a30.86 30.86 0 0 0 -12.88 14.26c-2.64 -0.4 -6.24 2.6 -8.12 4.48a44.54 44.54 0 0 0 -6.64 8.7 81.52 81.52 0 0 0 -2.86 -17.1c-4.54 -12.22 -18.22 -34 -27.76 -24.8a30.5 30.5 0 0 0 -7.12 14.4 66.24 66.24 0 0 0 -11.42 -8.7 37.48 37.48 0 0 0 -15.1 -20.82 62 62 0 0 0 -9.44 -5.46 0.88 0.88 0 0 0 -0.1 -0.18c-2 -2.26 -7.14 -2.94 -10.2 -3.06 0.28 -2.3 -1.7 -12.3 -2.18 -14.74a3.26 3.26 0 0 0 1.7 -0.44c2 -0.12 9.84 -0.5 11.26 -1.76a2 2 0 0 0 0.48 -1.06 54.22 54.22 0 0 0 0.64 -6.22c0.98 -14.78 0.32 -14 0.78 -14 6.32 2.34 8.4 -3.76 0 -6.72l0 -0.6c2.46 -0.54 5.32 -1.68 4.18 -4a4.76 4.76 0 0 0 -4.12 -2c0 -5.08 1.34 -76.18 -1.86 -80 -3.58 -4.26 -112.96 -2.16 -116.7 1.8 -2.26 2.28 -0.86 102.72 1.74 112.28 0.14 0.5 0.68 0.6 1.2 0.68 8.66 1.4 60 2 72 2.12a34.7 34.7 0 0 0 0.98 3.82 18.82 18.82 0 0 0 4 6.14 9.7 9.7 0 0 0 5.12 1.74c-0.6 1.36 -1.76 3.88 -2.36 5.14a63.64 63.64 0 0 0 -16 7.24c-13.44 9.26 -23.38 26.5 -30.94 40.64a69.26 69.26 0 0 0 -3.66 8.66c-8.32 -0.22 -42.52 0.98 -43.42 2 -0.46 0.44 0 1.36 0.12 2.18 1.56 5.78 7.38 24.62 9.78 31.38 -3.62 0.58 -7.24 1.32 -10.86 2a6.58 6.58 0 0 0 -0.34 -0.78 0.94 0.94 0 1 0 -1.7 0.8 2.24 2.24 0 0 1 0.1 0.26c-4.28 0.58 -6.82 0.52 -16.26 1.86a0.94 0.94 0 0 0 -1.84 0.26c-5.48 0.82 -10.38 1.68 -16.2 2.76a6.88 6.88 0 0 0 -0.28 -0.74 0.96 0.96 0 0 0 -1.24 -0.5 0.94 0.94 0 0 0 -0.5 1.24c0 0.12 0 0.22 0.14 0.34 -4.96 0.92 -10 1.88 -14.86 2.78l0 -0.84a1 1 0 0 0 -1.04 -0.84 0.94 0.94 0 0 0 -0.84 1.04 8 8 0 0 1 0 0.98c-2.46 0.44 -4.94 0.84 -7.42 1.24a0.94 0.94 0 0 0 -1.82 0.28c-16.44 2.54 -13 1.72 -17.6 -7.44a12.54 12.54 0 0 0 -3.84 -5.36 2.38 2.38 0 0 0 -3.28 0.92c-1.28 1.8 -0.38 7.86 0 10.18s2.42 13.08 3.82 14.48c0.52 0.52 2.22 0.56 3.74 0.64l0 0.46c-13.88 1.3 -31.48 6.2 -32.72 20.16 -0.92 10.46 7.56 14.6 17.78 16.82 -0.64 3.5 -9.2 49.2 -8.74 51.86 0.56 3.02 7.8 4.78 9.02 1.52 1.88 -5.1 8.74 -46.54 9.64 -52a139.86 139.86 0 0 0 30.72 -0.6c0.92 5.44 7.74 46.64 9.62 51.74 1.2 3.24 8.46 1.48 9 -1.52 0.48 -2.66 -8 -47.88 -8.82 -52.36 11.38 -3.4 22.98 -10.36 21.4 -22.18 14.56 -0.66 31.22 -2.46 45.62 -4.34a16.16 16.16 0 0 0 1.76 7.42c1.42 2.66 6.52 4.48 9.38 5.4 -0.52 2.78 -10.26 54.56 -9.76 57.38s7.8 4.76 9 1.52c2 -5.3 9.28 -49.76 10.42 -56.4 22.16 4.58 32.44 3.24 40.38 2.34 0.2 2.38 4 51.58 5.26 54 1.32 2.76 8.78 2.56 9.1 -0.88 0.5 -5.54 -4 -49 -4.42 -54.42a162.66 162.66 0 0 0 35.7 -8.72c2.4 9.14 8.5 32 9.02 33.86a28.88 28.88 0 0 0 -14 11.68 101.88 101.88 0 0 0 -10.28 5.3 36.44 36.44 0 0 0 -5.28 2.86 13.64 13.64 0 0 0 -4 3.88 2 2 0 0 0 0 1.64 8.3 8.3 0 0 0 2 2.6c3.66 3.18 5.52 1.68 12.48 11.62 3.56 5.06 4.86 11.52 9.32 16.98 3.14 3.84 4.7 8 12 6.14 4 -1 6.2 -2.74 11.66 -4.22 2.78 -0.74 5.64 -1.28 8.42 -2.12 17.24 -5.16 13.18 -3.76 24.98 -5.44 2 -0.3 4.14 -0.76 6.2 -1.08a104.28 104.28 0 0 1 10.86 -0.32 2.32 2.32 0 0 0 1.72 -2 13.18 13.18 0 0 0 0.14 -3.18 11.08 11.08 0 0 0 -1.72 -6.92c9.24 1.6 33.58 -0.32 35.62 -1.52a1.02 1.02 0 0 0 0.44 -0.44c1.2 -2.58 2.9 -25.66 2.92 -34.5a34 34 0 0 0 2 -0.38c1.4 -0.34 1.6 -6.88 0.72 -8.66a1.3 1.3 0 0 0 -0.8 -0.74c-5.72 -1.3 -21.38 -0.98 -27.54 -0.74a142.62 142.62 0 0 0 -2.42 -22.2 105.46 105.46 0 0 0 21.5 -7.46c12.82 -6.34 20.26 -8.84 28.84 -21.22 6.14 -8.8 3.04 -19.7 -7.1 -23.06zM319.52 68.32c2 2 11.34 38 11.18 43.56 -0.12 4.6 -56.82 6 -65 -1.58 0.1 -6.26 13.44 -40.26 15.42 -42.66s35.8 -2.12 38.4 0.68zm40.28 118.66c3.34 -1.1 8.8 -2.4 12.14 -1.28 6.92 2.3 7.4 9.56 7.4 16.82 0 15.08 -5.08 25.84 -14.22 36.86a48 48 0 0 0 -11.36 8.7 64.42 64.42 0 0 0 1.3 -22.88 20.78 20.78 0 0 0 -0.86 -4 84 84 0 0 1 5.16 -12.26c3.22 -6 4.52 -5.9 4 -6.4a0.28 0.28 0 0 0 -0.42 0 47.74 47.74 0 0 0 -9.5 16.4c-1.86 -4.96 -6.66 -13.86 -11.36 -16a29.52 29.52 0 0 1 17.72 -15.96zM333.68 208a13.32 13.32 0 0 1 6.38 -4c3.8 -0.6 12.72 13.28 13.46 21.48a61.62 61.62 0 0 1 -2 25.04 71.18 71.18 0 0 0 -5.58 6.9c-3.78 5.36 -5.8 6.44 -8.96 15.02 0.54 -21.24 2.22 -48.52 2.22 -49.42a0.3 0.3 0 0 0 -0.28 -0.42c-0.34 0 -0.34 0.42 -0.38 0.74 -0.54 5.1 -2.54 38.66 -2.94 51.68 -3.54 -17.06 -12 -23.5 -14.86 -27.64 -1.1 -13.78 3.06 -29.64 12.94 -39.38zm-40 15.34c2 5.5 5.58 13.32 10 17.1a27.1 27.1 0 0 0 -13.74 0.68c1.02 -3.58 3.2 -13.48 3.78 -17.84zm-6.5 22.66a2.62 2.62 0 0 1 0.38 -1.54c4 -5.28 25.58 -5.42 38 11.24a51.84 51.84 0 0 1 9.52 28.98c-5.54 -9.36 -24.74 -27.72 -37.12 -32a0.306757233 0.306757233 0 1 0 -0.2 0.58c14.58 5.34 37.5 30.18 37.2 35.24a22 22 0 0 0 -3.7 0.24 34 34 0 0 1 -5.18 -0.4c-5.48 -0.94 -9 -3.46 -17.34 -11.3a155.58 155.58 0 0 1 -16.3 -17.38c-1.9 -3.3 -5.32 -9.8 -5.26 -13.66zm2.4 -57.06a28.94 28.94 0 0 1 6.84 -14.2c8.28 -8 21.3 13.54 25.28 24.26a89.88 89.88 0 0 1 3 19.16 57.78 57.78 0 0 0 -5.26 26.86c-5.72 -8.64 -13.68 -27.42 -16.58 -42 -0.54 -2.58 -2.72 -16.2 -2.72 -17.78 0.24 -0.4 -0.6 -0.86 -0.64 0a145.1 145.1 0 0 0 3.86 26.2 145.2 145.2 0 0 0 12.76 30.78c4.32 8 5.18 4.92 -4.36 0.54a35.04 35.04 0 0 0 -6 -2 20.86 20.86 0 0 1 -2.96 -2.64c-7.9 -9.14 -15.14 -34.6 -13.22 -49.16zm-150.38 62c2.94 0.16 6.22 -0.66 7.44 -3.3l14.3 0.36a5.02 5.02 0 0 0 4.28 5.48 8.6 8.6 0 0 0 6.6 -1.9 4 4 0 0 0 1.34 -3.38l9.42 0.14c0.5 0.72 28.48 -2.54 30.98 -3.72 1.24 -0.58 0.88 -2.62 0.16 -3.78 0.24 0 0.12 0 0.4 0.46a2.38 2.38 0 0 0 0.82 1.04 21.72 21.72 0 0 0 10.14 -1.18c0.64 -0.44 0.56 -0.96 0.42 -1.78 17.76 -2.52 16.28 -2 26.36 -4.32 0.56 -0.12 -7 2.5 -11.5 4.92a28.7 28.7 0 0 0 -6 4.22c-4.56 4.38 -14.6 35.84 -22.62 37.36a108 108 0 0 1 -29.64 0.84 3.84 3.84 0 0 0 -0.84 -4.16 8.62 8.62 0 0 0 -6.2 -2.26c-3.48 0 -5.22 2.14 -4.6 4.92a194 194 0 0 1 -27.04 -6.38c-0.88 -2.52 -3.76 -20.52 -4.22 -23.58zm-0.32 -3.6 6 0.26a6.74 6.74 0 0 1 -5.54 1.88c-0.08 -0.22 -0.24 -1.1 -0.46 -2.14zm32.8 0.84a2.76 2.76 0 0 1 0 0.4 3.12 3.12 0 0 1 -1.58 2.36 8 8 0 0 1 -4.86 1.02 4 4 0 0 1 -3.16 -3.4 4.88 4.88 0 0 1 0 -0.54zm18.58 -14.76 -4.82 0.6c14.7 -19.68 6.36 -10.8 4.82 -0.6zm-5.78 2 6 -0.68c0.5 0.88 5.3 2.44 6.22 2.74a6.76 6.76 0 0 0 -0.44 1.04c-4.3 -0.32 -8.82 -0.62 -13.5 -0.78zM224.1 240a26.76 26.76 0 0 1 -8.38 1 130 130 0 0 1 -5.52 -15.24 18.66 18.66 0 0 1 8 -4.12c0.88 2.1 5.8 16.24 5.9 18.36zm-10.82 -0.54c-11.24 0.7 -14 1.1 -15.78 0.66 -0.12 -4.86 8.22 -7.38 13.06 -8.16 0.96 2.94 1.96 5.62 2.72 7.48zm-23.1 4.38c2.28 -0.32 20 -2.68 22.28 -2.14a2.84 2.84 0 0 1 0.38 1.58c-2.76 0.84 -29.46 4.4 -29.7 4.42a8 8 0 0 1 -0.4 -2.4l0 -0.16c1 -0.02 -2.74 0.1 7.44 -1.32zm-8.58 -4.76c4 0.16 8.18 0.38 14.4 0.88 0 0.54 0 1.04 0.56 1.44s2 -0.18 -6.84 1.48a36.24 36.24 0 0 0 -7.32 1.78c-1.2 -6.06 -1.26 -5.04 -0.8 -5.6zm-0.88 42.7c-10.3 -1.08 -9.6 -0.72 -9.62 -1.16a2.92 2.92 0 0 1 1.26 -2.74c2.24 -1.46 9.64 0.3 8.36 3.88zm70.2 -128.52c-0.54 0.42 -19.14 14.56 -21.88 16.28a57.12 57.12 0 0 0 -4.58 -6.18c2.24 -2.48 17.32 -12.86 17.32 -12.86 0.64 0 6.78 0.66 9.14 2.74zM211.36 156a56.16 56.16 0 0 1 7.52 -2.44c4 9.7 2.96 7.58 3.64 9.3a85.74 85.74 0 0 0 -8.52 4.42c-1.22 -2.9 -3.04 -8.22 -2.64 -11.28zm42 -59.88 0 2.52c-6 0.78 -6 2 -6 1.22 3.26 -1.86 5.36 -2.36 6.02 -3.86zm-7.84 15.52a5.74 5.74 0 0 0 -1.36 -0.9c-0.3 -0.16 0 0 0 -0.46a2.82 2.82 0 0 0 0 -1.12 7.64 7.64 0 0 0 1.52 0.24c-0.1 0.6 -0.12 1.44 -0.14 2.16zM239 100.9c-0.64 0.86 -1.4 1.74 -2 2.64a19.52 19.52 0 0 1 5.32 -9.22 22 22 0 0 0 2.44 -1.82c2.48 -2.86 -2 -5.78 -5.64 -2.52a16 16 0 0 0 -5.26 8.98c-0.52 2.66 0.26 2.34 -0.7 2.1a4 4 0 0 0 -2.72 0c-0.64 -1.88 -4.84 -1.86 -6.26 -0.84 -0.58 0.42 -0.18 0.34 -0.64 0a6.28 6.28 0 0 0 -5.3 0.9c-0.18 0.12 -0.82 0.92 -1.18 1.3a5.3 5.3 0 0 0 -2.3 0.4 3.18 3.18 0 0 0 -1.64 1.74l0 0.46a3.02 3.02 0 0 0 -1.08 0 5.54 5.54 0 0 0 -2.98 2.98 2.86 2.86 0 0 0 -0.26 2c-1.74 0.94 -3.56 2.3 -3.26 4.26a4.56 4.56 0 0 0 0.74 1.36c-0.5 0.36 -1.86 0.52 -1.58 3.56l-1.5 -0.12c-1.04 -5.26 -1.68 -37.88 -1.16 -38.24 2.38 -1.1 39.36 -1.24 43.18 -0.18a116.96 116.96 0 0 1 0.56 13.6 22.96 22.96 0 0 0 -6.76 6.58zm12.66 31a34.48 34.48 0 0 1 -7.52 1.14 2.2 2.2 0 0 0 0.84 -2.3 2.48 2.48 0 0 0 1.8 -1.42 2.64 2.64 0 0 0 0 -1.84c-0.12 -0.28 -0.24 0 0.38 -0.34a2.88 2.88 0 0 0 1.18 -4.18 2.42 2.42 0 0 0 0.36 -2.62 3.16 3.16 0 0 0 -1.44 -1.32 2.66 2.66 0 0 0 -0.36 -3.2c0 -1.72 0.16 -3.88 0.24 -6.3a12.16 12.16 0 0 1 5.88 1.58c-0.12 3.26 -0.56 17.76 -1.34 20.72zm-112.38 0c-2.68 -11.5 -4.32 -109.38 -2.6 -111.14C140 17.12 244.58 15.78 252 19.4a20.36 20.36 0 0 1 0.7 4c1.44 14.7 1.02 56 0.76 71.14 -0.94 -2.22 -3.9 -2 -6.14 -1.14a108 108 0 0 0 -0.66 -13.24 1.12 1.12 0 0 0 -0.78 -0.96c-3.5 -1.26 -42.7 -0.42 -44.26 1.06 -0.96 0.94 -0.62 36 0.42 39.46a0.86 0.86 0 0 0 0.74 0.52c0.56 0 1.86 0.18 2.3 0.2 0.34 0.62 0.88 0.74 1.18 1a1.4 1.4 0 0 0 -0.5 1.22 5.48 5.48 0 0 0 1.16 2.84c0.96 1.14 1.84 0.8 2.82 0.8 0.2 1.66 0.62 4.4 1.24 7.44 -14.32 0.02 -65.22 -0.74 -71.68 -1.98zm83.74 14a1.22 1.22 0 0 0 -0.8 -0.28 10 10 0 0 1 -4.92 -1.4 18 18 0 0 1 -3.74 -5.58 76.38 76.38 0 0 1 -2.92 -16.2c0.18 -2.48 2.68 -5.54 7.2 -6.48a18.16 18.16 0 0 1 10.54 1.3c2.66 1.06 6.34 5.3 7.82 7.6a0.46 0.46 0 0 0 0.62 0.12 10.24 10.24 0 0 1 2 -1 2.34 2.34 0 0 1 2.8 1.7c1.04 2.36 -2.86 6.3 -3.4 7.06a0.88 0.88 0 0 0 0 0.62 141.1 141.1 0 0 1 2.36 16.3c-0.66 0.38 -1.48 1 -8.3 6.12a78.7 78.7 0 0 0 -8.4 6.18c-0.74 -2.36 -2.62 -6.52 -3.58 -8.62 3.16 -7.08 3.2 -7.04 2.74 -7.5zm-49.7 54.8c8 -15.16 20.52 -37.36 37.32 -44.18a28.98 28.98 0 0 0 2.52 12.36 0.72 0.72 0 0 0 1.18 0 11.36 11.36 0 0 1 2.54 -1.64 12 12 0 0 0 1.88 4c-0.44 2.52 -8.46 35.52 -8 37.46a46.92 46.92 0 0 0 5.58 10.36c0.44 0.6 0.92 1.06 1.54 0.56a40.46 40.46 0 0 0 7.44 -10.42c0.12 -0.42 0.16 -0.14 -1.22 -37.24 0.66 -0.76 2 -2.36 2.62 -3.28 1.64 2.3 0.72 2 1.3 2.46s0.92 0.2 1.42 0c3.28 -1.88 20 -14.8 22.62 -17.3a58.74 58.74 0 0 1 9.3 5.32c13.14 8.4 16 23.1 17.38 38.58 0.92 10.88 -0.46 20.12 -8.5 27.04a43.56 43.56 0 0 1 -18.24 8.74c-4.36 1.08 -23.32 3.86 -26.92 4.36a154.28 154.28 0 0 0 -5.48 -14.58c6.54 -2.84 18.28 -7.02 24.96 -9.28a0.52 0.52 0 0 0 0.38 -0.54c-0.44 -5.6 -1.02 -20.22 1.14 -25.42 0.16 -0.36 -0.42 -0.6 -0.58 -0.24 -2.32 5.3 -2 19.52 -1.68 25.3 -6.86 2.2 -18.2 6 -24.8 8.86 -0.28 -0.6 -0.3 -0.88 -0.86 -0.94 -1.7 -0.14 -8.24 2.64 -9.14 4.34 -0.4 0.74 0.82 4.48 1.24 5.82 -4.16 0.36 -10 1.74 -12.76 4.94a31 31 0 0 1 -5.8 -2.3c0.88 -6 5.72 -15.54 8.76 -20.6 1.16 -2 2.62 -14.98 2.76 -17.12a49.48 49.48 0 0 0 0 -5.74 0.32 0.32 0 0 0 -0.62 0c-0.12 1.24 -0.34 2.68 -0.6 4.32 -0.12 0.9 -1.54 15.52 -3 18 -4.64 6.58 -13.22 18.62 -18.18 24.98 -0.18 -0.8 -6.14 -27.48 -7.3 -28.2a11.62 11.62 0 0 0 -3.68 -0.54 67.86 67.86 0 0 1 3.48 -8.24zm-46.9 11.08c6.26 -0.64 44 -2.54 46.46 -1.32 0.12 0.94 2.74 7.84 5 18.58 1.7 8 4 16 4.44 18.66 -1.04 0 -43.36 -1.68 -45.32 -2 -1.52 -3.42 -9.56 -29.92 -10.58 -33.92zM40 267.86c-1.2 -2 -5.32 -20.2 -3.58 -22.64 2.24 -3.12 6 8.2 7.24 10.42 2.4 4.7 6.56 3.62 16.74 2 0.36 1.06 0.48 2 1.4 2a0.96 0.96 0 0 0 0.88 -1.3c-0.16 -0.4 -0.28 -0.78 -0.38 -1.1 7.66 -1.22 6.84 -1.28 6.86 -0.96a0.94 0.94 0 1 0 1.88 0l0 -0.46c5.12 -0.92 10.22 -2 15.34 -2.86 0 0.28 0.14 0.54 0.24 0.8a0.9424436323 0.9424436323 0 0 0 1.78 -0.62c0 -0.18 0 -0.36 -0.16 -0.52 5.58 -1.04 10.42 -2 15.86 -2.72l0 1.36a0.9433981132 0.9433981132 0 0 0 1.88 -0.16l0 -1.46c10 -1.46 11.82 -1.28 16.64 -2l0.34 0.94a0.96 0.96 0 0 0 1.76 -0.72 5.54 5.54 0 0 1 -0.2 -0.52c3.62 -0.6 7.22 -1.36 10.86 -2 0.64 1.68 0.56 1.66 2.52 1.82 0.22 0 0.94 8.18 3.58 22.86 -22.48 1.24 -65.58 2 -86.8 -1.36 -1.28 -0.2 -3.28 -0.28 -3.08 -0.28 -2.3 -3.06 -6.52 -8.88 -8.32 -5.56a8 8 0 0 0 -0.78 5.18 17.2 17.2 0 0 1 -2.5 -0.14zm22.26 3.28a56.7 56.7 0 0 0 -6.88 2.18 37.46 37.46 0 0 1 -2.66 -3.32c2.08 0.2 3.38 0.58 9.5 1.14zM26.68 360c-0.44 1.2 -3.68 0.84 -5.3 -0.32 -1.26 -0.92 -1.68 3.26 7.24 -52.34a76.14 76.14 0 0 0 8.38 1.2c-5.86 29.96 -9.36 48.8 -10.32 51.46zm58.86 -3c0 0.9 0.26 1.2 -0.66 1.88 -1.58 1.14 -4.86 1.56 -5.32 0.34 -1 -2.68 -4.9 -23.68 -10.28 -51.32a74.86 74.86 0 0 0 8.26 -1.82c2.28 14.26 7.86 49.36 8 50.82zm-32 -58.44c-11.44 0 -35.8 -0.42 -41.56 -10.36 2.96 -11.62 19.22 -15.38 31.14 -16.6A102.16 102.16 0 0 0 46.8 283a7.66 7.66 0 0 0 3.72 4 9.56 9.56 0 0 0 8 -1.48c27.82 -2.88 17.24 -0.96 37.6 -1.66 -7.38 11.42 -28.76 14.62 -42.56 14.6zm18.22 -15.74c-0.5 0 -13.52 1.06 -14 1.34a8.46 8.46 0 0 1 -6.74 1.42 6.14 6.14 0 0 1 -2.86 -3.16c-1.22 -3.06 -6.34 -17.06 -3.5 -18.82 2.14 0.28 8.54 10.62 10.1 11.36a0.9 0.9 0 0 0 0.82 0 71.6 71.6 0 0 1 11.2 -3.36 621.04 621.04 0 0 0 74.72 -0.6 33.88 33.88 0 0 0 0.96 4.2 0.58 0.58 0 0 0 0.38 0.34c2 0.64 4.46 1.44 7.52 2.3 -52.88 6.54 -64.2 3.8 -78.58 4.88zm82.48 67.72c-0.44 1.2 -3.7 0.82 -5.3 -0.34 -1.24 -0.88 -1.86 4.28 8.12 -57.82 2.52 0.78 5.36 1.52 8.38 2.16 -6.82 34.86 -10.18 53.24 -11.18 55.9zm65.06 -0.5c-0.12 1.26 -3.34 1.76 -5.2 1.06 -1.48 -0.56 -0.76 3.78 -6.88 -54.16q4.2 -0.48 8.46 -1.08c2.32 32.96 3.9 51.32 3.64 54.14zm33.54 -63.28c2.66 -1.04 5.3 -2.16 7.86 -3.38l8.82 34.86a36.42 36.42 0 0 0 -7.02 2c-2.5 -8.92 -7.16 -24.94 -9.64 -33.58zm24.68 32.3a51.86 51.86 0 0 1 14.16 2.52 50 50 0 0 1 4.8 1.6 40.48 40.48 0 0 1 12.96 9.4c3.56 4.2 4.36 9.66 4 15.2 -0.26 3.34 -2.42 5.52 -5.04 7.64 -0.28 -2.26 -4 -4 -6.16 -4.34 -0.32 0 -0.36 0.12 0.5 -0.36a8.4 8.4 0 0 0 3.52 -3.76c0.28 -0.3 -0.18 -0.72 -0.44 -0.42 -2.18 1.5 -3.34 2.7 -6.28 4.54 -0.2 0 -0.16 0.48 -1.44 0.42a22.46 22.46 0 0 0 -5.44 -0.6 15.22 15.22 0 0 1 1.44 -14c3.44 -4.62 4.74 -2.94 4.74 -3.8 0 -1.34 -8.76 1.08 -8.66 11.76a12.9 12.9 0 0 0 1.72 6 20.7 20.7 0 0 0 -6.92 1.56c-0.46 -0.42 -2.38 0.58 -3.62 0a30.56 30.56 0 0 0 1.16 -11.04 11.54 11.54 0 0 0 -2.7 -6 15.4 15.4 0 0 0 -6 -4.2c-4.76 -1.72 -6.38 0.7 -9.2 1.6a2.26 2.26 0 0 1 -1.44 0c-1.8 -0.58 -6.66 -2 -7.72 -0.38 -0.82 1.22 0.38 3.02 1.16 4.38s1.04 1.44 -0.26 4.74a15.36 15.36 0 0 1 -1.52 3.12c-1.02 1.06 -4.44 1.84 -5.08 3.08 -1.3 2.4 3.64 4.82 4.56 6s2.52 3.36 3.38 4.28c3.26 3.56 11.24 4.38 15.38 3.06a12.3 12.3 0 0 0 5.24 -3.28c1.26 1.06 1.02 2.72 0.68 4.38 -0.2 0.96 -1.22 1.52 -2 2a14 14 0 0 1 -8.66 2.2 14 14 0 0 1 -2.3 -0.98 18.9 18.9 0 0 1 -5.64 -2.36 18.42 18.42 0 0 0 -5.22 -3.7c-9.46 -2.42 -11.26 -13.78 -8.28 -22.7 3.68 -11.32 18.42 -17.88 30.64 -17.66zM271 360.52c2 -3.44 0.86 -8 -1.3 -11.2 -2.6 -4 -4.92 -2.6 -6.7 -3.52 -2.52 -1.32 -2.9 -2.8 -3.9 -3.52a5.48 5.48 0 0 0 -1.56 -0.7 9.88 9.88 0 0 0 0.86 -3.22c-0.14 -1.36 -2.34 -4.28 -2 -4.94 1.06 -0.5 5 0.6 6.12 0.98 2.14 0.72 4.6 -1.3 6.48 -2 3.1 -1.02 7.44 1.6 9.54 4 3.42 4 2.66 8.9 1.64 14a11.54 11.54 0 0 1 -9.16 10.02zm-3.88 -6.2c0.16 0.28 -0.22 0.66 -0.56 0.3a2.22 2.22 0 0 1 -0.62 -2 1.84 1.84 0 0 1 1.26 -1.58c0.54 -0.18 0.6 0.32 0.4 0.48a3.08 3.08 0 0 0 -0.46 2.7zm58.84 11c0 1.12 0.24 2.88 -0.5 3.6 -0.38 0.38 -5.62 -0.44 -10.98 0.34 -2 0.3 -4.14 0.76 -6.2 1.04 -11.54 1.64 -8 0.3 -25.22 5.5 -2.76 0.82 -5.58 1.36 -8.36 2.1 -5.4 1.46 -7.74 3.24 -11.64 4.2 -6.22 1.56 -7.3 -1.84 -10.4 -5.6 -4.36 -5.32 -5.62 -11.68 -9.28 -16.86 -7.2 -10.18 -9.08 -8.66 -12.78 -11.82a6.98 6.98 0 0 1 -1.76 -2.18 0.68 0.68 0 0 1 0 -0.7 16 16 0 0 1 3.4 -3.14 36 36 0 0 1 5.1 -2.82c2.76 -1.5 6.46 -3.8 8.86 -4.84 -4.54 9.6 -2.92 24 8.4 26.72a6.84 6.84 0 0 1 2 1.08 25.66 25.66 0 0 0 4.6 3.38c1.36 0.6 2.9 0.92 4.26 1.42a8.24 8.24 0 0 0 7.4 0.5 16.96 16.96 0 0 0 6 -3.24 2.9 2.9 0 0 0 0.74 -1.38c0.36 -2 0.52 -3.86 -1 -5.1a13.48 13.48 0 0 0 2.4 -4.44 4.24 4.24 0 0 0 2.18 0.2c-3 2.46 -2.12 4.58 1.74 5.56a31 31 0 0 0 11.38 0.66c3.76 -0.34 8.82 -0.12 11.86 -2.44s6.12 -5.02 6.5 -9.16 -0.22 -5.1 0.38 -3.8c1.18 2.52 2.1 5.18 3.46 7.56 2.32 4 6.64 6.32 7.26 11.04a19 19 0 0 1 0.24 2.52zm34.5 -9.66s0 -0.12 0 0c0.4 0.74 -29.16 3.16 -36.2 1 -0.3 -0.36 -0.6 -0.72 -0.94 -1.08 -2 -6.66 -4.62 -24.74 -5.42 -30.84A366.24 366.24 0 0 0 364 322c-0.22 5.68 -2.42 30.54 -3.52 33.56zm6 -42.48a12.68 12.68 0 0 1 0 7.66c-0.84 1.32 -47.32 3.02 -50.86 2.12a14.84 14.84 0 0 1 -1.06 -7.36s0.92 -0.42 1.88 -0.64c9.98 -2.32 49.08 -3.44 50.14 -1.88zm-28.72 -1.72c-5.38 0.22 -17.1 0.84 -22.16 2.14 -0.9 0.24 -2.16 0.6 -2.4 1.42 -0.6 1.9 0.1 7.62 1.44 9.06 0.42 0.48 1.62 0.52 2.5 0.58 0.74 7.42 2.46 21.16 4 28.48 -3.3 -3.88 -4 -8.24 -6.74 -12.54a18.54 18.54 0 0 0 -4 -8.98 42 42 0 0 0 -13.52 -9.86c-1.52 -0.62 -3.1 -1.1 -4.94 -1.66a46 46 0 0 0 -21.12 -2.14c-0.5 -2 -7 -25.62 -9.58 -34.9 12.86 -6.36 20.66 -17.86 25.48 -31.38a54.34 54.34 0 0 0 4.38 8.82c2.2 3.6 21.86 23.8 29.58 27.24a24.14 24.14 0 0 0 10.46 1.8 32 32 0 0 0 3.68 -0.32c0.44 1.88 1.56 7.2 3.04 22.14zm47.78 -51.82c-8.4 12.12 -15.86 14.58 -28.24 20.72a106.18 106.18 0 0 1 -20.16 7.28c1.9 -4.66 7.28 -10.48 10.68 -14a310.64 310.64 0 0 1 26.56 -24 0.3 0.3 0 0 0 -0.36 -0.48c-19.22 13.04 -34 30 -37.5 36.52a48.14 48.14 0 0 0 -0.42 -7.32 42.2 42.2 0 0 1 3.78 -10.52 65.86 65.86 0 0 1 6.94 -9.84c6.98 -9.66 20.98 -23.02 32.38 -19.2 9.3 3.02 11.94 12.8 6.44 20.74z" stroke-width="1"></path><path d="M97.18 256.9a0.96 0.96 0 0 0 0.86 -1.36c-0.38 -0.84 -0.58 -1.64 -1.12 -2.62a0.96 0.96 0 0 0 -1.28 -0.38 0.94 0.94 0 0 0 -0.38 1.28c0.88 1.62 0.86 3.08 1.92 3.08zm-17.8 2.14a0.96 0.96 0 0 0 0.98 0.9 0.94 0.94 0 0 0 0.9 -0.98c0 -2 0.44 -3.6 -1.06 -3.7a0.96 0.96 0 0 0 -0.86 1.04c0.1 0.96 0 1.7 0.04 2.74zm35.12 -5.22a0.9433981132 0.9433981132 0 0 0 1.88 -0.16c0 -0.94 0 -1.78 -0.16 -2.86a0.96 0.96 0 0 0 -1.88 0.3c0.14 0.9 0.08 1.74 0.16 2.72z" stroke-width="1"></path></g></g></svg>