<svg xmlns="http://www.w3.org/2000/svg" viewBox="0 0 400 400" id="Order-Completed-2--Streamline-Free-Illustrations.svg" height="400" width="400"><desc>Order Completed 2 Streamline Illustration: https://streamlinehq.com</desc><g><g fill="#100259" fill-rule="evenodd"><path d="M110.12 155.7a3.04 3.04 0 0 0 2.34 0.1 0.34 0.34 0 0 0 0 -0.66 8.58 8.58 0 0 1 -3.8 -3.2 0.34 0.34 0 0 0 -0.66 0.06 3.54 3.54 0 0 0 2.12 3.7zm150.5 -48.82c-18 2.34 -29.84 4 -29.84 4 -0.32 0 -0.2 0.32 -0.2 0.64l0 88.88c0 0.16 0.5 0.3 0.68 0.32 14.82 1.68 36.66 3.36 59.04 4.86 15.2 1 88.7 4.96 88.7 4.96a0.82 0.82 0 0 0 0.56 -0.22 0.74 0.74 0 0 0 0.26 -0.56c0.12 -7.5 1.56 -114.42 1.56 -114.42a0.84 0.84 0 0 0 -0.26 -0.6 0.86 0.86 0 0 0 -0.62 -0.24c-23.62 1.48 -50.56 4.12 -75.02 6.88 -16.72 1.94 -32.3 3.86 -44.86 5.5zm119.1 -10.6 -1.48 112.7c-3.88 -0.16 -72.66 -3.56 -87.88 -4.46 -22.22 -1.32 -44 -2.82 -58.78 -4.36l0 -88c3.28 -0.46 73.08 -9.1 89.06 -10.76 19.82 -2.08 40.44 -3.96 59.08 -5.12z" stroke-width="1"></path><path d="M263.12 153.74a38.24 38.24 0 0 0 11.02 27.02 37.76 37.76 0 0 0 53.86 0 38.2 38.2 0 0 0 7.9 -42 14.26 14.26 0 1 0 -14 -16.7 38 38 0 0 0 -58.76 31.66zm69.04 -32.26 2.38 5.4 4.88 -12.32 2.72 1.7 -5.64 15.24 -4 0.38 -3.36 -7.34zm-31.1 -4.88a35.86 35.86 0 0 1 20.66 6.62l0 1.32a14.24 14.24 0 0 0 12.74 14.16 37.06 37.06 0 0 1 -7.56 40.92 36.22 36.22 0 0 1 -51.54 0 37.08 37.08 0 0 1 -0.18 -51.9 36.22 36.22 0 0 1 25.88 -11.12z" stroke-width="1"></path><path d="m279.66 139.16 6.7 0.18c0.12 0.94 4 26.66 4 26.66a0.82 0.82 0 0 0 0.8 0.7l23.24 -0.5a0.34 0.34 0 0 0 0 -0.66s-11.62 -0.38 -14 -0.42l-8.6 0c-0.12 -0.82 -0.36 -2.32 -0.66 -4.22 2 0 21.28 -0.48 21.28 -0.48a0.8 0.8 0 0 0 0.78 -0.7l2 -14.16a0.84 0.84 0 0 0 -0.2 -0.64 0.82 0.82 0 0 0 -0.62 -0.28s-24 0.54 -25.82 0.62c-1.22 -6.78 -1.14 -6.96 -1.78 -6.96l-7.2 0.26a0.34 0.34 0 1 0 0 0.68zm25.86 19.18 0 0.76c-0.64 0 -6.18 0.4 -8.16 0.56a35.54 35.54 0 0 0 -0.52 -6.14l8.9 -0.2a30.16 30.16 0 0 0 -0.22 5.02zm2.28 -11 0 -1.14 5.74 0 -0.8 5.8 -1.68 0c-0.96 0 -2.16 -0.1 -3.48 -0.12a35.66 35.66 0 0 0 0.22 -4.54zm-0.38 6c1.4 -0.1 2.66 -0.22 3.66 -0.32l1.54 -0.16 -0.82 6 -5.38 0.28c0 -0.18 0 -0.38 0.14 -0.6a34.38 34.38 0 0 0 0.86 -5.3zm-0.52 -7.04a36.74 36.74 0 0 0 -0.98 5.52l-9.3 0.26a39.16 39.16 0 0 0 -1.3 -6c4.3 0.06 7.28 0.1 11.58 0.12zm-10.34 13.52 -5.42 0.4c-0.34 -2 -0.72 -4.38 -1.12 -6.8l2.18 0.12 3 0a36.96 36.96 0 0 0 1.36 6.18zm-2 -13.7a39.64 39.64 0 0 0 0.5 6l-2.8 0.24 -2.3 0.22c-0.16 -1.02 -0.92 -5.48 -1.12 -6.64 1 0.06 3.16 0.06 5.64 0.06z" stroke-width="1"></path><path d="M389.74 86.38a0.84 0.84 0 0 0 -0.62 -0.22c-26.28 1.7 -56.26 4.72 -83.48 7.88 -18.62 2.16 -83.14 10.86 -83.14 10.86 -0.32 0 -0.16 0.32 -0.16 0.64l0 101.86c0 0.16 0.52 0.3 0.7 0.32 16.26 1.88 40.16 3.78 64.72 5.46 0.52 2 2.7 10 3.76 16.16a28 28 0 0 1 0.54 5.68 1.78 1.78 0 0 1 -0.24 0.98c-2 2 -13.38 5.5 -13.72 5.64a0.76 0.76 0 0 0 -0.54 0.8l0.32 3.88a0.74 0.74 0 0 0 0.68 0.7c46.78 6.24 44 6.14 44.42 6a94.34 94.34 0 0 0 11.84 -6 16.7 16.7 0 0 0 3.22 -2.58 3.16 3.16 0 0 0 0.94 -2 54.76 54.76 0 0 0 -2 -8.4c-2 -6.74 -4.78 -15.4 -5.66 -18l56.12 2.98a0.72 0.72 0 0 0 0.58 -0.22 0.72 0.72 0 0 0 0.24 -0.56c0.14 -8.6 1.74 -131.12 1.74 -131.12a0.88 0.88 0 0 0 -0.26 -0.74zm-88.98 162 -21.38 -2.88 -0.22 -2.62 0.18 0c1.66 0.24 14.1 1.84 16.58 2.12 5.38 0.6 24.7 2.54 26 2.66a7.86 7.86 0 0 0 0 3.68zm35.04 -14.12a50 50 0 0 1 1.76 8 1.66 1.66 0 0 1 -0.58 0.98 16 16 0 0 1 -2.98 2.28 89.8 89.8 0 0 1 -10.66 5.42 8.36 8.36 0 0 0 -0.28 -3.56c1.04 -0.44 4.62 -2 7.82 -3.54a34.3 34.3 0 0 0 5.22 -2.94 0.32 0.32 0 0 0 0 -0.46 0.34 0.34 0 0 0 -0.48 0 25.66 25.66 0 0 1 -3.9 2c-3.66 1.58 -8.42 3.36 -9.4 3.72 -0.88 0 -39.34 -3.8 -41.24 -4 12 -4.18 12 -5.34 12.18 -7.14a28.6 28.6 0 0 0 -0.7 -6c-1.16 -6 -3.46 -13.6 -4.16 -16l42.9 2.98 -0.7 0c0.7 2.22 3.4 11.3 5.2 18.3zm50.9 -17.02c-4.14 -0.18 -80.96 -4 -97.9 -5.14 -24.74 -1.54 -48.98 -3.26 -65.46 -5.04l0 -100.94c3.5 -0.5 81.36 -10.44 99.14 -12.36 22 -2.38 45.1 -4.56 65.86 -5.88z" stroke-width="1"></path><path d="M322.54 236.44c-1.08 0 -15.62 -0.72 -16.96 -0.74s-8.5 0 -8.5 0a0.34 0.34 0 0 0 -0.36 0.32 0.34 0.34 0 0 0 0.32 0.34c0.86 0 11.9 1.38 25.44 1.56l8.5 0a0.3 0.3 0 0 0 0.34 -0.3 0.34 0.34 0 0 0 -0.32 -0.36s-6.5 -0.66 -8.46 -0.82zM358.46 161l2.18 4 1.74 -1.26 -2.1 -3.62 3.26 -1.58 -8.72 -7.7 0.5 11.68 3.14 -1.52zm-9.76 11.92a0.32 0.32 0 0 0 0.16 0.44 24.9 24.9 0 0 0 2.16 1.4c0.84 0.48 2.76 1.34 3.66 1.7 0.54 0.22 3.64 1.36 3.88 0.84a0.32 0.32 0 0 0 -0.16 -0.44l-0.86 -0.6a26.72 26.72 0 0 0 -7.14 -3.2c-0.78 -0.22 -1.26 -0.3 -1.26 -0.3a0.34 0.34 0 0 0 -0.44 0.16zm-7.84 17.4a12.44 12.44 0 0 0 -4.72 -4.44 0.3252691193 0.3252691193 0 1 0 -0.46 0.46 6.66 6.66 0 0 0 0.46 0.82 12.54 12.54 0 0 0 4.62 4.28 0.3 0.3 0 0 0 0.46 0 0.34 0.34 0 0 0 0 -0.46zm-84.32 -25.3a0.36 0.36 0 0 0 -0.46 -0.12 40.84 40.84 0 0 0 -11.5 6.58 0.36 0.36 0 0 0 -0.12 0.46 0.34 0.34 0 0 0 0.46 0.12 42.16 42.16 0 0 0 11.5 -6.58 0.36 0.36 0 0 0 0.12 -0.46zm9.46 16.46a30.64 30.64 0 0 0 -5.34 4c-6.18 5.38 -4.58 5.5 -4.24 5.18 0 0 0.56 -0.32 1.42 -0.9a45.72 45.72 0 0 0 8.62 -7.76 0.3264965543 0.3264965543 0 0 0 -0.42 -0.5zm31.22 91A18.68 18.68 0 0 0 292 270a2.58 2.58 0 0 0 -0.4 -0.94 4.38 4.38 0 0 0 -1.32 -1.18 14.56 14.56 0 0 0 -5.72 -1.82 15.06 15.06 0 0 0 -7.4 0.94c-3.76 1.56 -12.98 7.22 -23.26 10.9a48 48 0 0 1 -16.52 3.24 113.6 113.6 0 0 0 -22.94 2.46c-9.82 2 -18.6 4.64 -21.74 6.58l-6.26 -9.12 0.18 0a23.56 23.56 0 0 0 4 -2 7.56 7.56 0 0 0 2.38 -2 0.46 0.46 0 0 0 0 -0.48 0.54 0.54 0 0 0 -0.32 -0.26 3.04 3.04 0 0 0 -0.68 -0.32 66.92 66.92 0 0 0 -7.4 0.12 195.1 195.1 0 0 0 -20.32 -38.3 174.92 174.92 0 0 0 -16 -20.14c2.32 -4.36 4.94 -9.54 9.38 -19.48a10.82 10.82 0 0 0 6 -8.46c2.4 0.92 4 -2.52 4.5 -5.28 3.08 1.2 8.64 3.32 11.78 4.32a8 8 0 0 0 1.58 0.4c2.14 0 10 -11.5 11.4 -14a5.36 5.36 0 0 0 0.76 -2.18 1.68 1.68 0 0 0 -0.78 -1.28c-3.08 -2.36 -16.68 -5.48 -21.86 -6.26 -4.48 -0.66 -4.34 -0.5 -7.08 2.98 -1.04 1.32 -2.18 2.88 -3.16 4.24a24.9 24.9 0 0 0 -5.38 0.78c-6.12 1.6 -8 3.8 -9.04 7.54a28.86 28.86 0 0 0 -1.18 9c-4.96 4.9 -8.64 8.78 -12.58 13.04a168.74 168.74 0 0 0 -33.54 -21.8l1.2 -8c6.88 0 16.38 -2 18.82 -8.46a58.84 58.84 0 0 0 2.56 -9.8c0.78 -4.38 1.1 -8.2 1.2 -9.52l3.88 -1.82a0.78 0.78 0 0 0 0.42 -0.92s-4.82 -18 -5.12 -19.24c2.5 -0.56 4.36 -1.08 4.36 -1.08 0 -32 -30 -38.7 -30 -38.7s9.48 -12 10.6 -19.76 -8.4 -10.36 -20.9 -7.02 -4.34 25.38 -4.34 25.38c-5.7 -1.26 -16.46 5.18 -16.46 5.18 -8 -41.7 -29.9 -24.2 -32 -11.86S59 90.78 59 90.78c-18.62 7.8 -25.16 70.72 -25.16 70.72 4.28 3.3 12.8 5.32 22 6.54a106.54 106.54 0 0 0 -38.2 49.24 112.98 112.98 0 0 0 -6.7 26.6 144.66 144.66 0 0 0 4 54.38 216.22 216.22 0 0 0 12 34.38 0.3269556545 0.3269556545 0 1 0 0.6 -0.26A220.8 220.8 0 0 1 16 298a145.28 145.28 0 0 1 -3.56 -54 112.88 112.88 0 0 1 6.7 -26.22 104.58 104.58 0 0 1 38.26 -48.72c32.46 4.56 76.74 28 105.86 69.46a195.28 195.28 0 0 1 20.62 38 130.82 130.82 0 0 1 -24 17.52 115.02 115.02 0 0 1 -13.44 6.56 88.42 88.42 0 0 1 -14.2 4.52c-3.6 -5.12 -20.98 -35.12 -21.12 -35.28a0.32 0.32 0 0 0 -0.44 -0.14 0.32 0.32 0 0 0 -0.14 0.46s0.8 1.76 2.16 4.54c4.6 9.38 12.16 22.86 18.94 30.82 -2 3.22 -5.48 10.4 -1.68 10.1 2.38 -0.18 5.36 -3.22 6 -3.6a139.4 139.4 0 0 0 30.92 24.66c8.12 4.52 17.02 7.82 25.72 8l0.12 0c11.66 -2 24 -8.56 35.44 -16.7 19.42 -13.82 36.38 -32 43.7 -39.38a38.24 38.24 0 0 1 3.86 -3.38 41.6 41.6 0 0 0 6.62 0.62 30.72 30.72 0 0 0 4.98 -0.32 19.5 19.5 0 0 0 8 -2.78 12.62 12.62 0 0 0 3.38 -3.02 4.92 4.92 0 0 0 1.08 -3.14 4.24 4.24 0 0 0 -0.6 -2 6.86 6.86 0 0 0 -1.96 -2.1zM66 169.08c14.32 1.1 27.58 0.78 27.58 0.78 -0.72 -4.76 -7.16 -27.52 -7.16 -27.52 -5.02 0.4 -9.42 -3.2 -6.32 -10.18s10.34 -2 10.34 -2a38.88 38.88 0 0 0 15.8 -10.16 12.4 12.4 0 0 0 2.8 4.48c1.28 1.3 7.6 0.18 12.24 -0.84 0.32 1.76 0.86 4.38 1.46 7.1 0.44 2.1 2.46 10.72 2.7 11.72l-3.76 1.54c-0.92 0.42 0 1.12 -1.72 10.5a58.34 58.34 0 0 1 -2.44 9.52 10 10 0 0 1 -5.52 5.36A35.68 35.68 0 0 1 99.74 172a0.54 0.54 0 0 0 -0.56 0.5l-2.1 7.78A143.84 143.84 0 0 0 66 169.08zm98 19.32c-1 0 0.46 -4.84 0.52 -5.14l2.58 1c-0.38 1.38 -1.54 4.12 -3.1 4.14zm3.06 -21.88c4.86 0.22 22.4 4.62 24.58 6.68 -0.42 2.1 -6.86 10.58 -9.32 13.24 -1.6 1.7 2 2.58 -22.34 -5.72 1.24 -1.88 3.14 -5.24 1.02 -6a1.72 1.72 0 0 0 -0.92 0 69.36 69.36 0 0 1 7.06 -8.2zm-4.14 16c-0.34 1.14 -0.86 4.5 -1.88 4s-0.6 -3.44 -0.14 -4.78zm-27.74 22.74 -2 -1.7c1.16 -1.04 8 -7.3 8.62 -8 2.64 -2.54 4.82 -4.68 4.82 -4.68a0.82 0.82 0 0 0 0.24 -0.66 28.88 28.88 0 0 1 0.8 -8.76 7.64 7.64 0 0 1 2.9 -4.56 24.54 24.54 0 0 1 9.44 -3.4l-1.1 1.56c-4 2.16 -8.96 9.3 -9.12 9.5a0.3264965543 0.3264965543 0 1 0 0.5 0.42c0.76 -0.72 9.08 -9.22 10.18 -8.78s-6 9.64 -5.34 10.18 4.18 -4.5 4.56 -5.08l0.66 0.26c-1.12 2.18 -2 5.16 0.16 6.38a1.78 1.78 0 0 0 1.72 0 2.94 2.94 0 0 0 0.46 1.22 9.82 9.82 0 0 1 -3.4 5.9c-4 3.54 -1.52 -2.32 -8.68 14.48 -0.64 1.48 -1.22 2.92 -1.72 4.16s-1.04 2.62 -1.32 3.36a170.54 170.54 0 0 0 -12.38 -11.8zm-4.58 108.5a2.54 2.54 0 0 1 -0.76 0.22 25.7 25.7 0 0 1 3.04 -7.42A91.12 91.12 0 0 0 147 302a110.82 110.82 0 0 0 13.52 -6.84 127.64 127.64 0 0 0 23.9 -18.26 60.72 60.72 0 0 1 7.36 0 11.82 11.82 0 0 1 -1.82 1.26 22.52 22.52 0 0 1 -3.82 1.78 2.52 2.52 0 0 0 -1.74 1.36c-0.46 1.18 0.48 2.22 -0.7 4 -1.6 2.34 -3.82 1.06 -6.62 1.72 -3.34 0.78 -2 6 -4 7.72s-6.12 -1.32 -8 1.48c-1.04 1.58 -0.52 4.16 -1.44 5.6s-5.7 -2.56 -8.52 0.32a38.88 38.88 0 0 0 -2.5 4.4c-1.38 2.12 -3.4 -0.48 -6 -0.62 -4.8 -0.24 -0.98 11.12 -7.42 6a11.4 11.4 0 0 0 -2 -1.36c-2.32 -1.3 -3.02 1.7 -6.6 3.2zm140 -26.42c-7.28 7.28 -24.16 25.46 -43.44 39.3 -11.22 8 -23.26 14.62 -34.72 16.64 -8.48 0 -17.18 -3.24 -25.12 -7.56A139.46 139.46 0 0 1 137 312.18a14 14 0 0 1 1.46 1.06c7.66 6 6.76 -5.78 8.36 -5.7 2.92 0.14 5.34 4.7 8.86 -2.86a5.18 5.18 0 0 1 0.86 -1.44c2.14 -2.2 6.68 2.6 8.7 -0.6 1.36 -2.18 0.42 -5.76 2 -6s3.02 0.56 4.7 0.3c5.32 -0.78 2.86 -8 5.5 -8.62a12.5 12.5 0 0 1 3.02 -0.26 6.18 6.18 0 0 0 2.3 -0.38 4.38 4.38 0 0 0 2 -1.7c1.34 -2 0.48 -3.48 0.74 -4.22a0.5 0.5 0 0 1 0.2 -0.24l6.54 9.9a0.34 0.34 0 0 0 0.24 0.16 0.4 0.4 0 0 0 0.3 0c2.78 -1.88 11.76 -4.78 21.82 -6.66a114.54 114.54 0 0 1 22.72 -2.48 48.82 48.82 0 0 0 17.02 -3.18c10.32 -3.62 19.6 -9.22 23.38 -10.76a13.5 13.5 0 0 1 6.62 -0.82 14.36 14.36 0 0 1 4.5 1.28 3.64 3.64 0 0 1 1.36 1 1.34 1.34 0 0 1 0.16 0.36l-0.4 0a8.38 8.38 0 0 0 -2 -0.64 22.72 22.72 0 0 0 -8.24 0 0.8089499366 0.8089499366 0 0 0 0.24 1.6 30.9 30.9 0 0 1 5.82 -0.26l1.04 0a8.86 8.86 0 0 1 1.2 0.28 4.44 4.44 0 0 1 2.6 1.68 23.52 23.52 0 0 0 -9.72 0.54l-0.24 0a0.84 0.84 0 0 0 0.38 1.62l0.28 0a34 34 0 0 1 6.22 -0.76l1.46 0a8.82 8.82 0 0 1 1.84 0.36 2.8 2.8 0 0 1 0.6 0.3 0.88 0.88 0 0 0 0.32 0.12 1.62 1.62 0 0 1 0.82 1.06l-0.26 0.12a6.8 6.8 0 0 1 -1.1 0.32 45.28 45.28 0 0 0 -10 3 36 36 0 0 0 -10.56 7.68zm26.76 -8.8a11 11 0 0 1 -3.08 2.74 18.86 18.86 0 0 1 -7.3 2.6 37.48 37.48 0 0 1 -4.78 0.52 52.72 52.72 0 0 1 -5.62 0c1.08 -0.76 2.12 -1.4 3.14 -2a48.1 48.1 0 0 1 12.98 -4.3c1.22 -0.4 1.66 -1.06 1.58 -1.84a3.22 3.22 0 0 0 -1.6 -2.38 4.56 4.56 0 0 0 -1.32 -2.52l0.24 -0.24a1.84 1.84 0 0 0 0.26 -0.48 22.82 22.82 0 0 1 3 1.64 8.74 8.74 0 0 1 2.88 2.86 3 3 0 0 1 -0.32 3.4z" stroke-width="1"></path><path d="M162.98 177.48a109.6 109.6 0 0 0 18 6c5.68 1.34 1.58 -1.08 -10 -4.7 -4.18 -1.3 -7.34 -2 -7.64 -2a0.34 0.34 0 1 0 -0.2 0.64zm8.84 -7.82 -4.18 -1 -1.78 1.9 4.62 1.22 1.34 -2.12zM294 170c-1.04 0 -1.88 1.16 -1.88 2.6s0.84 2.58 1.88 2.58 1.86 -1.16 1.86 -2.58 -0.76 -2.6 -1.86 -2.6zm18.16 0c-1.04 0 -1.88 1.16 -1.88 2.6s0.84 2.58 1.88 2.58 1.86 -1.16 1.86 -2.58 -0.84 -2.6 -1.86 -2.6zm-197.4 -32.42a1.3 1.3 0 0 0 1.32 -1.36c0 -0.92 0 -1.82 0.1 -2.74a1.46 1.46 0 0 0 -1.2 -1.58c-1.76 -0.24 -1.54 2.22 -1.54 4.2a1.46 1.46 0 0 0 1.32 1.48z" stroke-width="1"></path></g></g></svg>