<svg xmlns="http://www.w3.org/2000/svg" viewBox="43 168.5 487.9850170898437 210"><rect height="100%" width="100%" x="43" y="168.5" fill="rgba(30, 15, 114, 1)"/> <svg xmlns="http://www.w3.org/2000/svg" xmlns:xlink="http://www.w3.org/1999/xlink" version="1.1" x="113" y="238.5" viewBox="1.3999977111816406 1.3999977111816406 79.40000915527344 79.40000915527344" xml:space="preserve" height="70" width="70" preserveAspectRatio="xMinYMin" enable-background="new 0 0 82.2 82.2" style="overflow: visible;"><g id="Layer_3" style=""></g><circle class="st182" cx="41.1" cy="41.1" r="39.7" style="fill: #9119f6; fill-opacity: 1;"></circle><path class="st2" d="M27.5,3.8L27.5,3.8L27.5,3.8L27.5,3.8C11.3,9.7,0.3,25.7,1.5,43.7c2.7,8.8,13.4,11.1,13.4,11.1L70,34.7    c0,0,6.6-8.7,3.1-17.1C62.4,3.1,43.7-2.1,27.5,3.8z" style="fill: #c22af6; fill-opacity: 1;"></path><path class="st9" d="M44.4,50.2c-6.9,2.5-13.5,4.1-19,4.8c-2.9-3.2-4.8-7.4-5.2-12c-0.1-0.8-0.1-1.6-0.1-2.3    c-6.6,4.3-10.3,8.6-9.2,11.5C12,55,17.6,55.9,25.4,55c4.3,4.8,10.6,7.6,17.5,7C53.7,61,61.8,52.2,62,41.6    C57.4,44.6,51.3,47.6,44.4,50.2z" style="fill: #ec88fc; fill-opacity: 1;"></path><path class="st3" d="M71.3,30.1c-1.1-2.9-6.7-3.8-14.5-2.9c-4.3-4.8-10.6-7.6-17.5-7c-10.9,1-19.2,10.1-19.1,20.9    c0,0.6,0,1.2,0.1,1.8c0,0,0,0,0,0c0.4,4.5,2.2,8.5,4.9,11.7c0.1,0.1,0.2,0.2,0.3,0.3l0,0c0,0,0,0,0,0l0,0c5.5-0.7,12.1-2.3,19-4.8    c6.9-2.5,13-5.5,17.6-8.5l0,0l0,0C68.6,37.3,72.3,33.1,71.3,30.1z" style="fill: #FFFFFF;"></path></svg> <svg x="194.655" y="248.8000003051758" viewBox="3.9600000381469727 9.279999732971191 266.33001708984375 42.81999969482422" height="42.81999969482422" width="266.33001708984375" style="overflow: visible;"><g fill="#ffffff" fill-opacity="1" style=""><path d="M16.81 42.90L9.20 42.90L9.20 37.88L17.25 37.88Q19.45 37.88 20.59 36.67Q21.74 35.46 21.74 33.35L21.74 33.35Q21.74 31.24 20.59 30.07Q19.45 28.91 17.25 28.91L17.25 28.91L9.20 28.91L9.20 25.08L16.81 25.08Q20.02 25.08 22.55 25.85Q25.08 26.62 26.51 28.42Q27.94 30.23 27.94 33.26L27.94 33.26L27.94 33.88Q27.94 36.74 26.69 38.74Q25.43 40.74 22.95 41.82Q20.46 42.90 16.81 42.90L16.81 42.90ZM10.08 42.90L3.96 42.90L3.96 10.34L10.08 10.34L10.08 42.90ZM15.49 27.90L9.20 27.90L9.20 24.07L16.06 24.07Q18.30 24.07 19.36 22.88Q20.42 21.69 20.42 19.71L20.42 19.71Q20.42 17.73 19.36 16.54Q18.30 15.36 16.06 15.36L16.06 15.36L9.20 15.36L9.20 10.34L15.49 10.34Q20.94 10.34 23.78 12.63Q26.62 14.92 26.62 19.18L26.62 19.18L26.62 19.80Q26.62 22.79 25.19 24.57Q23.76 26.36 21.25 27.13Q18.74 27.90 15.49 27.90L15.49 27.90ZM36.96 52.10L33.04 52.10L33.04 46.86L37.53 46.86Q38.81 46.86 39.67 46.53Q40.52 46.20 41.10 45.47Q41.67 44.75 41.98 43.47L41.98 43.47L48.40 18.79L54.25 18.79L47.17 44.79Q46.46 47.48 45.19 49.08Q43.91 50.69 41.91 51.39Q39.91 52.10 36.96 52.10L36.96 52.10ZM45.58 42.15L40.48 42.15L40.48 37.31L45.58 37.31L45.58 42.15ZM44.18 42.15L38.41 42.15L30.67 18.79L36.83 18.79L44.18 42.15ZM72.73 42.99L69.30 42.99Q66 42.99 63.87 42.13Q61.73 41.27 60.68 39.23Q59.62 37.18 59.62 33.70L59.62 33.70L59.66 12.06L65.38 12.06L65.34 34.10Q65.34 35.86 66.29 36.81Q67.23 37.75 68.99 37.75L68.99 37.75L72.73 37.75L72.73 42.99ZM72.73 23.28L55.84 23.28L55.84 18.79L72.73 18.79L72.73 23.28ZM88.44 43.52L88.44 43.52Q85.36 43.52 83.05 42.46Q80.74 41.40 79.22 39.62Q77.70 37.84 76.93 35.64Q76.16 33.44 76.16 31.15L76.16 31.15L76.16 30.32Q76.16 27.94 76.93 25.72Q77.70 23.50 79.22 21.76Q80.74 20.02 82.98 18.99Q85.23 17.95 88.18 17.95L88.18 17.95Q92.05 17.95 94.67 19.65Q97.28 21.34 98.60 24.09Q99.92 26.84 99.92 30.01L99.92 30.01L99.92 32.21L78.76 32.21L78.76 28.47L96.10 28.47L94.20 30.32Q94.20 28.03 93.54 26.40Q92.88 24.77 91.54 23.89Q90.20 23.01 88.18 23.01L88.18 23.01Q86.15 23.01 84.74 23.94Q83.34 24.86 82.61 26.60Q81.88 28.34 81.88 30.76L81.88 30.76Q81.88 33 82.59 34.74Q83.29 36.48 84.74 37.47Q86.20 38.46 88.44 38.46L88.44 38.46Q90.68 38.46 92.09 37.55Q93.50 36.65 93.90 35.33L93.90 35.33L99.53 35.33Q99.00 37.80 97.50 39.64Q96.01 41.49 93.70 42.50Q91.39 43.52 88.44 43.52ZM113.70 43.43L113.70 43.43Q108.77 43.43 105.97 41.34Q103.18 39.25 103.05 35.55L103.05 35.55L108.55 35.55Q108.68 36.78 109.91 37.80Q111.14 38.81 113.78 38.81L113.78 38.81Q115.98 38.81 117.28 38.02Q118.58 37.22 118.58 35.86L118.58 35.86Q118.58 34.67 117.59 33.97Q116.60 33.26 114.22 33.04L114.22 33.04L112.11 32.82Q108.11 32.38 105.95 30.54Q103.80 28.69 103.80 25.61L103.80 25.61Q103.80 23.14 105.03 21.47Q106.26 19.80 108.44 18.94Q110.62 18.08 113.43 18.08L113.43 18.08Q117.83 18.08 120.56 20.02Q123.29 21.96 123.42 25.70L123.42 25.70L117.92 25.70Q117.83 24.46 116.69 23.58Q115.54 22.70 113.39 22.70L113.39 22.70Q111.45 22.70 110.40 23.45Q109.34 24.20 109.34 25.39L109.34 25.39Q109.34 26.53 110.20 27.15Q111.06 27.76 112.99 27.98L112.99 27.98L115.10 28.20Q119.33 28.64 121.73 30.54Q124.12 32.43 124.12 35.64L124.12 35.64Q124.12 38.02 122.83 39.75Q121.53 41.49 119.20 42.46Q116.86 43.43 113.70 43.43ZM143 42.99L139.57 42.99Q136.27 42.99 134.13 42.13Q132 41.27 130.94 39.23Q129.89 37.18 129.89 33.70L129.89 33.70L129.93 12.06L135.65 12.06L135.61 34.10Q135.61 35.86 136.55 36.81Q137.50 37.75 139.26 37.75L139.26 37.75L143 37.75L143 42.99ZM143 23.28L126.10 23.28L126.10 18.79L143 18.79L143 23.28ZM156.55 43.43L156.29 43.43Q152.15 43.43 149.89 40.70Q147.62 37.97 147.62 32.60L147.62 32.60L147.62 18.74L153.74 18.74L153.74 33.13Q153.74 35.33 154.97 36.63Q156.20 37.93 158.31 37.93L158.31 37.93Q160.42 37.93 161.77 36.56Q163.11 35.20 163.11 32.87L163.11 32.87L163.11 18.74L169.22 18.74L169.22 42.68L164.38 42.68L164.38 32.52L164.87 32.52Q164.87 36.12 163.94 38.54Q163.02 40.96 161.17 42.20Q159.32 43.43 156.55 43.43L156.55 43.43ZM186.16 43.47L186.16 43.47Q183.66 43.47 181.54 42.55Q179.43 41.62 177.89 39.95Q176.35 38.28 175.52 36.06Q174.68 33.84 174.68 31.24L174.68 31.24L174.68 30.32Q174.68 27.76 175.49 25.52Q176.31 23.28 177.78 21.60Q179.26 19.93 181.35 18.99Q183.44 18.04 185.99 18.04L185.99 18.04Q188.80 18.04 190.94 19.25Q193.07 20.46 194.35 22.88Q195.62 25.30 195.76 28.95L195.76 28.95L193.95 26.84L193.95 10.56L200.07 10.56L200.07 42.68L195.23 42.68L195.23 32.52L196.28 32.52Q196.15 36.17 194.79 38.61Q193.42 41.05 191.20 42.26Q188.98 43.47 186.16 43.47ZM187.53 38.32L187.53 38.32Q189.33 38.32 190.83 37.51Q192.32 36.70 193.23 35.13Q194.13 33.57 194.13 31.46L194.13 31.46L194.13 29.70Q194.13 27.59 193.20 26.16Q192.28 24.73 190.78 23.96Q189.29 23.19 187.53 23.19L187.53 23.19Q185.55 23.19 184.03 24.13Q182.51 25.08 181.65 26.80Q180.80 28.51 180.80 30.80L180.80 30.80Q180.80 33.09 181.68 34.78Q182.56 36.48 184.07 37.40Q185.59 38.32 187.53 38.32ZM214.28 42.68L208.16 42.68L208.16 18.79L214.28 18.79L214.28 42.68ZM214.28 23.36L204.82 23.36L204.82 18.79L214.28 18.79L214.28 23.36ZM210.41 15.93L210.41 15.93Q208.60 15.93 207.75 14.98Q206.89 14.04 206.89 12.58L206.89 12.58Q206.89 11.13 207.75 10.21Q208.60 9.28 210.41 9.28L210.41 9.28Q212.21 9.28 213.05 10.21Q213.88 11.13 213.88 12.58L213.88 12.58Q213.88 14.04 213.05 14.98Q212.21 15.93 210.41 15.93ZM232.80 43.52L232.80 43.52Q229.64 43.52 227.22 42.50Q224.80 41.49 223.12 39.75Q221.45 38.02 220.59 35.82Q219.74 33.62 219.74 31.24L219.74 31.24L219.74 30.32Q219.74 27.85 220.64 25.63Q221.54 23.41 223.23 21.67Q224.93 19.93 227.35 18.94Q229.77 17.95 232.80 17.95L232.80 17.95Q235.84 17.95 238.26 18.94Q240.68 19.93 242.37 21.67Q244.07 23.41 244.95 25.63Q245.83 27.85 245.83 30.32L245.83 30.32L245.83 31.24Q245.83 33.62 244.97 35.82Q244.11 38.02 242.44 39.75Q240.77 41.49 238.35 42.50Q235.93 43.52 232.80 43.52ZM232.80 38.28L232.80 38.28Q235.05 38.28 236.59 37.29Q238.13 36.30 238.92 34.61Q239.71 32.91 239.71 30.76L239.71 30.76Q239.71 28.56 238.90 26.86Q238.08 25.17 236.52 24.18Q234.96 23.19 232.80 23.19L232.80 23.19Q230.65 23.19 229.09 24.18Q227.52 25.17 226.69 26.86Q225.85 28.56 225.85 30.76L225.85 30.76Q225.85 32.91 226.67 34.61Q227.48 36.30 229.02 37.29Q230.56 38.28 232.80 38.28ZM259.86 43.43L259.86 43.43Q254.94 43.43 252.14 41.34Q249.35 39.25 249.22 35.55L249.22 35.55L254.72 35.55Q254.85 36.78 256.08 37.80Q257.31 38.81 259.95 38.81L259.95 38.81Q262.15 38.81 263.45 38.02Q264.75 37.22 264.75 35.86L264.75 35.86Q264.75 34.67 263.76 33.97Q262.77 33.26 260.39 33.04L260.39 33.04L258.28 32.82Q254.28 32.38 252.12 30.54Q249.96 28.69 249.96 25.61L249.96 25.61Q249.96 23.14 251.20 21.47Q252.43 19.80 254.61 18.94Q256.78 18.08 259.60 18.08L259.60 18.08Q264 18.08 266.73 20.02Q269.46 21.96 269.59 25.70L269.59 25.70L264.09 25.70Q264 24.46 262.86 23.58Q261.71 22.70 259.56 22.70L259.56 22.70Q257.62 22.70 256.56 23.45Q255.51 24.20 255.51 25.39L255.51 25.39Q255.51 26.53 256.37 27.15Q257.22 27.76 259.16 27.98L259.16 27.98L261.27 28.20Q265.50 28.64 267.89 30.54Q270.29 32.43 270.29 35.64L270.29 35.64Q270.29 38.02 268.99 39.75Q267.70 41.49 265.36 42.46Q263.03 43.43 259.86 43.43Z" transform="translate(0, 0)"></path></g></svg></svg>